<?xml version="1.0" standalone="no"?>
<!DOCTYPE svg PUBLIC "-//W3C//DTD SVG 1.1//EN" "http://www.w3.org/Graphics/SVG/1.1/DTD/svg11.dtd" >
<svg xmlns="http://www.w3.org/2000/svg">
<metadata></metadata>
<defs>
<font id="_.condensed_regular" horiz-adv-x="966" >
<font-face units-per-em="2048" ascent="1638" descent="-410" />
<missing-glyph horiz-adv-x="515" />
<glyph horiz-adv-x="0" />
<glyph unicode="&#xd;" horiz-adv-x="476" />
<glyph horiz-adv-x="2088" />
<glyph horiz-adv-x="2088" />
<glyph unicode=" "  horiz-adv-x="515" />
<glyph unicode="&#x09;" horiz-adv-x="515" />
<glyph unicode="&#xa0;" horiz-adv-x="515" />
<glyph unicode="!" horiz-adv-x="464" d="M159 1513h146v-1104h-146v1104zM159 192h146v-192h-146v192z" />
<glyph unicode="&#x22;" horiz-adv-x="618" d="M123 1513h122v-419h-122v419zM374 1513h121v-419h-121v419z" />
<glyph unicode="#" horiz-adv-x="1161" d="M403 592h305l46 329h-305zM273 482h-223v110h239l46 329h-224v109h238l69 483h119l-73 -483h305l68 483h120l-70 -483h225v-109h-239l-46 -329h224v-110h-238l-69 -482h-120l70 482h-305l-66 -482h-118z" />
<glyph unicode="$" horiz-adv-x="1161" d="M652 115q92 2 147.5 15.5t84.5 48t37 93t8 152.5q0 84 -6 136t-33 80t-82.5 39t-155.5 15v-579zM530 1395q-85 0 -138 -10t-84 -40.5t-42 -84.5t-11 -144q0 -80 8 -131.5t37.5 -81.5t84 -43.5t145.5 -17.5v553zM530 -16h-56q-111 0 -183 22t-114.5 67.5t-60.5 115.5 t-18 166v119h134v-115q0 -70 9.5 -116t35.5 -74.5t75 -40t128 -11.5h50v583q-125 8 -204 29t-124 69t-63 128.5t-18 205.5q0 113 18 189t60 122t111.5 66t173.5 20h46v186h122v-186q113 -4 191 -18t125 -52t68 -109.5t21 -191.5v-68h-134v40q0 94 -10 147.5t-39.5 79.5 t-83 32t-138.5 6v-556q127 -6 206.5 -24.5t125.5 -63.5t62.5 -126.5t16.5 -215.5q0 -118 -17.5 -199.5t-62.5 -131.5t-125.5 -72t-205.5 -22v-214h-122v214z" />
<glyph unicode="%" horiz-adv-x="1662" d="M1140 376q0 -89 4.5 -144t20 -83t49 -36.5t94.5 -8.5q58 0 92.5 8.5t50.5 36.5t20 83t4 144v165q0 89 -4 144t-20 83t-50.5 36.5t-92.5 8.5q-61 0 -94.5 -8.5t-49 -36.5t-20 -83t-4.5 -144v-165zM1232 1529h122l-926 -1545h-121zM188 971q0 -90 4.5 -144t19.5 -82.5 t49 -36.5t94 -8q59 0 93 8t50 36.5t20 82.5t4 144v165q0 90 -4 144.5t-20 82.5t-50 36.5t-93 8.5q-60 0 -94 -8.5t-49 -36.5t-19.5 -82.5t-4.5 -144.5v-165zM1019 681q0 59 10.5 105.5t42 80.5t88 50t148.5 16q91 0 148 -16t88 -50t41.5 -80.5t10.5 -105.5v-445 q0 -61 -10.5 -106.5t-41.5 -79.5t-88 -50t-148 -16q-92 0 -148.5 16t-88 50t-42 79.5t-10.5 106.5v445zM67 1276q0 59 10.5 106t41.5 80t87.5 50t148.5 17t148.5 -17t87.5 -50t42 -80t11 -106v-445q0 -60 -11 -106t-42 -79.5t-87.5 -50.5t-148.5 -17t-148.5 17t-87.5 50.5 t-41.5 79.5t-10.5 106v445z" />
<glyph unicode="&#x26;" horiz-adv-x="1161" d="M273 339q0 -62 14 -101t45 -63.5t82.5 -34.5t128.5 -10q132 0 182 34.5t50 117.5v59l-320 388q-4 8 -12 13.5t-36 5.5q-54 0 -94 -35.5t-40 -120.5v-253zM905 182q-16 -63 -45 -101.5t-74.5 -60.5t-109.5 -29t-148 -7q-133 0 -212.5 19.5t-121 73t-54 146t-12.5 241.5 q0 130 15.5 209t43.5 125t67 62.5t85 20.5q-38 50 -67 88t-49 75.5t-29.5 79.5t-9.5 98q0 84 11.5 142.5t47.5 94.5t102 53t177 17q126 0 195.5 -22t103.5 -59.5t40 -89.5t6 -113v-127h-134v136q0 26 -7 49t-29 41t-60.5 28.5t-102.5 10.5q-56 0 -96.5 -4t-66.5 -22 t-40 -52.5t-14 -92.5q0 -48 19 -88t61 -92l401 -493v305h147v-479l227 -263l-111 -102z" />
<glyph unicode="'" horiz-adv-x="350" d="M115 1513h121v-419h-121v419z" />
<glyph unicode="(" horiz-adv-x="618" d="M516 1395q-58 0 -97 -14.5t-60.5 -41.5t-31.5 -67t-10 -92v-847q0 -54 10 -93t31.5 -66.5t60.5 -42t97 -14.5v-133q-92 0 -155.5 21t-102.5 74t-56.5 146.5t-17.5 242.5v576q0 146 17.5 241.5t56.5 148.5t102.5 74t155.5 21v-134z" />
<glyph unicode=")" horiz-adv-x="618" d="M102 117q59 0 97.5 14.5t60.5 42t31.5 66.5t9.5 93v847q0 52 -9.5 92t-31.5 67t-60.5 41.5t-97.5 14.5v134q92 0 155.5 -21t102.5 -74t57 -148.5t18 -241.5v-576q0 -149 -18 -242.5t-57 -146.5t-102.5 -74t-155.5 -21v133z" />
<glyph unicode="*" horiz-adv-x="964" d="M259 1489l92 40l113 -253l-79 -48zM385 1044l79 -47l-113 -253l-92 39zM502 997l78 47l126 -261l-92 -39zM614 1529l92 -40l-126 -261l-78 48zM596 1088v96h250v-96h-250zM119 1088v96h250v-96h-250z" />
<glyph unicode="+" horiz-adv-x="1253" d="M98 590h468v467h121v-467h469v-122h-469v-468h-121v468h-468v122z" />
<glyph unicode="," horiz-adv-x="580" d="M217 192h146v-228q0 -66 -9 -103.5t-29 -56.5t-50 -24t-70 -5v83q20 0 35 4t23 19t12 43t4 76h-62v192z" />
<glyph unicode="-" horiz-adv-x="618" d="M80 614h459v-121h-459v121z" />
<glyph unicode="." horiz-adv-x="580" d="M217 192h146v-192h-146v192z" />
<glyph unicode="/" horiz-adv-x="618" d="M556 1529h129l-623 -1545h-129z" />
<glyph unicode="0" horiz-adv-x="1161" d="M1061 453q0 -154 -26 -247t-83 -142.5t-149.5 -64.5t-222.5 -15q-129 0 -221 15t-149 64.5t-83.5 142.5t-26.5 247v606q0 155 26.5 247.5t83.5 141.5t149 65t221 16q130 0 222.5 -16t149.5 -65t83 -141.5t26 -247.5v-606zM915 1103q0 103 -15 160t-52 83.5t-102 31.5 t-166 5q-100 0 -164.5 -5t-102.5 -31.5t-52 -83.5t-14 -160v-694q0 -104 14 -160.5t52 -82.5t102.5 -31t164.5 -5q101 0 166 5t102 31t52 82.5t15 160.5v694z" />
<glyph unicode="1" horiz-adv-x="1161" d="M584 1366h-4l-309 -395l-98 90l364 452h194v-1513h-147v1366z" />
<glyph unicode="2" horiz-adv-x="1161" d="M113 267q0 130 22 211.5t75 130.5t145 72t231 35q106 11 168.5 25.5t94.5 52t43 105.5t11 185q0 90 -11 148.5t-44 92t-97 46t-171 12.5q-110 0 -174.5 -10.5t-98.5 -40.5t-43 -86t-9 -145v-73h-134v90q0 94 10.5 170t56.5 129.5t139 82.5t259 29q133 0 221 -17t142 -66 t77 -135.5t23 -224.5q0 -123 -10.5 -216t-54.5 -156.5t-130.5 -99.5t-237.5 -44q-123 -8 -194 -26t-107 -50t-46 -80.5t-10 -114.5v-153h779v-146h-925v267z" />
<glyph unicode="3" horiz-adv-x="1161" d="M491 833q135 0 218 6.5t126.5 35t57.5 87.5t14 166q0 76 -6 125t-37 78t-94.5 40.5t-177.5 11.5q-86 0 -148 -4t-100.5 -25t-57.5 -65t-19 -121v-117h-133v131q0 122 31.5 190.5t89.5 103.5t139.5 44t179.5 9q166 0 260.5 -22t144 -71t62 -127.5t12.5 -188.5 q0 -145 -36.5 -229t-143.5 -116v-4q44 -13 78.5 -31.5t58.5 -54t37.5 -94.5t13.5 -154q0 -132 -11.5 -219.5t-58 -139.5t-141 -73t-258.5 -21q-149 0 -245 16t-150.5 60t-75.5 121.5t-21 200.5v105h134q0 -120 6.5 -190t38.5 -107t101 -48.5t196 -11.5q120 0 187.5 10 t101.5 41.5t42 90t8 156.5q0 100 -13 156t-56.5 81t-128 30t-226.5 5v133z" />
<glyph unicode="4" horiz-adv-x="1161" d="M760 1366h-4l-591 -877h595v877zM760 343h-716v209l646 961h217v-1024h189v-146h-189v-343h-147v343z" />
<glyph unicode="5" horiz-adv-x="1161" d="M138 1513h865v-134h-718v-460h4q26 38 56.5 61t68 35.5t86 16.5t112.5 4q144 0 230.5 -29.5t134 -91.5t62 -162.5t14.5 -242.5q0 -171 -21 -274.5t-75 -160.5t-148.5 -74t-242.5 -17q-96 0 -179.5 11t-145 48t-97.5 102.5t-36 173.5v113h135q0 -95 8 -155t41 -92 t101.5 -43.5t184.5 -11.5q120 0 185.5 13.5t96.5 54t39 116t8 196.5q0 106 -6 178t-38 117.5t-99.5 64.5t-193.5 19q-73 0 -124 -4t-86 -17t-58 -39.5t-39 -72.5h-125v757z" />
<glyph unicode="6" horiz-adv-x="1161" d="M897 1140q-6 78 -15 126t-38 74t-87.5 34.5t-160.5 8.5q-101 0 -168 -7.5t-108 -37.5t-57 -90t-16 -164v-295h4q31 46 64.5 73t75 41t95 17t126.5 3q138 0 224.5 -19t137 -71t69 -142.5t18.5 -237.5q0 -154 -26 -247t-83 -142.5t-149.5 -64.5t-222.5 -15q-129 0 -221 15 t-149 64.5t-83.5 142.5t-26.5 247v606q0 155 26.5 247.5t83.5 141.5t149 65t221 16q130 0 216.5 -16t138 -58.5t73.5 -118.5t22 -196h-133zM915 460q0 116 -13 182t-48 99.5t-101 40.5t-173 7q-110 0 -175.5 -9t-101.5 -42.5t-46 -99.5t-10 -178q0 -117 12 -183t48 -99.5 t101.5 -40.5t171.5 -7q107 0 173 7t101 40.5t48 99.5t13 183z" />
<glyph unicode="7" horiz-adv-x="1161" d="M907 1366h-807v147h928v-222l-633 -1291h-154z" />
<glyph unicode="8" horiz-adv-x="1161" d="M247 422q0 -99 11 -156t47 -87.5t101.5 -39.5t173.5 -9q110 0 175.5 9t100.5 39.5t47 87.5t12 156q0 98 -12 155.5t-47 88t-100.5 39.5t-175.5 9q-108 0 -173.5 -9t-101.5 -39.5t-47 -88t-11 -155.5zM255 1122q0 -80 5 -132t35 -83.5t96.5 -45t188.5 -13.5t188.5 13.5 t97.5 45t36 83.5t5 132q0 78 -5 131t-36 84t-97.5 44.5t-188.5 13.5t-188.5 -13.5t-96.5 -44.5t-35 -84t-5 -131zM100 405q0 82 5.5 143.5t25 106.5t56 76.5t100.5 51.5v4q-55 20 -87.5 49t-49 71t-23 96t-6.5 121v62q0 111 22 179t75 105t142 48t220 11q132 0 219.5 -11 t141 -48t76.5 -105t23 -179v-62q0 -67 -6 -121t-23 -96t-50.5 -71t-85.5 -49v-4q63 -20 99.5 -51.5t56.5 -76.5t25 -106.5t5 -143.5q0 -144 -26 -227.5t-83 -127.5t-148.5 -55t-223.5 -11q-131 0 -222 11t-148 55t-83.5 127.5t-26.5 227.5z" />
<glyph unicode="9" horiz-adv-x="1161" d="M265 372q4 -77 14 -125t39 -74.5t87.5 -34.5t160.5 -8q100 0 167 7t107.5 37.5t57.5 89.5t17 164v295h-4q-32 -46 -65 -73.5t-75 -40.5t-96.5 -16t-124.5 -3q-139 0 -225.5 18t-136.5 69.5t-69 143.5t-19 238q0 155 26.5 247.5t83.5 141.5t149 65t221 16q130 0 222.5 -16 t149.5 -65t83 -141.5t26 -247.5v-606q0 -154 -26 -247t-83 -142.5t-149.5 -64.5t-222.5 -15q-129 0 -216 15t-139 58t-72.5 119.5t-20.5 195.5h133zM247 1053q0 -117 12 -183t48 -99.5t101.5 -40.5t171.5 -7q112 0 177.5 9.5t101.5 43t46 99t10 178.5q0 117 -13 183t-48 99 t-101 40.5t-173 7.5q-106 0 -171.5 -7.5t-101.5 -40.5t-48 -99t-12 -183z" />
<glyph unicode=":" horiz-adv-x="580" d="M217 1005h146v-192h-146v192zM217 192h146v-192h-146v192z" />
<glyph unicode=";" horiz-adv-x="580" d="M217 192h146v-228q0 -66 -9 -103.5t-29 -56.5t-50 -24t-70 -5v83q20 0 35 4t23 19t12 43t4 76h-62v192zM217 1005h146v-192h-146v192z" />
<glyph unicode="&#x3c;" horiz-adv-x="1253" d="M1156 945l-909 -417l909 -415v-129l-1058 484v122l1058 484v-129z" />
<glyph unicode="=" horiz-adv-x="1253" d="M98 796h1058v-121h-1058v121zM98 382h1058v-121h-1058v121z" />
<glyph unicode="&#x3e;" horiz-adv-x="1253" d="M98 113l909 415l-909 417v129l1058 -484v-122l-1058 -484v129z" />
<glyph unicode="?" horiz-adv-x="889" d="M52 1206q0 114 33.5 179.5t89 97.5t126.5 39t144 7q131 0 208.5 -24t118.5 -72t53 -119t12 -165q0 -138 -11 -218t-36 -128.5t-67 -73.5t-103 -50q-60 -25 -95.5 -42t-53.5 -34t-23 -37t-5 -52v-105h-146v88q0 67 7 109t35 74t86.5 63.5t158.5 75.5q38 16 61 32t36 47 t18 88.5t5 157.5q0 66 -5 112t-29 74t-75.5 40.5t-143.5 12.5q-90 0 -143 -7.5t-80 -40.5t-34.5 -100t-7.5 -188h-134v159zM297 192h146v-192h-146v192z" />
<glyph unicode="@" horiz-adv-x="1670" d="M520 622q0 -94 55 -157.5t144 -63.5q70 0 134 46t111 118.5t74 158t27 163.5q0 95 -47 154.5t-133 59.5q-78 0 -146.5 -48t-116.5 -120t-75 -155.5t-27 -155.5zM1186 1170h130l-202 -600q-11 -31 -16.5 -62.5t-5.5 -54.5q0 -52 48 -52q66 0 127.5 45t110.5 116t79 156.5 t30 166.5q0 126 -51 225.5t-135.5 168t-196.5 105.5t-233 37q-148 0 -273.5 -53.5t-217 -144.5t-144 -214.5t-52.5 -260.5q0 -138 51.5 -257t144 -208t220 -140t279.5 -51q82 0 161.5 18t152.5 52.5t135.5 83.5t110.5 111h126q-50 -88 -125.5 -156.5t-165.5 -117.5t-191 -74 t-204 -25q-181 0 -331.5 58t-258 161.5t-167.5 247t-60 312.5q0 158 64 298.5t173.5 244.5t256 163.5t311.5 59.5q152 0 287 -48t236 -133.5t160 -202.5t59 -258q0 -127 -48 -235.5t-123.5 -189t-164.5 -125t-170 -44.5q-56 0 -95 36t-49 103h-4q-50 -60 -124.5 -99.5 t-166.5 -39.5q-62 0 -115.5 25t-92 68.5t-60.5 103.5t-22 128q0 105 37.5 210t106 190t164 138.5t213.5 53.5q28 0 62.5 -9t68 -28.5t63 -53t47.5 -83.5z" />
<glyph unicode="A" horiz-adv-x="1199" d="M610 1366h-20l-271 -900h560zM925 319h-652l-98 -319h-152l474 1513h205l474 -1513h-152z" />
<glyph unicode="B" horiz-adv-x="1199" d="M273 146h419q83 0 134 13.5t77 47.5t35 87t9 134q0 82 -9 135t-35 86.5t-77 47t-134 13.5h-419v-564zM273 857h446q62 0 101 17t61 51t29 81t7 106q0 56 -3 103t-22 80.5t-57.5 52t-107.5 18.5h-454v-509zM128 1513h595q106 0 172 -22t103.5 -66t51 -112t13.5 -160 q0 -71 -5 -127.5t-21 -99.5t-47 -74t-83 -52v-4q62 -15 98.5 -44t55.5 -77.5t25 -117t6 -160.5q0 -102 -17.5 -176.5t-59.5 -123.5t-113 -73t-179 -24h-595v1513z" />
<glyph unicode="C" horiz-adv-x="1199" d="M1109 389q0 -124 -22 -202.5t-75 -124.5t-143 -62t-227 -16q-151 0 -253 18t-165 74t-90.5 157.5t-27.5 268.5v509q0 165 27.5 267.5t90.5 157.5t165 74t253 19q125 0 214 -12.5t145 -53t82 -119t26 -210.5v-108h-134v98q0 88 -15 140t-54 78t-104 33.5t-160 7.5 q-130 0 -206.5 -12.5t-117.5 -52.5t-53 -115t-12 -200v-493q0 -125 12 -200.5t53 -115t117.5 -52t206.5 -12.5q114 0 179.5 13.5t100.5 45.5t44 84t9 130v101h134v-115z" />
<glyph unicode="D" horiz-adv-x="1276" d="M128 1513h578q165 0 259 -47t139 -136t55.5 -218.5t10.5 -294.5q0 -207 -12 -360.5t-58.5 -255t-144.5 -151.5t-270 -50h-557v1513zM273 146h458q90 0 147.5 28.5t90 97.5t44 186.5t11.5 297.5q0 186 -11.5 305t-43 187t-89 93t-149.5 25h-458v-1220z" />
<glyph unicode="E" horiz-adv-x="1044" d="M128 1513h810v-147h-665v-509h632v-147h-632v-564h660v-146h-805v1513z" />
<glyph unicode="F" d="M128 1513h783v-147h-638v-531h612v-145h-612v-690h-145v1513z" />
<glyph unicode="G" horiz-adv-x="1238" d="M604 744h538v-339q0 -152 -32 -236.5t-96.5 -125.5t-159 -50t-214.5 -9q-149 0 -251 18t-165 74t-90.5 157.5t-27.5 268.5v509q0 165 27.5 267.5t90.5 157.5t165 74t251 19q110 0 203 -8t160 -40t103 -94.5t36 -168.5v-153h-145v55q0 88 -13 139t-51 79t-108.5 36.5 t-184.5 8.5q-130 0 -206.5 -12.5t-116.5 -52.5t-52 -115t-12 -200v-493q0 -125 12 -200.5t52 -115t116.5 -52t206.5 -12.5q108 0 177.5 5t109.5 35.5t55 94t15 182.5v151h-393v146z" />
<glyph unicode="H" horiz-adv-x="1276" d="M128 1513h145v-656h728v656h148v-1513h-146v698h-730v-698h-145v1513z" />
<glyph unicode="I" horiz-adv-x="464" d="M159 1513h146v-1513h-146v1513z" />
<glyph unicode="J" d="M694 1513h145v-1192q0 -104 -26 -169.5t-76 -103.5t-124 -51t-168 -13t-168 13t-124.5 51t-76.5 103.5t-26 169.5v222h147v-218q0 -60 12 -97.5t40 -59.5t76.5 -30t119.5 -8t119 8t76 30t41 59.5t13 97.5v1188z" />
<glyph unicode="K" horiz-adv-x="1122" d="M128 1513h145v-656h136l512 656h182l-571 -732l634 -781h-189l-576 710h-128v-710h-145v1513z" />
<glyph unicode="L" d="M128 1513h145v-1354h638v-159h-783v1513z" />
<glyph unicode="M" horiz-adv-x="1662" d="M128 1513h244l457 -1336h4l458 1336h244v-1513h-146v1354h-4l-474 -1354h-159l-475 1354h-4v-1354h-145v1513z" />
<glyph unicode="N" horiz-adv-x="1315" d="M128 1513h231l679 -1354h4v1354h146v-1513h-231l-680 1354h-4v-1354h-145v1513z" />
<glyph unicode="O" horiz-adv-x="1278" d="M1026 1003q0 125 -12.5 200t-52.5 115t-117 52.5t-204 12.5q-130 0 -206.5 -12.5t-116.5 -52.5t-52 -115t-12 -200v-493q0 -125 12 -200.5t52 -115t116.5 -52t206.5 -12.5q127 0 204 12.5t117 52t52.5 115t12.5 200.5v493zM106 1011q0 165 27.5 267.5t90.5 157.5t165 74 t251 19q147 0 249.5 -19t165.5 -74t90 -157.5t27 -267.5v-509q0 -167 -27 -268.5t-90 -157.5t-165.5 -74t-249.5 -18q-149 0 -251 18t-165 74t-90.5 157.5t-27.5 268.5v509z" />
<glyph unicode="P" horiz-adv-x="1122" d="M273 735h425q65 0 110 14t72 48t38 96t11 158q0 105 -10 167t-34 94.5t-64 43t-100 10.5h-448v-631zM128 1513h635q96 0 157.5 -34t96 -94.5t47 -146t12.5 -187.5q0 -150 -28.5 -242.5t-80.5 -140.5t-125 -63t-161 -15h-408v-590h-145v1513z" />
<glyph unicode="Q" horiz-adv-x="1278" d="M253 510q0 -134 9 -210.5t48 -114t116.5 -46.5t213.5 -9q81 0 139 2t101 11.5t69 27t41 46.5l-372 315l80 94l321 -271q5 30 6 68.5t1 86.5v493q0 133 -9.5 209.5t-48.5 114t-116 47t-212 9.5q-136 0 -213.5 -9.5t-116.5 -47t-48 -114t-9 -209.5v-493zM106 1011 q0 165 24.5 267.5t85.5 157.5t163.5 74t260.5 19q156 0 258.5 -19t164 -74t85.5 -157.5t24 -267.5v-509q0 -78 -5 -140.5t-18 -114.5l109 -92l-80 -97l-75 65q-27 -41 -68 -68t-97.5 -43t-130.5 -22t-167 -6q-158 0 -260.5 18t-163.5 74t-85.5 157.5t-24.5 268.5v509z" />
<glyph unicode="R" horiz-adv-x="1238" d="M128 1513h618q100 0 169 -20t113 -68t64 -131.5t20 -209.5q0 -98 -11 -168t-34 -117t-59.5 -75t-88.5 -41v-4q90 -25 128.5 -92t38.5 -173v-414h-146v345q0 75 -12.5 125t-44.5 81t-87.5 44t-141.5 13h-381v-608h-145v1513zM273 754h475q115 0 166 74.5t51 230.5 q0 107 -9 168.5t-38 91.5t-81 38.5t-135 8.5h-429v-612z" />
<glyph unicode="S" horiz-adv-x="1119" d="M92 474h133v-87q0 -86 13 -136t48 -77.5t101 -35.5t173 -8q106 0 170 6t97.5 36.5t43.5 90.5t10 167q0 72 -5 121t-33 79t-88.5 47t-174.5 27l-154 12q-96 9 -157.5 32t-97 68t-49.5 118t-14 182q0 138 23.5 219.5t76.5 125t140 56t216 12.5q138 0 224.5 -18t136.5 -65 t69 -129.5t23 -213.5h-134v33q0 76 -14 123t-51 75t-98.5 38.5t-155.5 10.5q-106 0 -167.5 -10.5t-93.5 -39.5t-40 -81t-8 -136q0 -82 10 -131t44 -78.5t96.5 -42.5t166.5 -20q140 -11 228.5 -27.5t139 -61.5t69.5 -126t19 -220q0 -134 -25.5 -217.5t-80.5 -129.5 t-143.5 -62t-216.5 -16q-130 0 -219.5 15t-145 57t-80.5 114.5t-25 186.5v117z" />
<glyph unicode="T" horiz-adv-x="1002" d="M428 1366h-414v147h974v-147h-414v-1366h-146v1366z" />
<glyph unicode="U" horiz-adv-x="1241" d="M128 1513h145v-1170q0 -61 17 -101.5t56 -66t105.5 -35.5t166.5 -10q103 0 170 10t106 35.5t56 66t17 101.5v1170h147v-1126q0 -122 -27.5 -200.5t-86 -123.5t-153.5 -62t-229 -17q-131 0 -225 17t-152.5 62t-85.5 123.5t-27 200.5v1126z" />
<glyph unicode="V" horiz-adv-x="1161" d="M26 1513h147l405 -1367h4l406 1367h148l-453 -1513h-205z" />
<glyph unicode="W" horiz-adv-x="1933" d="M969 1366h-4l-337 -1366h-212l-396 1513h143l355 -1367h4l335 1367h221l334 -1367h5l355 1367h142l-395 -1513h-213z" />
<glyph unicode="X" horiz-adv-x="1199" d="M493 769l-426 744h165l368 -648l367 648h165l-430 -744l458 -769h-170l-390 681l-391 -681h-169z" />
<glyph unicode="Y" horiz-adv-x="1086" d="M470 628l-472 885h152l393 -736l393 736h152l-472 -885v-628h-146v628z" />
<glyph unicode="Z" horiz-adv-x="1086" d="M54 146l801 1220h-771v147h937v-147l-800 -1220h811v-146h-978v146z" />
<glyph unicode="[" horiz-adv-x="618" d="M184 1513h271v-134h-138v-1245h138v-134h-271v1513z" />
<glyph unicode="\" horiz-adv-x="618" d="M-67 1529h129l623 -1545h-129z" />
<glyph unicode="]" horiz-adv-x="618" d="M163 134h138v1245h-138v134h272v-1513h-272v134z" />
<glyph unicode="^" horiz-adv-x="1253" d="M566 1513h121l469 -917h-132l-398 783l-396 -783h-132z" />
<glyph unicode="_" horiz-adv-x="1044" d="M0 -261v104h1044v-104h-1044z" />
<glyph unicode="`" horiz-adv-x="426" d="M-50 1477h163l232 -291h-107z" />
<glyph unicode="a" d="M735 92q-29 -32 -59 -53t-67 -33t-82 -17t-103 -5q-103 0 -167.5 23t-101 66.5t-50 105.5t-13.5 138q0 78 11.5 140.5t48 105.5t101 66t171.5 23q75 0 124.5 -5t80.5 -16t51 -30t39 -45h4v194q0 59 -6.5 99t-29.5 65.5t-70 36t-130 10.5q-82 0 -128 -10.5t-67 -33 t-25 -59.5t-4 -87h-133v56q0 48 10 94t46.5 81.5t108.5 57.5t198 22q111 0 182 -17.5t111.5 -55.5t55.5 -95t15 -135v-779h-122v92zM225 323q0 -60 15 -100.5t46 -63.5t79.5 -32.5t114.5 -9.5q68 0 116 9.5t79 32.5t45.5 63.5t14.5 100.5q0 122 -60.5 164.5t-194.5 42.5 q-133 0 -194 -42.5t-61 -164.5z" />
<glyph unicode="b" horiz-adv-x="1004" d="M767 532q0 138 -10.5 220.5t-38.5 125.5t-78 57t-128 14q-73 0 -121 -19t-78.5 -61t-43 -108.5t-12.5 -164.5q0 -151 8 -244t35.5 -145t77.5 -71t134 -19q78 0 128 13.5t78 56.5t38.5 125.5t10.5 219.5zM123 1513h134v-582h4q54 95 128.5 123t166.5 28q102 0 171 -27 t110.5 -90.5t58.5 -169t17 -263.5q0 -156 -18 -261.5t-60.5 -169t-115.5 -90.5t-185 -27t-173.5 35t-99.5 115h-4v-134h-134v1513z" />
<glyph unicode="c" horiz-adv-x="927" d="M700 710q0 73 -8.5 121t-32.5 77.5t-65.5 41t-109.5 11.5q-79 0 -128 -11.5t-75 -54t-34.5 -128.5t-8.5 -235q0 -147 8.5 -233t34.5 -128.5t75 -54.5t128 -12q72 0 118 12t72 43t35.5 86.5t9.5 141.5h134v-70q0 -104 -24.5 -168.5t-71.5 -101.5t-115 -50t-158 -13 q-131 0 -209 25t-119 87.5t-52.5 167.5t-11.5 268q0 166 15.5 272.5t59.5 168t120 85.5t197 24q110 0 177.5 -19t106.5 -61.5t52 -113.5t13 -178h-133z" />
<glyph unicode="d" horiz-adv-x="1004" d="M238 532q0 -137 10.5 -219.5t38.5 -125.5t77.5 -56.5t128.5 -13.5q83 0 133.5 19t77.5 71t35.5 145t8.5 244q0 98 -12.5 164.5t-43 108.5t-79.5 61t-120 19q-79 0 -128.5 -14t-77.5 -57t-38.5 -125.5t-10.5 -220.5zM748 134h-4q-38 -80 -100 -115t-174 -35 q-111 0 -184 27t-115.5 90.5t-60.5 169t-18 261.5q0 158 16.5 263.5t58.5 169t110 90.5t172 27q92 0 166.5 -28t128.5 -123h4v582h133v-1513h-133v134z" />
<glyph unicode="e" d="M723 635q0 84 -4.5 145.5t-27.5 102t-72 59.5t-139 19q-89 0 -138 -19t-72 -59.5t-27.5 -102t-4.5 -145.5h485zM238 502v-99q0 -88 9.5 -145t33.5 -91.5t68 -48.5t113 -14q81 0 131.5 4.5t79.5 24.5t39.5 62.5t10.5 121.5h134v-40q0 -78 -14 -134.5t-53.5 -92.5 t-112.5 -51t-193 -15q-131 0 -209 25t-119 87.5t-52.5 167.5t-11.5 268q0 166 15.5 272.5t59.5 168t120 85.5t197 24q120 0 193 -25t112.5 -76.5t53.5 -130.5t14 -188v-160h-619z" />
<glyph unicode="f" horiz-adv-x="540" d="M184 945h-132v120h132v193q0 148 68.5 209.5t209.5 61.5q22 0 46 -1t48 -3v-119q-24 2 -44.5 2h-43.5q-67 0 -109 -30.5t-42 -119.5v-193h235v-120h-235v-945h-133v945z" />
<glyph unicode="g" horiz-adv-x="1004" d="M257 560q0 -107 6 -180t30 -120t70 -68t128 -21q81 0 133.5 18t82.5 63t41.5 120t11.5 188q0 112 -11.5 187.5t-41.5 120.5t-82.5 63t-133.5 18q-82 0 -128 -21t-70 -68t-30 -120.5t-6 -179.5zM760 192h-4q-42 -90 -111 -122t-167 -32q-129 0 -202 39.5t-109.5 110.5 t-46 166t-9.5 206q0 110 9.5 205.5t46 166.5t109.5 110.5t202 39.5q102 0 168 -32.5t110 -128.5h4v144h135v-1055q0 -118 -21 -195.5t-69.5 -123.5t-130.5 -65t-204 -19q-77 0 -139 15t-104.5 49t-65.5 91.5t-21 141.5h133q0 -48 12 -79.5t38 -50.5t69 -26t107 -7 q81 0 132.5 11.5t80 43t38.5 89t10 151.5v156z" />
<glyph unicode="h" d="M111 1513h134v-586h4q24 44 51.5 73.5t62 47t78 26t102.5 8.5q92 0 152.5 -23t96 -64.5t50.5 -103.5t15 -139v-752h-134v721q0 46 -7.5 90t-28.5 77t-62 53t-105 20q-60 0 -111.5 -14t-87.5 -46t-56 -88.5t-20 -140.5v-672h-134v1513z" />
<glyph unicode="i" horiz-adv-x="426" d="M146 1065h133v-1065h-133v1065zM146 1513h133v-178h-133v178z" />
<glyph unicode="j" horiz-adv-x="426" d="M146 1065h133v-1262q0 -175 -185 -175h-26t-24 5v116q60 0 81 15t21 69v1232zM146 1513h133v-178h-133v178z" />
<glyph unicode="k" horiz-adv-x="812" d="M303 502h-58v-502h-134v1513h134v-878h62l315 430h165l-373 -493l430 -572h-178z" />
<glyph unicode="l" horiz-adv-x="426" d="M146 1513h133v-1513h-133v1513z" />
<glyph unicode="m" horiz-adv-x="1583" d="M111 1065h134v-158h4q50 87 109.5 131t171.5 44q108 0 186 -33.5t119 -139.5q62 98 134.5 135.5t186.5 37.5q317 0 317 -315v-767h-134v690q0 79 -15.5 130t-44.5 79t-71 39t-92 11q-130 0 -193.5 -61t-63.5 -218v-670h-134v737q0 120 -50.5 166t-160.5 46 q-147 0 -208 -86t-61 -253v-610h-134v1065z" />
<glyph unicode="n" d="M111 1065h134v-138h4q24 44 51.5 73.5t62 47t78 26t102.5 8.5q92 0 152.5 -23t96 -64.5t50.5 -103.5t15 -139v-752h-134v721q0 46 -7.5 90t-28.5 77t-62 53t-105 20q-60 0 -111.5 -14t-87.5 -46t-56 -88.5t-20 -140.5v-672h-134v1065z" />
<glyph unicode="o" horiz-adv-x="969" d="M238 532q0 -147 8.5 -233t34.5 -128.5t75 -54.5t128 -12q80 0 129 12t75 54.5t34.5 128.5t8.5 233q0 149 -8.5 235t-34.5 128.5t-75 54t-129 11.5q-79 0 -128 -11.5t-75 -54t-34.5 -128.5t-8.5 -235zM92 532q0 160 11.5 265.5t52.5 169t119 89.5t209 26q132 0 209.5 -26 t118.5 -89.5t53 -169t12 -265.5q0 -165 -12 -271t-53 -167.5t-119.5 -85.5t-208.5 -24q-129 0 -207 24t-119 85.5t-53.5 167.5t-12.5 271z" />
<glyph unicode="p" horiz-adv-x="1004" d="M767 532q0 138 -10.5 220.5t-38.5 125.5t-78 57t-128 14q-73 0 -121 -19t-78.5 -61t-43 -108.5t-12.5 -164.5q0 -151 8 -244t35.5 -145t77.5 -71t134 -19q78 0 128 13.5t78 56.5t38.5 125.5t10.5 219.5zM123 1065h134v-134h4q54 95 128.5 123t166.5 28q102 0 171 -27 t110.5 -90.5t58.5 -169t17 -263.5q0 -156 -18 -261.5t-60.5 -169t-115.5 -90.5t-185 -27t-173.5 35t-99.5 115h-4v-506h-134v1437z" />
<glyph unicode="q" horiz-adv-x="1004" d="M238 532q0 -137 10.5 -219.5t38.5 -125.5t77.5 -56.5t128.5 -13.5q83 0 133.5 19t77.5 71t35.5 145t8.5 244q0 98 -12.5 164.5t-43 108.5t-79.5 61t-120 19q-79 0 -128.5 -14t-77.5 -57t-38.5 -125.5t-10.5 -220.5zM748 134h-4q-38 -80 -100 -115t-174 -35 q-111 0 -184 27t-115.5 90.5t-60.5 169t-18 261.5q0 158 16.5 263.5t58.5 169t110 90.5t172 27q92 0 166.5 -28t128.5 -123h4v134h133v-1437h-133v506z" />
<glyph unicode="r" horiz-adv-x="773" d="M111 1065h134v-129h4q38 77 92 111.5t154 34.5q127 0 187 -62.5t60 -223.5v-86h-122q0 73 -5 122t-24 77.5t-53 40t-91 11.5q-202 4 -202 -219v-742h-134v1065z" />
<glyph unicode="s" d="M243 330q-2 -69 5 -113t32 -69t70 -34.5t120 -9.5q82 0 131 7.5t77 30.5t37.5 65t9.5 108q0 52 -6.5 82.5t-32.5 47.5t-80 23t-148 12q-101 7 -167 19.5t-104.5 43.5t-54 85.5t-15.5 142.5q0 84 11.5 143t49 97t108.5 54.5t190 16.5q118 0 189.5 -14.5t112.5 -49 t55.5 -91t14.5 -140.5h-134q0 61 -10 95.5t-36 52.5t-74 22t-124 4q-69 0 -113 -5t-67 -24t-31 -56t-8 -99q0 -56 6 -88.5t31 -50.5t73 -25t134 -11q119 -6 190 -18t109.5 -40t51.5 -80.5t13 -140.5q0 -93 -13 -158t-54.5 -106t-118.5 -58t-207 -17q-92 0 -158.5 9 t-110.5 44.5t-66.5 104.5t-22.5 188h135z" />
<glyph unicode="t" horiz-adv-x="695" d="M146 945h-110v120h110v247h133v-247h345v-120h-345v-713q0 -67 24.5 -97.5t91.5 -30.5q37 0 64.5 6.5t45 32.5t26 77t8.5 139h121q0 -127 -20 -202t-54 -114t-82.5 -49t-106.5 -10q-74 0 -123 11t-77 38t-39.5 68t-11.5 102v742z" />
<glyph unicode="u" d="M857 0h-134v138h-4q-51 -86 -115.5 -120t-179.5 -34q-91 0 -152 23t-96.5 64.5t-50 103t-14.5 138.5v752h134v-720q0 -46 7 -90t28 -77.5t60.5 -53.5t106.5 -20q61 0 112 14t87.5 46.5t56.5 87.5t20 141v672h134v-1065z" />
<glyph unicode="v" horiz-adv-x="814" d="M14 1065h139l252 -931h4l253 931h138l-298 -1065h-189z" />
<glyph unicode="w" horiz-adv-x="1315" d="M14 1065h132l211 -929h4l201 929h192l201 -931h4l211 931h132l-253 -1065h-194l-195 931h-4l-194 -931h-195z" />
<glyph unicode="x" horiz-adv-x="852" d="M349 554l-280 511h148l209 -390l209 390h148l-288 -511l318 -554h-157l-230 435l-229 -435h-157z" />
<glyph unicode="y" horiz-adv-x="814" d="M146 -259q63 0 103 8t66 36.5t43.5 78.5t36.5 136h-60l-312 1065h132l271 -931h4l228 931h134l-286 -1176q-36 -140 -102.5 -211t-194.5 -71q-17 0 -34.5 2t-28.5 6v126z" />
<glyph unicode="z" horiz-adv-x="814" d="M48 146l550 799h-496v120h642v-134l-550 -810h541v-121h-687v146z" />
<glyph unicode="{" horiz-adv-x="618" d="M493 1404h-88q-46 0 -67 -48t-21 -109v-240q0 -62 -19 -108t-45 -76.5t-52 -46.5t-38 -18v-4q12 -4 38 -19.5t52 -45t45 -75.5t19 -110v-239q0 -60 21 -108.5t67 -48.5h88v-108h-115q-87 0 -140.5 54t-53.5 149v242q0 113 -35.5 179t-118.5 66v133q83 0 118.5 65 t35.5 177v245q0 94 53.5 148.5t140.5 54.5h115v-109z" />
<glyph unicode="|" horiz-adv-x="464" d="M171 1529h122v-1545h-122v1545z" />
<glyph unicode="}" horiz-adv-x="618" d="M125 108h88q46 0 67 48.5t21 108.5v241q0 62 19 108t45 76.5t52 45t38 18.5v4q-12 5 -38 20.5t-52 45t-45 75.5t-19 110v238q0 61 -21 109t-67 48h-88v109h116q87 0 140.5 -54.5t53.5 -148.5v-242q0 -113 35.5 -179t119.5 -66v-133q-84 0 -119.5 -65t-35.5 -178v-244 q0 -95 -53.5 -149t-140.5 -54h-116v108z" />
<glyph unicode="~" horiz-adv-x="1253" d="M144 480q17 34 41 66t55 57t72 41t93 16q59 0 119 -22t122 -48q60 -28 112.5 -50t92.5 -22q30 0 56 14t48 34t41 48t38 54l75 -92q-23 -33 -49 -65.5t-56.5 -57.5t-68.5 -40.5t-87 -15.5q-67 0 -117 22t-98 49q-49 27 -104 49t-134 22q-36 0 -62 -13.5t-48 -34.5 t-37.5 -48t-28.5 -54z" />
<glyph unicode="&#xa3;" horiz-adv-x="1161" d="M92 744h161q-6 129 -11.5 246t-5.5 210q0 85 19.5 147.5t66.5 103t124.5 59.5t195.5 19q104 0 176.5 -17t120 -56t69.5 -104t22 -160v-108h-121q0 90 -9 148.5t-38 92t-84 46t-148 12.5q-82 0 -131.5 -11.5t-75.5 -33.5t-33.5 -57.5t-7.5 -80.5q0 -116 5.5 -232.5 t9.5 -223.5h445v-134h-439q4 -73 6 -131.5t2 -109.5q0 -78 -14.5 -136t-59.5 -83v-4h707v-146h-952v146q48 4 81.5 15.5t53.5 36.5t29 65t9 100q0 117 -6 247h-167v134z" />
<glyph unicode="&#xa4;" horiz-adv-x="950" />
<glyph unicode="&#xa5;" horiz-adv-x="1184" />
<glyph unicode="&#xa6;" horiz-adv-x="950" />
<glyph unicode="&#xa7;" horiz-adv-x="1084" d="M184 317h133q0 -64 4 -104t25 -60.5t66.5 -28t126.5 -7.5q125 0 169 30t44 114q0 28 -10.5 50t-42 43.5t-90.5 49.5t-158 70q-96 42 -158.5 80t-100 77t-52.5 85.5t-15 106.5q0 76 39 143.5t99 109.5q-42 52 -53 92t-11 98q0 86 26 137t71 79.5t106.5 37.5t129.5 9 q96 0 160 -16t102.5 -48t54.5 -84t16 -125v-48h-134q0 60 -9.5 96.5t-33.5 57.5t-63 27t-97 6q-39 0 -74.5 -3t-63 -16.5t-42.5 -40.5t-15 -75q0 -30 8 -54t36 -49t81.5 -54t145.5 -67q77 -31 142 -65.5t112 -76t74 -94t27 -121.5q0 -49 -11.5 -84t-31 -64t-45 -55.5 t-52.5 -53.5q40 -31 53 -82t13 -91q0 -82 -24 -133.5t-67.5 -80.5t-104.5 -40t-135 -11q-105 0 -176 12t-114 42.5t-61.5 81.5t-18.5 131v66zM735 497q48 46 69 79.5t21 87.5q0 34 -7 60t-29 50t-59.5 48t-101.5 53l-275 130q-38 -19 -66 -60.5t-28 -102.5q0 -63 27 -104.5 t107 -79.5z" />
<glyph unicode="&#xa9;" horiz-adv-x="1670" d="M1245 598q-31 -153 -133.5 -244t-250.5 -91q-107 0 -192 38t-144 104.5t-91.5 156.5t-32.5 194q0 107 30.5 196.5t88.5 155.5t143 102.5t192 36.5q152 0 260.5 -84.5t129.5 -243.5h-119q-19 90 -88 154.5t-181 64.5q-82 0 -143.5 -30t-104.5 -82.5t-65 -121.5t-22 -146 q0 -75 23 -143.5t67 -123t106.5 -87t142.5 -32.5q54 0 100 17.5t79.5 49t55.5 72.5t30 87h119zM62 756q0 159 61 300t166.5 246.5t245.5 166t300 60.5q159 0 300 -60.5t246.5 -166t166.5 -246.5t61 -300q0 -160 -61 -300.5t-166.5 -246t-246.5 -165.5t-300 -60 q-160 0 -300 60t-245.5 165.5t-166.5 246t-61 300.5zM171 756q0 -138 52 -259t142 -210.5t211.5 -142t258.5 -52.5q138 0 259.5 52.5t211 142t141.5 210.5t52 259q0 139 -52 259.5t-141.5 210.5t-211 142.5t-259.5 52.5q-137 0 -258.5 -52.5t-211.5 -142.5t-142 -210.5 t-52 -259.5z" />
<glyph unicode="&#xad;" horiz-adv-x="618" d="M80 614h459v-121h-459v121z" />
<glyph unicode="&#xae;" horiz-adv-x="1670" d="M62 756q0 159 61 300t166.5 246.5t245.5 166t300 60.5q159 0 300 -60.5t246.5 -166t166.5 -246.5t61 -300q0 -160 -61 -300.5t-166.5 -246t-246.5 -165.5t-300 -60q-160 0 -300 60t-245.5 165.5t-166.5 246t-61 300.5zM171 756q0 -138 52 -259t142 -210.5t211.5 -142 t258.5 -52.5q138 0 259.5 52.5t211 142t141.5 210.5t52 259q0 139 -52 259.5t-141.5 210.5t-211 142.5t-259.5 52.5q-137 0 -258.5 -52.5t-211.5 -142.5t-142 -210.5t-52 -259.5zM552 1212h339q303 0 303 -255q0 -62 -18 -108.5t-50 -76.5t-71.5 -48t-83.5 -26l257 -397 h-136l-246 395h-186v-395h-108v911zM660 804h169q48 0 94 3.5t82.5 19t58.5 47t22 87.5q0 42 -17.5 70t-47 43.5t-68 22t-78.5 6.5h-215v-299z" />
<glyph unicode="&#xb6;" horiz-adv-x="1253" d="M539 833q-86 0 -155 25t-118 70t-76 104.5t-27 129.5q0 179 101 265t282 86h453v-1513h-122v1404h-217v-1404h-121v833z" />
<glyph unicode="&#xb7;" horiz-adv-x="580" d="M182 668q0 46 31.5 77.5t77.5 31.5t77 -31.5t31 -77.5t-31 -77t-77 -31t-77.5 31t-31.5 77z" />
<glyph unicode="&#xb9;" horiz-adv-x="753" d="M367 1417h-4l-186 -229l-79 57l225 268h179v-901h-135v805z" />
<glyph unicode="&#xba;" horiz-adv-x="673" />
<glyph unicode="&#xbb;" horiz-adv-x="885" />
<glyph unicode="&#xbc;" horiz-adv-x="1742" d="M1475 817h-4l-375 -518h379v518zM988 328l413 573h195v-602h100v-109h-100v-190h-121v190h-487v138zM1258 1529h121l-926 -1545h-120zM315 1417h-4l-186 -229l-79 57l225 268h178v-901h-134v805z" />
<glyph unicode="&#xbd;" horiz-adv-x="1742" d="M1190 1529h122l-925 -1545h-122zM315 1417h-4l-186 -229l-79 57l225 268h178v-901h-134v805zM1063 169q0 78 13.5 127t48.5 80t91 47t144 28q67 9 108 18t61.5 29t27 56t6.5 96q0 46 -6.5 77t-26 49t-56.5 25.5t-99 7.5q-63 0 -100 -6.5t-57.5 -23t-27 -47t-6.5 -80.5 v-40h-108v58q0 57 6 103t36.5 78t93 49t175.5 17q84 0 142 -10t96 -43t54.5 -91.5t16.5 -154.5q0 -60 -7 -109t-33.5 -83.5t-79.5 -55.5t-147 -27q-80 -4 -126.5 -16t-69.5 -31t-29.5 -48t-6.5 -68v-72h495v-108h-629v169z" />
<glyph unicode="&#xbe;" horiz-adv-x="1742" d="M297 1120q83 0 134 4t78.5 20t36 49t8.5 94q0 37 -3 63.5t-21 42t-54.5 22t-103.5 6.5q-47 0 -81 -3.5t-57 -16t-34.5 -38.5t-11.5 -72v-48h-121v77q0 73 20.5 115t59.5 63t94.5 26t123.5 5q111 0 176 -13.5t97 -43t40.5 -76.5t8.5 -114q0 -88 -23.5 -139t-93.5 -69v-4 q28 -7 51 -17.5t38.5 -31t24 -57.5t8.5 -95q0 -80 -7.5 -132t-39 -83.5t-95 -44.5t-174.5 -13q-101 0 -165.5 10t-101 36t-50 73.5t-13.5 121.5v64h121q0 -66 3 -104.5t22 -59.5t59 -27t112 -6q69 0 108 5t58 23t24 51.5t5 87.5q0 56 -8.5 87.5t-35.5 45t-78 17t-139 3.5v96 zM1302 1529h121l-926 -1545h-121zM1475 817h-4l-375 -518h379v518zM988 328l413 573h195v-602h100v-109h-100v-190h-121v190h-487v138z" />
<glyph unicode="&#xc0;" horiz-adv-x="1199" d="M610 1366h-20l-271 -900h560zM925 319h-652l-98 -319h-152l474 1513h205l474 -1513h-152zM337 1872h162l232 -291h-107z" />
<glyph unicode="&#xc1;" horiz-adv-x="1199" d="M610 1366h-20l-271 -900h560zM925 319h-652l-98 -319h-152l474 1513h205l474 -1513h-152zM700 1872h163l-289 -291h-106z" />
<glyph unicode="&#xc2;" horiz-adv-x="1199" d="M610 1366h-20l-271 -900h560zM925 319h-652l-98 -319h-152l474 1513h205l474 -1513h-152zM528 1872h142l237 -291h-136l-171 207l-174 -207h-133z" />
<glyph unicode="&#xc3;" horiz-adv-x="1199" d="M610 1366h-20l-271 -900h560zM925 319h-652l-98 -319h-152l474 1513h205l474 -1513h-152zM925 1820q-4 -36 -17 -72.5t-37.5 -65t-57 -46t-71.5 -17.5q-38 0 -78 14.5t-78 33.5q-36 19 -72 32.5t-65 13.5q-44 0 -65 -32.5t-27 -74.5h-84q2 38 17 73.5t39 65t56.5 47 t72.5 17.5q39 0 77.5 -13.5t76.5 -31.5q38 -20 73.5 -34.5t64.5 -14.5q44 0 64.5 32.5t27.5 72.5h83z" />
<glyph unicode="&#xc8;" horiz-adv-x="1044" d="M128 1513h810v-147h-665v-509h632v-147h-632v-564h660v-146h-805v1513zM259 1872h163l232 -291h-106z" />
<glyph unicode="&#xc9;" horiz-adv-x="1044" d="M128 1513h810v-147h-665v-509h632v-147h-632v-564h660v-146h-805v1513zM622 1872h163l-288 -291h-106z" />
<glyph unicode="&#xca;" horiz-adv-x="1044" d="M128 1513h810v-147h-665v-509h632v-147h-632v-564h660v-146h-805v1513zM451 1872h143l235 -291h-135l-172 207l-173 -207h-134z" />
<glyph unicode="&#xcc;" horiz-adv-x="464" d="M159 1513h146v-1513h-146v1513zM-32 1872h164l231 -291h-106z" />
<glyph unicode="&#xcd;" horiz-adv-x="464" d="M159 1513h146v-1513h-146v1513zM333 1872h162l-288 -291h-107z" />
<glyph unicode="&#xd2;" horiz-adv-x="1278" d="M1026 1003q0 125 -12.5 200t-52.5 115t-117 52.5t-204 12.5q-130 0 -206.5 -12.5t-116.5 -52.5t-52 -115t-12 -200v-493q0 -125 12 -200.5t52 -115t116.5 -52t206.5 -12.5q127 0 204 12.5t117 52t52.5 115t12.5 200.5v493zM106 1011q0 165 27.5 267.5t90.5 157.5t165 74 t251 19q147 0 249.5 -19t165.5 -74t90 -157.5t27 -267.5v-509q0 -167 -27 -268.5t-90 -157.5t-165.5 -74t-249.5 -18q-149 0 -251 18t-165 74t-90.5 157.5t-27.5 268.5v509zM376 1872h163l232 -291h-107z" />
<glyph unicode="&#xd3;" horiz-adv-x="1278" d="M1026 1003q0 125 -12.5 200t-52.5 115t-117 52.5t-204 12.5q-130 0 -206.5 -12.5t-116.5 -52.5t-52 -115t-12 -200v-493q0 -125 12 -200.5t52 -115t116.5 -52t206.5 -12.5q127 0 204 12.5t117 52t52.5 115t12.5 200.5v493zM106 1011q0 165 27.5 267.5t90.5 157.5t165 74 t251 19q147 0 249.5 -19t165.5 -74t90 -157.5t27 -267.5v-509q0 -167 -27 -268.5t-90 -157.5t-165.5 -74t-249.5 -18q-149 0 -251 18t-165 74t-90.5 157.5t-27.5 268.5v509zM740 1872h163l-289 -291h-106z" />
<glyph unicode="&#xd4;" horiz-adv-x="1278" d="M1026 1003q0 125 -12.5 200t-52.5 115t-117 52.5t-204 12.5q-130 0 -206.5 -12.5t-116.5 -52.5t-52 -115t-12 -200v-493q0 -125 12 -200.5t52 -115t116.5 -52t206.5 -12.5q127 0 204 12.5t117 52t52.5 115t12.5 200.5v493zM106 1011q0 165 27.5 267.5t90.5 157.5t165 74 t251 19q147 0 249.5 -19t165.5 -74t90 -157.5t27 -267.5v-509q0 -167 -27 -268.5t-90 -157.5t-165.5 -74t-249.5 -18q-149 0 -251 18t-165 74t-90.5 157.5t-27.5 268.5v509zM568 1872h142l237 -291h-136l-171 207l-174 -207h-133z" />
<glyph unicode="&#xd5;" horiz-adv-x="1278" d="M1026 1003q0 125 -12.5 200t-52.5 115t-117 52.5t-204 12.5q-130 0 -206.5 -12.5t-116.5 -52.5t-52 -115t-12 -200v-493q0 -125 12 -200.5t52 -115t116.5 -52t206.5 -12.5q127 0 204 12.5t117 52t52.5 115t12.5 200.5v493zM106 1011q0 165 27.5 267.5t90.5 157.5t165 74 t251 19q147 0 249.5 -19t165.5 -74t90 -157.5t27 -267.5v-509q0 -167 -27 -268.5t-90 -157.5t-165.5 -74t-249.5 -18q-149 0 -251 18t-165 74t-90.5 157.5t-27.5 268.5v509zM965 1820q-4 -36 -18 -72.5t-38 -65t-56 -46t-72 -17.5q-37 0 -77 14.5t-78 33.5q-36 19 -72 32.5 t-65 13.5q-44 0 -65 -32.5t-27 -74.5h-84q2 38 17 73.5t39 65t56.5 47t71.5 17.5q40 0 78.5 -13.5t76.5 -31.5q38 -20 73 -34.5t64 -14.5q44 0 65 32.5t27 72.5h84z" />
<glyph unicode="&#xd9;" horiz-adv-x="1241" d="M128 1513h145v-1170q0 -61 17 -101.5t56 -66t105.5 -35.5t166.5 -10q103 0 170 10t106 35.5t56 66t17 101.5v1170h147v-1126q0 -122 -27.5 -200.5t-86 -123.5t-153.5 -62t-229 -17q-131 0 -225 17t-152.5 62t-85.5 123.5t-27 200.5v1126zM357 1872h163l232 -291h-106z " />
<glyph unicode="&#xda;" horiz-adv-x="1241" d="M128 1513h145v-1170q0 -61 17 -101.5t56 -66t105.5 -35.5t166.5 -10q103 0 170 10t106 35.5t56 66t17 101.5v1170h147v-1126q0 -122 -27.5 -200.5t-86 -123.5t-153.5 -62t-229 -17q-131 0 -225 17t-152.5 62t-85.5 123.5t-27 200.5v1126zM721 1872h162l-287 -291h-107z " />
<glyph unicode="&#xdd;" horiz-adv-x="1086" d="M470 628l-472 885h152l393 -736l393 736h152l-472 -885v-628h-146v628zM644 1872h163l-289 -291h-107z" />
<glyph unicode="&#xe0;" d="M735 92q-29 -32 -59 -53t-67 -33t-82 -17t-103 -5q-103 0 -167.5 23t-101 66.5t-50 105.5t-13.5 138q0 78 11.5 140.5t48 105.5t101 66t171.5 23q75 0 124.5 -5t80.5 -16t51 -30t39 -45h4v194q0 59 -6.5 99t-29.5 65.5t-70 36t-130 10.5q-82 0 -128 -10.5t-67 -33 t-25 -59.5t-4 -87h-133v56q0 48 10 94t46.5 81.5t108.5 57.5t198 22q111 0 182 -17.5t111.5 -55.5t55.5 -95t15 -135v-779h-122v92zM225 323q0 -60 15 -100.5t46 -63.5t79.5 -32.5t114.5 -9.5q68 0 116 9.5t79 32.5t45.5 63.5t14.5 100.5q0 122 -60.5 164.5t-194.5 42.5 q-133 0 -194 -42.5t-61 -164.5zM221 1477h164l231 -291h-106z" />
<glyph unicode="&#xe1;" d="M735 92q-29 -32 -59 -53t-67 -33t-82 -17t-103 -5q-103 0 -167.5 23t-101 66.5t-50 105.5t-13.5 138q0 78 11.5 140.5t48 105.5t101 66t171.5 23q75 0 124.5 -5t80.5 -16t51 -30t39 -45h4v194q0 59 -6.5 99t-29.5 65.5t-70 36t-130 10.5q-82 0 -128 -10.5t-67 -33 t-25 -59.5t-4 -87h-133v56q0 48 10 94t46.5 81.5t108.5 57.5t198 22q111 0 182 -17.5t111.5 -55.5t55.5 -95t15 -135v-779h-122v92zM225 323q0 -60 15 -100.5t46 -63.5t79.5 -32.5t114.5 -9.5q68 0 116 9.5t79 32.5t45.5 63.5t14.5 100.5q0 122 -60.5 164.5t-194.5 42.5 q-133 0 -194 -42.5t-61 -164.5zM584 1477h164l-288 -291h-107z" />
<glyph unicode="&#xe2;" d="M735 92q-29 -32 -59 -53t-67 -33t-82 -17t-103 -5q-103 0 -167.5 23t-101 66.5t-50 105.5t-13.5 138q0 78 11.5 140.5t48 105.5t101 66t171.5 23q75 0 124.5 -5t80.5 -16t51 -30t39 -45h4v194q0 59 -6.5 99t-29.5 65.5t-70 36t-130 10.5q-82 0 -128 -10.5t-67 -33 t-25 -59.5t-4 -87h-133v56q0 48 10 94t46.5 81.5t108.5 57.5t198 22q111 0 182 -17.5t111.5 -55.5t55.5 -95t15 -135v-779h-122v92zM225 323q0 -60 15 -100.5t46 -63.5t79.5 -32.5t114.5 -9.5q68 0 116 9.5t79 32.5t45.5 63.5t14.5 100.5q0 122 -60.5 164.5t-194.5 42.5 q-133 0 -194 -42.5t-61 -164.5zM414 1477h142l236 -291h-136l-172 207l-173 -207h-134z" />
<glyph unicode="&#xe3;" d="M735 92q-29 -32 -59 -53t-67 -33t-82 -17t-103 -5q-103 0 -167.5 23t-101 66.5t-50 105.5t-13.5 138q0 78 11.5 140.5t48 105.5t101 66t171.5 23q75 0 124.5 -5t80.5 -16t51 -30t39 -45h4v194q0 59 -6.5 99t-29.5 65.5t-70 36t-130 10.5q-82 0 -128 -10.5t-67 -33 t-25 -59.5t-4 -87h-133v56q0 48 10 94t46.5 81.5t108.5 57.5t198 22q111 0 182 -17.5t111.5 -55.5t55.5 -95t15 -135v-779h-122v92zM225 323q0 -60 15 -100.5t46 -63.5t79.5 -32.5t114.5 -9.5q68 0 116 9.5t79 32.5t45.5 63.5t14.5 100.5q0 122 -60.5 164.5t-194.5 42.5 q-133 0 -194 -42.5t-61 -164.5zM811 1425q-4 -36 -18 -72.5t-38 -64.5t-56.5 -46t-72.5 -18q-36 0 -76 15t-78 33q-37 19 -73 32.5t-64 13.5q-44 0 -65 -32t-27 -74h-84q2 38 16.5 73t38.5 64.5t56.5 47t72.5 17.5q39 0 78 -13.5t76 -32.5t73 -33.5t65 -14.5q44 0 65 32.5 t27 72.5h84z" />
<glyph unicode="&#xe8;" d="M723 635q0 84 -4.5 145.5t-27.5 102t-72 59.5t-139 19q-89 0 -138 -19t-72 -59.5t-27.5 -102t-4.5 -145.5h485zM238 502v-99q0 -88 9.5 -145t33.5 -91.5t68 -48.5t113 -14q81 0 131.5 4.5t79.5 24.5t39.5 62.5t10.5 121.5h134v-40q0 -78 -14 -134.5t-53.5 -92.5 t-112.5 -51t-193 -15q-131 0 -209 25t-119 87.5t-52.5 167.5t-11.5 268q0 166 15.5 272.5t59.5 168t120 85.5t197 24q120 0 193 -25t112.5 -76.5t53.5 -130.5t14 -188v-160h-619zM221 1477h164l231 -291h-106z" />
<glyph unicode="&#xe9;" d="M723 635q0 84 -4.5 145.5t-27.5 102t-72 59.5t-139 19q-89 0 -138 -19t-72 -59.5t-27.5 -102t-4.5 -145.5h485zM238 502v-99q0 -88 9.5 -145t33.5 -91.5t68 -48.5t113 -14q81 0 131.5 4.5t79.5 24.5t39.5 62.5t10.5 121.5h134v-40q0 -78 -14 -134.5t-53.5 -92.5 t-112.5 -51t-193 -15q-131 0 -209 25t-119 87.5t-52.5 167.5t-11.5 268q0 166 15.5 272.5t59.5 168t120 85.5t197 24q120 0 193 -25t112.5 -76.5t53.5 -130.5t14 -188v-160h-619zM584 1477h164l-288 -291h-107z" />
<glyph unicode="&#xea;" d="M723 635q0 84 -4.5 145.5t-27.5 102t-72 59.5t-139 19q-89 0 -138 -19t-72 -59.5t-27.5 -102t-4.5 -145.5h485zM238 502v-99q0 -88 9.5 -145t33.5 -91.5t68 -48.5t113 -14q81 0 131.5 4.5t79.5 24.5t39.5 62.5t10.5 121.5h134v-40q0 -78 -14 -134.5t-53.5 -92.5 t-112.5 -51t-193 -15q-131 0 -209 25t-119 87.5t-52.5 167.5t-11.5 268q0 166 15.5 272.5t59.5 168t120 85.5t197 24q120 0 193 -25t112.5 -76.5t53.5 -130.5t14 -188v-160h-619zM414 1477h142l236 -291h-136l-172 207l-173 -207h-134z" />
<glyph unicode="&#xec;" horiz-adv-x="426" d="M146 1065h133v-1065h-133v1065zM-50 1477h163l232 -291h-107z" />
<glyph unicode="&#xed;" horiz-adv-x="426" d="M146 1065h133v-1065h-133v1065zM313 1477h163l-288 -291h-106z" />
<glyph unicode="&#xf2;" horiz-adv-x="969" d="M238 532q0 -147 8.5 -233t34.5 -128.5t75 -54.5t128 -12q80 0 129 12t75 54.5t34.5 128.5t8.5 233q0 149 -8.5 235t-34.5 128.5t-75 54t-129 11.5q-79 0 -128 -11.5t-75 -54t-34.5 -128.5t-8.5 -235zM92 532q0 160 11.5 265.5t52.5 169t119 89.5t209 26q132 0 209.5 -26 t118.5 -89.5t53 -169t12 -265.5q0 -165 -12 -271t-53 -167.5t-119.5 -85.5t-208.5 -24q-129 0 -207 24t-119 85.5t-53.5 167.5t-12.5 271zM221 1477h164l231 -291h-106z" />
<glyph unicode="&#xf3;" horiz-adv-x="969" d="M238 532q0 -147 8.5 -233t34.5 -128.5t75 -54.5t128 -12q80 0 129 12t75 54.5t34.5 128.5t8.5 233q0 149 -8.5 235t-34.5 128.5t-75 54t-129 11.5q-79 0 -128 -11.5t-75 -54t-34.5 -128.5t-8.5 -235zM92 532q0 160 11.5 265.5t52.5 169t119 89.5t209 26q132 0 209.5 -26 t118.5 -89.5t53 -169t12 -265.5q0 -165 -12 -271t-53 -167.5t-119.5 -85.5t-208.5 -24q-129 0 -207 24t-119 85.5t-53.5 167.5t-12.5 271zM584 1477h164l-288 -291h-107z" />
<glyph unicode="&#xf4;" horiz-adv-x="969" d="M238 532q0 -147 8.5 -233t34.5 -128.5t75 -54.5t128 -12q80 0 129 12t75 54.5t34.5 128.5t8.5 233q0 149 -8.5 235t-34.5 128.5t-75 54t-129 11.5q-79 0 -128 -11.5t-75 -54t-34.5 -128.5t-8.5 -235zM92 532q0 160 11.5 265.5t52.5 169t119 89.5t209 26q132 0 209.5 -26 t118.5 -89.5t53 -169t12 -265.5q0 -165 -12 -271t-53 -167.5t-119.5 -85.5t-208.5 -24q-129 0 -207 24t-119 85.5t-53.5 167.5t-12.5 271zM414 1477h142l236 -291h-136l-172 207l-173 -207h-134z" />
<glyph unicode="&#xf5;" horiz-adv-x="969" d="M238 532q0 -147 8.5 -233t34.5 -128.5t75 -54.5t128 -12q80 0 129 12t75 54.5t34.5 128.5t8.5 233q0 149 -8.5 235t-34.5 128.5t-75 54t-129 11.5q-79 0 -128 -11.5t-75 -54t-34.5 -128.5t-8.5 -235zM92 532q0 160 11.5 265.5t52.5 169t119 89.5t209 26q132 0 209.5 -26 t118.5 -89.5t53 -169t12 -265.5q0 -165 -12 -271t-53 -167.5t-119.5 -85.5t-208.5 -24q-129 0 -207 24t-119 85.5t-53.5 167.5t-12.5 271zM811 1425q-4 -36 -18 -72.5t-38 -64.5t-56.5 -46t-72.5 -18q-36 0 -76 15t-78 33q-37 19 -73 32.5t-64 13.5q-44 0 -65 -32t-27 -74 h-84q2 38 16.5 73t38.5 64.5t56.5 47t72.5 17.5q39 0 78 -13.5t76 -32.5t73 -33.5t65 -14.5q44 0 65 32.5t27 72.5h84z" />
<glyph unicode="&#xf9;" d="M857 0h-134v138h-4q-51 -86 -115.5 -120t-179.5 -34q-91 0 -152 23t-96.5 64.5t-50 103t-14.5 138.5v752h134v-720q0 -46 7 -90t28 -77.5t60.5 -53.5t106.5 -20q61 0 112 14t87.5 46.5t56.5 87.5t20 141v672h134v-1065zM221 1477h164l231 -291h-106z" />
<glyph unicode="&#xfa;" d="M857 0h-134v138h-4q-51 -86 -115.5 -120t-179.5 -34q-91 0 -152 23t-96.5 64.5t-50 103t-14.5 138.5v752h134v-720q0 -46 7 -90t28 -77.5t60.5 -53.5t106.5 -20q61 0 112 14t87.5 46.5t56.5 87.5t20 141v672h134v-1065zM584 1477h164l-288 -291h-107z" />
<glyph unicode="&#xfd;" horiz-adv-x="814" d="M146 -259q63 0 103 8t66 36.5t43.5 78.5t36.5 136h-60l-312 1065h132l271 -931h4l228 931h134l-286 -1176q-36 -140 -102.5 -211t-194.5 -71q-17 0 -34.5 2t-28.5 6v126zM508 1477h162l-288 -291h-107z" />
<glyph unicode="&#x102;" horiz-adv-x="1199" d="M610 1366h-20l-271 -900h560zM925 319h-652l-98 -319h-152l474 1513h205l474 -1513h-152zM380 1932q11 -86 73.5 -127t144.5 -41q87 0 144.5 40t76.5 128h84q-16 -132 -100 -198.5t-211 -66.5q-132 0 -205.5 70t-89.5 195h83z" />
<glyph unicode="&#x103;" d="M735 92q-29 -32 -59 -53t-67 -33t-82 -17t-103 -5q-103 0 -167.5 23t-101 66.5t-50 105.5t-13.5 138q0 78 11.5 140.5t48 105.5t101 66t171.5 23q75 0 124.5 -5t80.5 -16t51 -30t39 -45h4v194q0 59 -6.5 99t-29.5 65.5t-70 36t-130 10.5q-82 0 -128 -10.5t-67 -33 t-25 -59.5t-4 -87h-133v56q0 48 10 94t46.5 81.5t108.5 57.5t198 22q111 0 182 -17.5t111.5 -55.5t55.5 -95t15 -135v-779h-122v92zM225 323q0 -60 15 -100.5t46 -63.5t79.5 -32.5t114.5 -9.5q68 0 116 9.5t79 32.5t45.5 63.5t14.5 100.5q0 122 -60.5 164.5t-194.5 42.5 q-133 0 -194 -42.5t-61 -164.5zM263 1463q10 -86 73 -128t144 -42q88 0 145.5 41t76.5 129h83q-14 -132 -98.5 -199t-212.5 -67q-131 0 -204 70t-90 196h83z" />
<glyph unicode="&#x110;" horiz-adv-x="1276" d="M708 1513q165 0 259 -47t139 -136t55.5 -218.5t10.5 -294.5q0 -207 -11.5 -360.5t-58.5 -255t-145 -151.5t-270 -50h-557v825h-124v140h124v548h578zM733 146q90 0 147.5 28.5t90 97.5t44 186.5t11.5 297.5q0 186 -11.5 305t-43 187t-89 93t-149.5 25h-458v-401h345v-140 h-345v-679h458z" />
<glyph unicode="&#x111;" horiz-adv-x="1004" d="M984 1190h-103v-1190h-133v134h-4q-38 -80 -100 -115t-174 -35q-111 0 -184 27t-115.5 90.5t-60.5 169t-18 261.5q0 158 16.5 263.5t58.5 169t110 90.5t172 27q92 0 166.5 -28t128.5 -123h4v259h-266v141h266v182h133v-182h103v-141zM493 117q83 0 133.5 19t77.5 71 t35.5 145t8.5 244q0 98 -12.5 164.5t-43 108.5t-79.5 61t-120 19q-79 0 -128.5 -14t-77.5 -57t-38.5 -125.5t-10.5 -220.5q0 -137 10.5 -219.5t38.5 -125.5t77.5 -56.5t128.5 -13.5z" />
<glyph unicode="&#x128;" horiz-adv-x="464" d="M159 1513h146v-1513h-146v1513zM558 1895q-4 -36 -18 -72.5t-38 -64.5t-56 -46t-72 -18q-37 0 -77 15t-78 33q-37 19 -72.5 32.5t-64.5 13.5q-44 0 -65 -32t-27 -74h-84q2 38 17 73t39 64t56 47t72 18t78.5 -13.5t76.5 -32.5q37 -18 72.5 -33t64.5 -15q44 0 65 32.5 t27 72.5h84z" />
<glyph unicode="&#x129;" horiz-adv-x="426" d="M146 1065h133v-1065h-133v1065zM539 1425q-5 -36 -18 -72.5t-37 -64.5t-56.5 -46t-72.5 -18q-38 0 -77.5 15t-76.5 33q-38 19 -73.5 32.5t-65.5 13.5q-44 0 -64.5 -32t-27.5 -74h-83q2 38 16.5 73t38.5 64.5t57 47t72 17.5q40 0 78.5 -13.5t75.5 -32.5q38 -19 74 -33.5 t64 -14.5q44 0 65 32.5t27 72.5h84z" />
<glyph unicode="&#x168;" horiz-adv-x="1241" d="M128 1513h145v-1170q0 -61 17 -101.5t56 -66t105.5 -35.5t166.5 -10q103 0 170 10t106 35.5t56 66t17 101.5v1170h147v-1126q0 -122 -27.5 -200.5t-86 -123.5t-153.5 -62t-229 -17q-131 0 -225 17t-152.5 62t-85.5 123.5t-27 200.5v1126zM947 1895q-5 -36 -18.5 -72.5 t-37.5 -64.5t-56.5 -46t-71.5 -18q-38 0 -77.5 15t-77.5 33q-38 19 -73.5 32.5t-64.5 13.5q-44 0 -64.5 -32t-27.5 -74h-83q2 38 16 73t38.5 64t57 47t71.5 18q40 0 79 -13.5t76 -32.5q37 -18 73 -33t65 -15q44 0 65 32.5t27 72.5h84z" />
<glyph unicode="&#x169;" d="M857 0h-134v138h-4q-51 -86 -115.5 -120t-179.5 -34q-91 0 -152 23t-96.5 64.5t-50 103t-14.5 138.5v752h134v-720q0 -46 7 -90t28 -77.5t60.5 -53.5t106.5 -20q61 0 112 14t87.5 46.5t56.5 87.5t20 141v672h134v-1065zM809 1425q-5 -36 -18.5 -72.5t-37.5 -64.5 t-56.5 -46t-72.5 -18q-38 0 -77 15t-77 33q-38 19 -73.5 32.5t-63.5 13.5q-44 0 -65 -32t-27 -74h-84q2 38 16.5 73t38.5 64.5t56.5 47t72.5 17.5q39 0 78 -13.5t76 -32.5t73 -33.5t65 -14.5q44 0 65 32.5t27 72.5h84z" />
<glyph unicode="&#x1a0;" horiz-adv-x="1359" d="M1333 1308q0 -40 -15 -70q-12 -26 -41.5 -47t-84.5 -21h-30q4 -36 6 -74.5t2 -82.5v-509q0 -167 -27 -268.5t-90 -157t-165.5 -74t-249.5 -18.5q-149 0 -251 18.5t-165 74t-90.5 157t-27.5 268.5v509q0 165 27.5 267.5t90.5 157.5t165 74t251 19q112 0 197.5 -10 t147 -38.5t101.5 -77.5t60 -129h40q10 0 20 4q6 5 12 13.5t6 26.5v191h111v-203zM1024 1005q0 125 -12.5 200t-52.5 115t-117 52.5t-204 12.5q-130 0 -206.5 -12.5t-116.5 -52.5t-52 -115t-12 -200v-493q0 -125 12 -200.5t52 -115t116.5 -52t206.5 -12.5q127 0 204 12.5 t117 52t52.5 115t12.5 200.5v493z" />
<glyph unicode="&#x1a1;" horiz-adv-x="1044" d="M1024 863q0 -40 -15 -69q-12 -27 -41.5 -48t-84.5 -21h-10q4 -42 4 -87.5v-100.5q0 -165 -12 -271.5t-53 -168t-119.5 -85.5t-208.5 -24q-129 0 -207 24t-119 85.5t-53.5 168t-12.5 271.5q0 159 11.5 264.5t52.5 169t119 89.5t209 26q94 0 160 -13.5t110 -42.5t69 -78 t38 -121h14q10 0 20 4q6 4 12 13t6 27v190h111v-202zM484 108q80 0 129 12t75 54.5t34.5 128.5t8.5 234t-8.5 234t-34.5 128.5t-75 54t-129 11.5q-79 0 -128 -11.5t-75 -54t-34.5 -128.5t-8.5 -234t8.5 -234t34.5 -128.5t75 -54.5t128 -12z" />
<glyph unicode="&#x1af;" horiz-adv-x="1317" d="M1295 1308q0 -40 -15 -70q-12 -26 -41 -47t-83 -21h-44v-785q0 -122 -27.5 -200.5t-86 -123.5t-153.5 -62t-229 -17q-132 0 -225.5 17t-152 62t-86 123.5t-27.5 200.5v1126h146v-1170q0 -62 17 -102t55.5 -65.5t105.5 -35.5t167 -10q103 0 170 10t106 35.5t56 65.5 t17 102v1170h147v-235h34q12 0 20 4q6 5 12 13.5t6 26.5v191h111v-203z" />
<glyph unicode="&#x1b0;" horiz-adv-x="1056" d="M1038 863q0 -40 -14 -69q-13 -25 -42 -46t-83 -21h-42v-727h-134v138h-4q-51 -86 -115.5 -120t-179.5 -34q-91 0 -152 23t-96.5 64.5t-50 103t-14.5 138.5v752h134v-720q0 -46 7 -90t28 -77.5t60.5 -53.5t106.5 -20q61 0 112 14t87.5 46.5t56.5 87.5t20 141v672h134v-234 h32q12 0 20 4q6 4 12 13t6 27v190h111v-202z" />
<glyph unicode="&#x1ea0;" horiz-adv-x="1199" d="M520 -219h157v-201h-157v201zM610 1366h-20l-271 -900h560zM925 319h-652l-98 -319h-152l474 1513h205l474 -1513h-152z" />
<glyph unicode="&#x1ea1;" d="M393 -219h157v-201h-157v201zM735 92q-29 -32 -59 -53t-67 -33t-82 -17t-103 -5q-103 0 -167.5 23t-101 66.5t-50 105.5t-13.5 138q0 78 11.5 140.5t48 105.5t101 66t171.5 23q75 0 124.5 -5t80.5 -16t51 -30t39 -45h4v194q0 59 -6.5 99t-29.5 65.5t-70 36t-130 10.5 q-82 0 -128 -10.5t-67 -33t-25 -59.5t-4 -87h-133v56q0 48 10 94t46.5 81.5t108.5 57.5t198 22q111 0 182 -17.5t111.5 -55.5t55.5 -95t15 -135v-779h-122v92zM225 323q0 -60 15 -100.5t46 -63.5t79.5 -32.5t114.5 -9.5q68 0 116 9.5t79 32.5t45.5 63.5t14.5 100.5 q0 122 -60.5 164.5t-194.5 42.5q-133 0 -194 -42.5t-61 -164.5z" />
<glyph unicode="&#x1ea2;" horiz-adv-x="1199" d="M539 1834h-102v34q0 52 11.5 82.5t34.5 45.5t57 19.5t82 4.5q94 0 142.5 -29.5t48.5 -122.5q0 -72 -16 -110t-87 -62q-25 -8 -36.5 -14.5t-16.5 -13.5t-5 -17.5v-27.5v-21h-106v21q0 71 30 107t90 48q28 10 33 24t5 66q0 35 -23 43.5t-59 8.5q-60 0 -71.5 -11.5 t-11.5 -40.5v-34zM610 1366h-20l-271 -900h560zM925 319h-652l-98 -319h-152l474 1513h205l474 -1513h-152z" />
<glyph unicode="&#x1ea3;" d="M447 1364h-102v33q0 52 11 83t34.5 46t57.5 19.5t82 4.5q94 0 142.5 -29.5t48.5 -123.5q0 -71 -15.5 -109t-87.5 -62q-24 -8 -36 -14t-17 -14t-5 -18v-27v-21h-107v21q0 71 30.5 106.5t90.5 48.5q28 10 33 23.5t5 65.5q0 36 -23 44t-59 8q-60 0 -71.5 -11t-11.5 -41v-33z M735 92q-29 -32 -59 -53t-67 -33t-82 -17t-103 -5q-103 0 -167.5 23t-101 66.5t-50 105.5t-13.5 138q0 78 11.5 140.5t48 105.5t101 66t171.5 23q75 0 124.5 -5t80.5 -16t51 -30t39 -45h4v194q0 59 -6.5 99t-29.5 65.5t-70 36t-130 10.5q-82 0 -128 -10.5t-67 -33t-25 -59.5 t-4 -87h-133v56q0 48 10 94t46.5 81.5t108.5 57.5t198 22q111 0 182 -17.5t111.5 -55.5t55.5 -95t15 -135v-779h-122v92zM225 323q0 -60 15 -100.5t46 -63.5t79.5 -32.5t114.5 -9.5q68 0 116 9.5t79 32.5t45.5 63.5t14.5 100.5q0 122 -60.5 164.5t-194.5 42.5 q-133 0 -194 -42.5t-61 -164.5z" />
<glyph unicode="&#x1ea4;" horiz-adv-x="1199" d="M610 1366h-20l-271 -900h560zM925 319h-652l-98 -319h-152l474 1513h205l474 -1513h-152zM528 1872h142l237 -291h-136l-171 207l-174 -207h-133zM1047 2045h163l-289 -291h-106z" />
<glyph unicode="&#x1ea5;" d="M735 92q-29 -32 -59 -53t-67 -33t-82 -17t-103 -5q-103 0 -167.5 23t-101 66.5t-50 105.5t-13.5 138q0 78 11.5 140.5t48 105.5t101 66t171.5 23q75 0 124.5 -5t80.5 -16t51 -30t39 -45h4v194q0 59 -6.5 99t-29.5 65.5t-70 36t-130 10.5q-82 0 -128 -10.5t-67 -33 t-25 -59.5t-4 -87h-133v56q0 48 10 94t46.5 81.5t108.5 57.5t198 22q111 0 182 -17.5t111.5 -55.5t55.5 -95t15 -135v-779h-122v92zM225 323q0 -60 15 -100.5t46 -63.5t79.5 -32.5t114.5 -9.5q68 0 116 9.5t79 32.5t45.5 63.5t14.5 100.5q0 122 -60.5 164.5t-194.5 42.5 q-133 0 -194 -42.5t-61 -164.5zM414 1477h142l236 -291h-136l-172 207l-173 -207h-134zM927 1648h163l-288 -290h-106z" />
<glyph unicode="&#x1ea6;" horiz-adv-x="1199" d="M610 1366h-20l-271 -900h560zM925 319h-652l-98 -319h-152l474 1513h205l474 -1513h-152zM528 1872h142l237 -291h-136l-171 207l-174 -207h-133zM633 2043h163l232 -291h-107z" />
<glyph unicode="&#x1ea7;" d="M735 92q-29 -32 -59 -53t-67 -33t-82 -17t-103 -5q-103 0 -167.5 23t-101 66.5t-50 105.5t-13.5 138q0 78 11.5 140.5t48 105.5t101 66t171.5 23q75 0 124.5 -5t80.5 -16t51 -30t39 -45h4v194q0 59 -6.5 99t-29.5 65.5t-70 36t-130 10.5q-82 0 -128 -10.5t-67 -33 t-25 -59.5t-4 -87h-133v56q0 48 10 94t46.5 81.5t108.5 57.5t198 22q111 0 182 -17.5t111.5 -55.5t55.5 -95t15 -135v-779h-122v92zM225 323q0 -60 15 -100.5t46 -63.5t79.5 -32.5t114.5 -9.5q68 0 116 9.5t79 32.5t45.5 63.5t14.5 100.5q0 122 -60.5 164.5t-194.5 42.5 q-133 0 -194 -42.5t-61 -164.5zM414 1477h142l236 -291h-136l-172 207l-173 -207h-134zM541 1648h163l232 -290h-107z" />
<glyph unicode="&#x1ea8;" horiz-adv-x="1199" d="M610 1366h-20l-271 -900h560zM925 319h-652l-98 -319h-152l474 1513h205l474 -1513h-152zM528 1872h142l237 -291h-136l-171 207l-174 -207h-133zM798 2007h-102v34q0 52 11.5 82t34.5 46t57 20t82 4q94 0 142.5 -29t48.5 -123q0 -71 -16 -110t-87 -61q-24 -8 -36 -15 t-17 -14t-5 -17v-28v-20h-107v20q0 72 30.5 107.5t90.5 47.5q28 10 33 24t5 66q0 36 -23 44t-59 8q-60 0 -71.5 -11t-11.5 -41v-34z" />
<glyph unicode="&#x1ea9;" d="M735 92q-29 -32 -59 -53t-67 -33t-82 -17t-103 -5q-103 0 -167.5 23t-101 66.5t-50 105.5t-13.5 138q0 78 11.5 140.5t48 105.5t101 66t171.5 23q75 0 124.5 -5t80.5 -16t51 -30t39 -45h4v194q0 59 -6.5 99t-29.5 65.5t-70 36t-130 10.5q-82 0 -128 -10.5t-67 -33 t-25 -59.5t-4 -87h-133v56q0 48 10 94t46.5 81.5t108.5 57.5t198 22q111 0 182 -17.5t111.5 -55.5t55.5 -95t15 -135v-779h-122v92zM225 323q0 -60 15 -100.5t46 -63.5t79.5 -32.5t114.5 -9.5q68 0 116 9.5t79 32.5t45.5 63.5t14.5 100.5q0 122 -60.5 164.5t-194.5 42.5 q-133 0 -194 -42.5t-61 -164.5zM414 1477h142l236 -291h-136l-172 207l-173 -207h-134zM698 1587h-102v34q0 52 11 82.5t34 46.5t57.5 20t82.5 4q94 0 142 -29.5t48 -123.5q0 -71 -15.5 -109.5t-86.5 -62.5q-25 -8 -36.5 -14t-16.5 -13.5t-5 -18v-26.5v-21h-107v21 q0 70 30.5 106t90.5 48q28 10 33 24t5 66q0 35 -23 43.5t-59 8.5q-60 0 -71.5 -11.5t-11.5 -40.5v-34z" />
<glyph unicode="&#x1eaa;" horiz-adv-x="1199" d="M610 1366h-20l-271 -900h560zM925 319h-652l-98 -319h-152l474 1513h205l474 -1513h-152zM528 1872h142l237 -291h-136l-171 207l-174 -207h-133zM925 2091q-4 -36 -17 -72t-37.5 -64.5t-57 -46.5t-71.5 -18q-38 0 -78 15t-78 34q-36 18 -72 32t-65 14q-44 0 -65 -32.5 t-27 -74.5h-84q2 38 17 73.5t39 64.5t56.5 47t72.5 18q39 0 77.5 -14t76.5 -32q38 -19 73.5 -33.5t64.5 -14.5q44 0 64.5 32t27.5 72h83z" />
<glyph unicode="&#x1eab;" d="M735 92q-29 -32 -59 -53t-67 -33t-82 -17t-103 -5q-103 0 -167.5 23t-101 66.5t-50 105.5t-13.5 138q0 78 11.5 140.5t48 105.5t101 66t171.5 23q75 0 124.5 -5t80.5 -16t51 -30t39 -45h4v194q0 59 -6.5 99t-29.5 65.5t-70 36t-130 10.5q-82 0 -128 -10.5t-67 -33 t-25 -59.5t-4 -87h-133v56q0 48 10 94t46.5 81.5t108.5 57.5t198 22q111 0 182 -17.5t111.5 -55.5t55.5 -95t15 -135v-779h-122v92zM225 323q0 -60 15 -100.5t46 -63.5t79.5 -32.5t114.5 -9.5q68 0 116 9.5t79 32.5t45.5 63.5t14.5 100.5q0 122 -60.5 164.5t-194.5 42.5 q-133 0 -194 -42.5t-61 -164.5zM414 1477h142l236 -291h-136l-172 207l-173 -207h-134zM809 1713q-5 -35 -18.5 -72t-37.5 -65t-56.5 -45.5t-72.5 -17.5q-38 0 -77 14t-77 34q-38 18 -73.5 31.5t-63.5 13.5q-44 0 -65 -32.5t-27 -74.5h-84q2 38 16.5 74t38.5 65t56.5 46.5 t72.5 17.5q39 0 78 -13.5t76 -32.5q37 -18 73 -32.5t65 -14.5q44 0 65 32t27 72h84z" />
<glyph unicode="&#x1eac;" horiz-adv-x="1199" d="M520 -219h157v-201h-157v201zM610 1366h-20l-271 -900h560zM925 319h-652l-98 -319h-152l474 1513h205l474 -1513h-152zM528 1947h142l237 -291h-136l-171 208l-174 -208h-133z" />
<glyph unicode="&#x1ead;" d="M393 -219h157v-201h-157v201zM735 92q-29 -32 -59 -53t-67 -33t-82 -17t-103 -5q-103 0 -167.5 23t-101 66.5t-50 105.5t-13.5 138q0 78 11.5 140.5t48 105.5t101 66t171.5 23q75 0 124.5 -5t80.5 -16t51 -30t39 -45h4v194q0 59 -6.5 99t-29.5 65.5t-70 36t-130 10.5 q-82 0 -128 -10.5t-67 -33t-25 -59.5t-4 -87h-133v56q0 48 10 94t46.5 81.5t108.5 57.5t198 22q111 0 182 -17.5t111.5 -55.5t55.5 -95t15 -135v-779h-122v92zM225 323q0 -60 15 -100.5t46 -63.5t79.5 -32.5t114.5 -9.5q68 0 116 9.5t79 32.5t45.5 63.5t14.5 100.5 q0 122 -60.5 164.5t-194.5 42.5q-133 0 -194 -42.5t-61 -164.5zM411 1477h143l235 -291h-135l-172 207l-173 -207h-134z" />
<glyph unicode="&#x1eae;" horiz-adv-x="1199" d="M610 1366h-20l-271 -900h560zM925 319h-652l-98 -319h-152l474 1513h205l474 -1513h-152zM380 1932q11 -86 73.5 -127t144.5 -41q87 0 144.5 40t76.5 128h84q-16 -132 -100 -198.5t-211 -66.5q-132 0 -205.5 70t-89.5 195h83zM787 2223h164l-289 -291h-106z" />
<glyph unicode="&#x1eaf;" d="M735 92q-29 -32 -59 -53t-67 -33t-82 -17t-103 -5q-103 0 -167.5 23t-101 66.5t-50 105.5t-13.5 138q0 78 11.5 140.5t48 105.5t101 66t171.5 23q75 0 124.5 -5t80.5 -16t51 -30t39 -45h4v194q0 59 -6.5 99t-29.5 65.5t-70 36t-130 10.5q-82 0 -128 -10.5t-67 -33 t-25 -59.5t-4 -87h-133v56q0 48 10 94t46.5 81.5t108.5 57.5t198 22q111 0 182 -17.5t111.5 -55.5t55.5 -95t15 -135v-779h-122v92zM225 323q0 -60 15 -100.5t46 -63.5t79.5 -32.5t114.5 -9.5q68 0 116 9.5t79 32.5t45.5 63.5t14.5 100.5q0 122 -60.5 164.5t-194.5 42.5 q-133 0 -194 -42.5t-61 -164.5zM263 1463q10 -86 73 -128t144 -42q88 0 145.5 41t76.5 129h83q-14 -132 -98.5 -199t-212.5 -67q-131 0 -204 70t-90 196h83zM677 1752h162l-287 -289h-107z" />
<glyph unicode="&#x1eb0;" horiz-adv-x="1199" d="M610 1366h-20l-271 -900h560zM925 319h-652l-98 -319h-152l474 1513h205l474 -1513h-152zM380 1932q11 -86 73.5 -127t144.5 -41q87 0 144.5 40t76.5 128h84q-16 -132 -100 -198.5t-211 -66.5q-132 0 -205.5 70t-89.5 195h83zM287 2221h162l232 -291h-107z" />
<glyph unicode="&#x1eb1;" d="M735 92q-29 -32 -59 -53t-67 -33t-82 -17t-103 -5q-103 0 -167.5 23t-101 66.5t-50 105.5t-13.5 138q0 78 11.5 140.5t48 105.5t101 66t171.5 23q75 0 124.5 -5t80.5 -16t51 -30t39 -45h4v194q0 59 -6.5 99t-29.5 65.5t-70 36t-130 10.5q-82 0 -128 -10.5t-67 -33 t-25 -59.5t-4 -87h-133v56q0 48 10 94t46.5 81.5t108.5 57.5t198 22q111 0 182 -17.5t111.5 -55.5t55.5 -95t15 -135v-779h-122v92zM225 323q0 -60 15 -100.5t46 -63.5t79.5 -32.5t114.5 -9.5q68 0 116 9.5t79 32.5t45.5 63.5t14.5 100.5q0 122 -60.5 164.5t-194.5 42.5 q-133 0 -194 -42.5t-61 -164.5zM263 1463q10 -86 73 -128t144 -42q88 0 145.5 41t76.5 129h83q-14 -132 -98.5 -199t-212.5 -67q-131 0 -204 70t-90 196h83zM165 1750h163l232 -289h-107z" />
<glyph unicode="&#x1eb2;" horiz-adv-x="1199" d="M610 1366h-20l-271 -900h560zM925 319h-652l-98 -319h-152l474 1513h205l474 -1513h-152zM380 1932q11 -86 73.5 -127t144.5 -41q87 0 144.5 40t76.5 128h84q-16 -132 -100 -198.5t-211 -66.5q-132 0 -205.5 70t-89.5 195h83zM534 2166h-102v34q0 52 11.5 82t35 46 t57.5 20t82 4q94 0 142.5 -29t48.5 -123q0 -71 -16 -110t-87 -61q-25 -9 -36.5 -15.5t-16.5 -13.5t-5 -17.5v-27.5v-21h-107v21q0 72 30.5 107t90.5 47q28 12 33 25t5 66q0 35 -23 43.5t-59 8.5q-60 0 -72 -11.5t-12 -40.5v-34z" />
<glyph unicode="&#x1eb3;" d="M735 92q-29 -32 -59 -53t-67 -33t-82 -17t-103 -5q-103 0 -167.5 23t-101 66.5t-50 105.5t-13.5 138q0 78 11.5 140.5t48 105.5t101 66t171.5 23q75 0 124.5 -5t80.5 -16t51 -30t39 -45h4v194q0 59 -6.5 99t-29.5 65.5t-70 36t-130 10.5q-82 0 -128 -10.5t-67 -33 t-25 -59.5t-4 -87h-133v56q0 48 10 94t46.5 81.5t108.5 57.5t198 22q111 0 182 -17.5t111.5 -55.5t55.5 -95t15 -135v-779h-122v92zM225 323q0 -60 15 -100.5t46 -63.5t79.5 -32.5t114.5 -9.5q68 0 116 9.5t79 32.5t45.5 63.5t14.5 100.5q0 122 -60.5 164.5t-194.5 42.5 q-133 0 -194 -42.5t-61 -164.5zM263 1463q10 -86 73 -128t144 -42q88 0 145.5 41t76.5 129h83q-14 -132 -98.5 -199t-212.5 -67q-131 0 -204 70t-90 196h83zM418 1684h-103v33q0 53 12 83t35 46t57 20t83 4q94 0 142 -29t48 -124q0 -71 -16 -109.5t-86 -61.5 q-26 -9 -37.5 -15t-17 -13t-5.5 -18v-27v-22h-106v22q0 70 30 106t92 48q26 11 31 24.5t5 65.5q0 35 -22.5 44t-57.5 9q-61 0 -72.5 -12t-11.5 -41v-33z" />
<glyph unicode="&#x1eb4;" horiz-adv-x="1199" d="M610 1366h-20l-271 -900h560zM925 319h-652l-98 -319h-152l474 1513h205l474 -1513h-152zM380 1932q11 -86 73.5 -127t144.5 -41q87 0 144.5 40t76.5 128h84q-16 -132 -100 -198.5t-211 -66.5q-132 0 -205.5 70t-89.5 195h83zM925 2195q-4 -35 -17 -71.5t-37.5 -64.5 t-57 -46t-71.5 -18q-38 0 -78 15t-78 33q-36 18 -72 32t-65 14q-44 0 -65 -32t-27 -74h-84q2 37 17 72.5t39 64.5t56.5 47t72.5 18q39 0 77.5 -13.5t76.5 -32.5q38 -18 73.5 -33t64.5 -15q44 0 64.5 32.5t27.5 71.5h83z" />
<glyph unicode="&#x1eb5;" d="M735 92q-29 -32 -59 -53t-67 -33t-82 -17t-103 -5q-103 0 -167.5 23t-101 66.5t-50 105.5t-13.5 138q0 78 11.5 140.5t48 105.5t101 66t171.5 23q75 0 124.5 -5t80.5 -16t51 -30t39 -45h4v194q0 59 -6.5 99t-29.5 65.5t-70 36t-130 10.5q-82 0 -128 -10.5t-67 -33 t-25 -59.5t-4 -87h-133v56q0 48 10 94t46.5 81.5t108.5 57.5t198 22q111 0 182 -17.5t111.5 -55.5t55.5 -95t15 -135v-779h-122v92zM225 323q0 -60 15 -100.5t46 -63.5t79.5 -32.5t114.5 -9.5q68 0 116 9.5t79 32.5t45.5 63.5t14.5 100.5q0 122 -60.5 164.5t-194.5 42.5 q-133 0 -194 -42.5t-61 -164.5zM263 1463q10 -86 73 -128t144 -42q88 0 145.5 41t76.5 129h83q-14 -132 -98.5 -199t-212.5 -67q-131 0 -204 70t-90 196h83zM809 1732q-5 -36 -18.5 -72.5t-37.5 -64.5t-56.5 -46t-72.5 -18q-38 0 -77 15t-77 33q-38 19 -73.5 32.5 t-63.5 13.5q-44 0 -65 -32t-27 -74h-84q2 38 16.5 73t38.5 64.5t56.5 47.5t72.5 18q39 0 78 -14t76 -33t73 -33.5t65 -14.5q44 0 65 32.5t27 72.5h84z" />
<glyph unicode="&#x1eb6;" horiz-adv-x="1199" d="M610 1366h-20l-271 -900h560zM925 319h-652l-98 -319h-152l474 1513h205l474 -1513h-152zM520 -219h157v-201h-157v201zM380 1932q11 -86 73.5 -127t144.5 -41q87 0 144.5 40t76.5 128h84q-16 -132 -100 -198.5t-211 -66.5q-132 0 -205.5 70t-89.5 195h83z" />
<glyph unicode="&#x1eb7;" d="M735 92q-29 -32 -59 -53t-67 -33t-82 -17t-103 -5q-103 0 -167.5 23t-101 66.5t-50 105.5t-13.5 138q0 78 11.5 140.5t48 105.5t101 66t171.5 23q75 0 124.5 -5t80.5 -16t51 -30t39 -45h4v194q0 59 -6.5 99t-29.5 65.5t-70 36t-130 10.5q-82 0 -128 -10.5t-67 -33 t-25 -59.5t-4 -87h-133v56q0 48 10 94t46.5 81.5t108.5 57.5t198 22q111 0 182 -17.5t111.5 -55.5t55.5 -95t15 -135v-779h-122v92zM225 323q0 -60 15 -100.5t46 -63.5t79.5 -32.5t114.5 -9.5q68 0 116 9.5t79 32.5t45.5 63.5t14.5 100.5q0 122 -60.5 164.5t-194.5 42.5 q-133 0 -194 -42.5t-61 -164.5zM393 -219h157v-201h-157v201zM263 1463q10 -86 73 -128t144 -42q88 0 145.5 41t76.5 129h83q-14 -132 -98.5 -199t-212.5 -67q-131 0 -204 70t-90 196h83z" />
<glyph unicode="&#x1eb8;" horiz-adv-x="1044" d="M128 1513h810v-147h-665v-509h632v-147h-632v-564h660v-146h-805v1513zM443 -219h157v-201h-157v201z" />
<glyph unicode="&#x1eb9;" d="M723 635q0 84 -4.5 145.5t-27.5 102t-72 59.5t-139 19q-89 0 -138 -19t-72 -59.5t-27.5 -102t-4.5 -145.5h485zM238 502v-99q0 -88 9.5 -145t33.5 -91.5t68 -48.5t113 -14q81 0 131.5 4.5t79.5 24.5t39.5 62.5t10.5 121.5h134v-40q0 -78 -14 -134.5t-53.5 -92.5 t-112.5 -51t-193 -15q-131 0 -209 25t-119 87.5t-52.5 167.5t-11.5 268q0 166 15.5 272.5t59.5 168t120 85.5t197 24q120 0 193 -25t112.5 -76.5t53.5 -130.5t14 -188v-160h-619zM405 -219h157v-201h-157v201z" />
<glyph unicode="&#x1eba;" horiz-adv-x="1044" d="M128 1513h810v-147h-665v-509h632v-147h-632v-564h660v-146h-805v1513zM508 1834h-103v34q0 52 11.5 82.5t34.5 45.5t57.5 19.5t83.5 4.5q93 0 141 -29.5t48 -122.5q0 -72 -15.5 -110t-86.5 -62q-25 -8 -37 -14.5t-17 -13.5t-5 -17.5v-27.5v-21h-106v21q0 71 30 107 t91 48q27 10 32 24t5 66q0 35 -23 43.5t-57 8.5q-62 0 -73 -11.5t-11 -40.5v-34z" />
<glyph unicode="&#x1ebb;" d="M723 635q0 84 -4.5 145.5t-27.5 102t-72 59.5t-139 19q-89 0 -138 -19t-72 -59.5t-27.5 -102t-4.5 -145.5h485zM238 502v-99q0 -88 9.5 -145t33.5 -91.5t68 -48.5t113 -14q81 0 131.5 4.5t79.5 24.5t39.5 62.5t10.5 121.5h134v-40q0 -78 -14 -134.5t-53.5 -92.5 t-112.5 -51t-193 -15q-131 0 -209 25t-119 87.5t-52.5 167.5t-11.5 268q0 166 15.5 272.5t59.5 168t120 85.5t197 24q120 0 193 -25t112.5 -76.5t53.5 -130.5t14 -188v-160h-619zM451 1364h-102v33q0 52 11.5 83t34.5 46t57.5 19.5t81.5 4.5q94 0 142.5 -29.5t48.5 -123.5 q0 -71 -15.5 -109t-87.5 -62q-24 -8 -36 -14t-17 -14t-5 -18v-27v-21h-106v21q0 71 30 106.5t90 48.5q28 10 33 23.5t5 65.5q0 36 -23 44t-59 8q-60 0 -71.5 -11t-11.5 -41v-33z" />
<glyph unicode="&#x1ebc;" horiz-adv-x="1044" d="M128 1513h810v-147h-665v-509h632v-147h-632v-564h660v-146h-805v1513zM848 1895q-4 -36 -17.5 -72.5t-37.5 -64.5t-56.5 -46t-72.5 -18q-38 0 -77 15t-77 33q-38 19 -73.5 32.5t-64.5 13.5q-44 0 -64.5 -32t-28.5 -74h-82q2 38 16 73t38 64t57 47t72 18q40 0 78.5 -13.5 t75.5 -32.5q38 -18 74 -33t64 -15q44 0 65 32.5t28 72.5h83z" />
<glyph unicode="&#x1ebd;" d="M723 635q0 84 -4.5 145.5t-27.5 102t-72 59.5t-139 19q-89 0 -138 -19t-72 -59.5t-27.5 -102t-4.5 -145.5h485zM238 502v-99q0 -88 9.5 -145t33.5 -91.5t68 -48.5t113 -14q81 0 131.5 4.5t79.5 24.5t39.5 62.5t10.5 121.5h134v-40q0 -78 -14 -134.5t-53.5 -92.5 t-112.5 -51t-193 -15q-131 0 -209 25t-119 87.5t-52.5 167.5t-11.5 268q0 166 15.5 272.5t59.5 168t120 85.5t197 24q120 0 193 -25t112.5 -76.5t53.5 -130.5t14 -188v-160h-619zM809 1425q-5 -36 -18.5 -72.5t-37.5 -64.5t-56.5 -46t-72.5 -18q-38 0 -77 15t-77 33 q-38 19 -73.5 32.5t-63.5 13.5q-44 0 -65 -32t-27 -74h-84q2 38 16.5 73t38.5 64.5t56.5 47t72.5 17.5q39 0 78 -13.5t76 -32.5t73 -33.5t65 -14.5q44 0 65 32.5t27 72.5h84z" />
<glyph unicode="&#x1ebe;" horiz-adv-x="1044" d="M128 1513h810v-147h-665v-509h632v-147h-632v-564h660v-146h-805v1513zM451 1872h143l235 -291h-135l-172 207l-173 -207h-134zM999 2045h163l-289 -291h-106z" />
<glyph unicode="&#x1ebf;" d="M723 635q0 84 -4.5 145.5t-27.5 102t-72 59.5t-139 19q-89 0 -138 -19t-72 -59.5t-27.5 -102t-4.5 -145.5h485zM238 502v-99q0 -88 9.5 -145t33.5 -91.5t68 -48.5t113 -14q81 0 131.5 4.5t79.5 24.5t39.5 62.5t10.5 121.5h134v-40q0 -78 -14 -134.5t-53.5 -92.5 t-112.5 -51t-193 -15q-131 0 -209 25t-119 87.5t-52.5 167.5t-11.5 268q0 166 15.5 272.5t59.5 168t120 85.5t197 24q120 0 193 -25t112.5 -76.5t53.5 -130.5t14 -188v-160h-619zM414 1477h142l236 -291h-136l-172 207l-173 -207h-134zM927 1648h163l-288 -290h-106z" />
<glyph unicode="&#x1ec0;" horiz-adv-x="1044" d="M128 1513h810v-147h-665v-509h632v-147h-632v-564h660v-146h-805v1513zM451 1872h143l235 -291h-135l-172 207l-173 -207h-134zM552 2043h162l233 -291h-108z" />
<glyph unicode="&#x1ec1;" d="M723 635q0 84 -4.5 145.5t-27.5 102t-72 59.5t-139 19q-89 0 -138 -19t-72 -59.5t-27.5 -102t-4.5 -145.5h485zM238 502v-99q0 -88 9.5 -145t33.5 -91.5t68 -48.5t113 -14q81 0 131.5 4.5t79.5 24.5t39.5 62.5t10.5 121.5h134v-40q0 -78 -14 -134.5t-53.5 -92.5 t-112.5 -51t-193 -15q-131 0 -209 25t-119 87.5t-52.5 167.5t-11.5 268q0 166 15.5 272.5t59.5 168t120 85.5t197 24q120 0 193 -25t112.5 -76.5t53.5 -130.5t14 -188v-160h-619zM414 1477h142l236 -291h-136l-172 207l-173 -207h-134zM541 1648h163l232 -290h-107z" />
<glyph unicode="&#x1ec2;" horiz-adv-x="1044" d="M128 1513h810v-147h-665v-509h632v-147h-632v-564h660v-146h-805v1513zM451 1872h143l235 -291h-135l-172 207l-173 -207h-134zM752 2007h-102v34q0 52 11 82t34.5 46t57.5 20t82 4q94 0 142.5 -29t48.5 -123q0 -71 -16 -110t-87 -61q-24 -8 -36 -15t-17 -14t-5 -17v-28 v-20h-107v20q0 72 30.5 107.5t90.5 47.5q28 10 33 24t5 66q0 36 -23 44t-59 8q-60 0 -71.5 -11t-11.5 -41v-34z" />
<glyph unicode="&#x1ec3;" d="M723 635q0 84 -4.5 145.5t-27.5 102t-72 59.5t-139 19q-89 0 -138 -19t-72 -59.5t-27.5 -102t-4.5 -145.5h485zM238 502v-99q0 -88 9.5 -145t33.5 -91.5t68 -48.5t113 -14q81 0 131.5 4.5t79.5 24.5t39.5 62.5t10.5 121.5h134v-40q0 -78 -14 -134.5t-53.5 -92.5 t-112.5 -51t-193 -15q-131 0 -209 25t-119 87.5t-52.5 167.5t-11.5 268q0 166 15.5 272.5t59.5 168t120 85.5t197 24q120 0 193 -25t112.5 -76.5t53.5 -130.5t14 -188v-160h-619zM414 1477h142l236 -291h-136l-172 207l-173 -207h-134zM708 1587h-102v34q0 52 11 82.5 t34.5 46.5t58 20t82.5 4q93 0 141.5 -29.5t48.5 -123.5q0 -71 -15.5 -109.5t-87.5 -62.5q-24 -8 -36 -14t-17 -13.5t-5 -18v-26.5v-21h-107v21q0 70 30.5 106t90.5 48q28 10 33 24t5 66q0 35 -23 43.5t-58 8.5q-61 0 -72.5 -11.5t-11.5 -40.5v-34z" />
<glyph unicode="&#x1ec4;" horiz-adv-x="1044" d="M128 1513h810v-147h-665v-509h632v-147h-632v-564h660v-146h-805v1513zM451 1872h143l235 -291h-135l-172 207l-173 -207h-134zM865 2091q-4 -36 -18 -72t-38 -64.5t-56 -46.5t-72 -18q-37 0 -77 15t-78 34q-37 18 -72.5 32t-64.5 14q-44 0 -65 -32.5t-27 -74.5h-84 q2 38 17 73.5t39 64.5t56 47t72 18t78.5 -14t76.5 -32q38 -19 73 -33.5t65 -14.5q43 0 64 32t27 72h84z" />
<glyph unicode="&#x1ec5;" d="M723 635q0 84 -4.5 145.5t-27.5 102t-72 59.5t-139 19q-89 0 -138 -19t-72 -59.5t-27.5 -102t-4.5 -145.5h485zM238 502v-99q0 -88 9.5 -145t33.5 -91.5t68 -48.5t113 -14q81 0 131.5 4.5t79.5 24.5t39.5 62.5t10.5 121.5h134v-40q0 -78 -14 -134.5t-53.5 -92.5 t-112.5 -51t-193 -15q-131 0 -209 25t-119 87.5t-52.5 167.5t-11.5 268q0 166 15.5 272.5t59.5 168t120 85.5t197 24q120 0 193 -25t112.5 -76.5t53.5 -130.5t14 -188v-160h-619zM414 1477h142l236 -291h-136l-172 207l-173 -207h-134zM827 1713q-4 -35 -17.5 -72t-37.5 -65 t-56.5 -45.5t-71.5 -17.5q-38 0 -78 14t-77 34q-38 18 -73.5 31.5t-64.5 13.5q-44 0 -65 -32.5t-27 -74.5h-84q2 38 17 74t39 65t56 46.5t72 17.5t78.5 -13.5t76.5 -32.5q38 -18 73 -32.5t65 -14.5q44 0 64.5 32t27.5 72h83z" />
<glyph unicode="&#x1ec6;" horiz-adv-x="1044" d="M128 1513h810v-147h-665v-509h632v-147h-632v-564h660v-146h-805v1513zM443 -219h157v-201h-157v201zM451 1947h143l235 -291h-135l-172 208l-173 -208h-134z" />
<glyph unicode="&#x1ec7;" d="M723 635q0 84 -4.5 145.5t-27.5 102t-72 59.5t-139 19q-89 0 -138 -19t-72 -59.5t-27.5 -102t-4.5 -145.5h485zM238 502v-99q0 -88 9.5 -145t33.5 -91.5t68 -48.5t113 -14q81 0 131.5 4.5t79.5 24.5t39.5 62.5t10.5 121.5h134v-40q0 -78 -14 -134.5t-53.5 -92.5 t-112.5 -51t-193 -15q-131 0 -209 25t-119 87.5t-52.5 167.5t-11.5 268q0 166 15.5 272.5t59.5 168t120 85.5t197 24q120 0 193 -25t112.5 -76.5t53.5 -130.5t14 -188v-160h-619zM405 -219h157v-201h-157v201zM411 1477h143l235 -291h-135l-172 207l-173 -207h-134z" />
<glyph unicode="&#x1ec8;" horiz-adv-x="464" d="M159 1513h146v-1513h-146v1513zM180 1834h-102v34q0 52 11 82.5t34 45.5t57.5 19.5t82.5 4.5q94 0 142 -29.5t48 -122.5q0 -72 -15.5 -110t-86.5 -62q-26 -8 -37 -14.5t-16 -13.5t-5 -17.5v-27.5v-21h-107v21q0 71 30.5 107t90.5 48q28 10 33 24t5 66q0 35 -23 43.5 t-59 8.5q-60 0 -71.5 -11.5t-11.5 -40.5v-34z" />
<glyph unicode="&#x1ec9;" horiz-adv-x="426" d="M146 1065h133v-1065h-133v1065zM155 1364h-103v33q0 52 11.5 83t34.5 46t57.5 19.5t82.5 4.5q95 0 142.5 -29.5t47.5 -123.5q0 -71 -15.5 -109t-87.5 -62q-24 -8 -36 -14t-17 -14t-5 -18v-27v-21h-106v21q0 71 30 106.5t91 48.5q27 10 32 23.5t5 65.5q0 36 -23 44t-58 8 q-61 0 -72 -11t-11 -41v-33z" />
<glyph unicode="&#x1eca;" horiz-adv-x="464" d="M159 1513h146v-1513h-146v1513zM153 -219h156v-201h-156v201z" />
<glyph unicode="&#x1ecb;" horiz-adv-x="426" d="M146 1065h133v-1065h-133v1065zM146 1513h133v-178h-133v178zM138 -219h157v-201h-157v201z" />
<glyph unicode="&#x1ecc;" horiz-adv-x="1278" d="M1026 1003q0 125 -12.5 200t-52.5 115t-117 52.5t-204 12.5q-130 0 -206.5 -12.5t-116.5 -52.5t-52 -115t-12 -200v-493q0 -125 12 -200.5t52 -115t116.5 -52t206.5 -12.5q127 0 204 12.5t117 52t52.5 115t12.5 200.5v493zM106 1011q0 165 27.5 267.5t90.5 157.5t165 74 t251 19q147 0 249.5 -19t165.5 -74t90 -157.5t27 -267.5v-509q0 -167 -27 -268.5t-90 -157.5t-165.5 -74t-249.5 -18q-149 0 -251 18t-165 74t-90.5 157.5t-27.5 268.5v509zM560 -219h156v-201h-156v201z" />
<glyph unicode="&#x1ecd;" horiz-adv-x="969" d="M238 532q0 -147 8.5 -233t34.5 -128.5t75 -54.5t128 -12q80 0 129 12t75 54.5t34.5 128.5t8.5 233q0 149 -8.5 235t-34.5 128.5t-75 54t-129 11.5q-79 0 -128 -11.5t-75 -54t-34.5 -128.5t-8.5 -235zM92 532q0 160 11.5 265.5t52.5 169t119 89.5t209 26q132 0 209.5 -26 t118.5 -89.5t53 -169t12 -265.5q0 -165 -12 -271t-53 -167.5t-119.5 -85.5t-208.5 -24q-129 0 -207 24t-119 85.5t-53.5 167.5t-12.5 271zM405 -219h157v-201h-157v201z" />
<glyph unicode="&#x1ece;" horiz-adv-x="1278" d="M1026 1003q0 125 -12.5 200t-52.5 115t-117 52.5t-204 12.5q-130 0 -206.5 -12.5t-116.5 -52.5t-52 -115t-12 -200v-493q0 -125 12 -200.5t52 -115t116.5 -52t206.5 -12.5q127 0 204 12.5t117 52t52.5 115t12.5 200.5v493zM106 1011q0 165 27.5 267.5t90.5 157.5t165 74 t251 19q147 0 249.5 -19t165.5 -74t90 -157.5t27 -267.5v-509q0 -167 -27 -268.5t-90 -157.5t-165.5 -74t-249.5 -18q-149 0 -251 18t-165 74t-90.5 157.5t-27.5 268.5v509zM584 1834h-102v34q0 52 12 82.5t35 45.5t57 19.5t82 4.5q95 0 143 -29.5t48 -122.5q0 -72 -16 -110 t-87 -62q-25 -8 -36.5 -14.5t-16.5 -13.5t-5 -17.5v-27.5v-21h-106v21q0 71 30 107t90 48q28 10 33 24t5 66q0 35 -23 43.5t-59 8.5q-60 0 -72 -11.5t-12 -40.5v-34z" />
<glyph unicode="&#x1ecf;" horiz-adv-x="969" d="M238 532q0 -147 8.5 -233t34.5 -128.5t75 -54.5t128 -12q80 0 129 12t75 54.5t34.5 128.5t8.5 233q0 149 -8.5 235t-34.5 128.5t-75 54t-129 11.5q-79 0 -128 -11.5t-75 -54t-34.5 -128.5t-8.5 -235zM92 532q0 160 11.5 265.5t52.5 169t119 89.5t209 26q132 0 209.5 -26 t118.5 -89.5t53 -169t12 -265.5q0 -165 -12 -271t-53 -167.5t-119.5 -85.5t-208.5 -24q-129 0 -207 24t-119 85.5t-53.5 167.5t-12.5 271zM432 1364h-102v33q0 52 11.5 83t34.5 46t57.5 19.5t82.5 4.5q94 0 142 -29.5t48 -123.5q0 -71 -15.5 -109t-86.5 -62q-26 -8 -37 -14 t-16 -14t-5 -18v-27v-21h-107v21q0 71 30 106.5t91 48.5q26 10 32 23.5t6 65.5q0 36 -23 44t-59 8q-61 0 -72.5 -11t-11.5 -41v-33z" />
<glyph unicode="&#x1ed0;" horiz-adv-x="1278" d="M1026 1003q0 125 -12.5 200t-52.5 115t-117 52.5t-204 12.5q-130 0 -206.5 -12.5t-116.5 -52.5t-52 -115t-12 -200v-493q0 -125 12 -200.5t52 -115t116.5 -52t206.5 -12.5q127 0 204 12.5t117 52t52.5 115t12.5 200.5v493zM106 1011q0 165 27.5 267.5t90.5 157.5t165 74 t251 19q147 0 249.5 -19t165.5 -74t90 -157.5t27 -267.5v-509q0 -167 -27 -268.5t-90 -157.5t-165.5 -74t-249.5 -18q-149 0 -251 18t-165 74t-90.5 157.5t-27.5 268.5v509zM568 1872h142l237 -291h-136l-171 207l-174 -207h-133zM1103 2045h163l-289 -291h-106z" />
<glyph unicode="&#x1ed1;" horiz-adv-x="969" d="M238 532q0 -147 8.5 -233t34.5 -128.5t75 -54.5t128 -12q80 0 129 12t75 54.5t34.5 128.5t8.5 233q0 149 -8.5 235t-34.5 128.5t-75 54t-129 11.5q-79 0 -128 -11.5t-75 -54t-34.5 -128.5t-8.5 -235zM92 532q0 160 11.5 265.5t52.5 169t119 89.5t209 26q132 0 209.5 -26 t118.5 -89.5t53 -169t12 -265.5q0 -165 -12 -271t-53 -167.5t-119.5 -85.5t-208.5 -24q-129 0 -207 24t-119 85.5t-53.5 167.5t-12.5 271zM414 1477h142l236 -291h-136l-172 207l-173 -207h-134zM927 1648h163l-288 -290h-106z" />
<glyph unicode="&#x1ed2;" horiz-adv-x="1278" d="M1026 1003q0 125 -12.5 200t-52.5 115t-117 52.5t-204 12.5q-130 0 -206.5 -12.5t-116.5 -52.5t-52 -115t-12 -200v-493q0 -125 12 -200.5t52 -115t116.5 -52t206.5 -12.5q127 0 204 12.5t117 52t52.5 115t12.5 200.5v493zM106 1011q0 165 27.5 267.5t90.5 157.5t165 74 t251 19q147 0 249.5 -19t165.5 -74t90 -157.5t27 -267.5v-509q0 -167 -27 -268.5t-90 -157.5t-165.5 -74t-249.5 -18q-149 0 -251 18t-165 74t-90.5 157.5t-27.5 268.5v509zM568 1872h142l237 -291h-136l-171 207l-174 -207h-133zM704 2043h163l232 -291h-107z" />
<glyph unicode="&#x1ed3;" horiz-adv-x="969" d="M238 532q0 -147 8.5 -233t34.5 -128.5t75 -54.5t128 -12q80 0 129 12t75 54.5t34.5 128.5t8.5 233q0 149 -8.5 235t-34.5 128.5t-75 54t-129 11.5q-79 0 -128 -11.5t-75 -54t-34.5 -128.5t-8.5 -235zM92 532q0 160 11.5 265.5t52.5 169t119 89.5t209 26q132 0 209.5 -26 t118.5 -89.5t53 -169t12 -265.5q0 -165 -12 -271t-53 -167.5t-119.5 -85.5t-208.5 -24q-129 0 -207 24t-119 85.5t-53.5 167.5t-12.5 271zM414 1477h142l236 -291h-136l-172 207l-173 -207h-134zM541 1648h163l232 -290h-107z" />
<glyph unicode="&#x1ed4;" horiz-adv-x="1278" d="M1026 1003q0 125 -12.5 200t-52.5 115t-117 52.5t-204 12.5q-130 0 -206.5 -12.5t-116.5 -52.5t-52 -115t-12 -200v-493q0 -125 12 -200.5t52 -115t116.5 -52t206.5 -12.5q127 0 204 12.5t117 52t52.5 115t12.5 200.5v493zM106 1011q0 165 27.5 267.5t90.5 157.5t165 74 t251 19q147 0 249.5 -19t165.5 -74t90 -157.5t27 -267.5v-509q0 -167 -27 -268.5t-90 -157.5t-165.5 -74t-249.5 -18q-149 0 -251 18t-165 74t-90.5 157.5t-27.5 268.5v509zM568 1872h142l237 -291h-136l-171 207l-174 -207h-133zM835 2007h-102v34q0 52 11.5 82t34.5 46 t57.5 20t82.5 4q94 0 142 -29t48 -123q0 -71 -15.5 -110t-86.5 -61q-25 -8 -36.5 -15t-16.5 -14t-5 -17v-28v-20h-107v20q0 72 30.5 107.5t90.5 47.5q27 10 32.5 24t5.5 66q0 36 -23 44t-59 8q-60 0 -72 -11t-12 -41v-34z" />
<glyph unicode="&#x1ed5;" horiz-adv-x="969" d="M238 532q0 -147 8.5 -233t34.5 -128.5t75 -54.5t128 -12q80 0 129 12t75 54.5t34.5 128.5t8.5 233q0 149 -8.5 235t-34.5 128.5t-75 54t-129 11.5q-79 0 -128 -11.5t-75 -54t-34.5 -128.5t-8.5 -235zM92 532q0 160 11.5 265.5t52.5 169t119 89.5t209 26q132 0 209.5 -26 t118.5 -89.5t53 -169t12 -265.5q0 -165 -12 -271t-53 -167.5t-119.5 -85.5t-208.5 -24q-129 0 -207 24t-119 85.5t-53.5 167.5t-12.5 271zM414 1477h142l236 -291h-136l-172 207l-173 -207h-134zM719 1587h-103v34q0 52 12 82.5t34.5 46.5t57 20t82.5 4q95 0 142.5 -29.5 t47.5 -123.5q0 -71 -15.5 -109.5t-87.5 -62.5q-24 -8 -35.5 -14t-17 -13.5t-5.5 -18v-26.5v-21h-106v21q0 70 30 106t91 48q27 10 32 24t5 66q0 35 -23 43.5t-58 8.5q-60 0 -71.5 -11.5t-11.5 -40.5v-34z" />
<glyph unicode="&#x1ed6;" horiz-adv-x="1278" d="M1026 1003q0 125 -12.5 200t-52.5 115t-117 52.5t-204 12.5q-130 0 -206.5 -12.5t-116.5 -52.5t-52 -115t-12 -200v-493q0 -125 12 -200.5t52 -115t116.5 -52t206.5 -12.5q127 0 204 12.5t117 52t52.5 115t12.5 200.5v493zM106 1011q0 165 27.5 267.5t90.5 157.5t165 74 t251 19q147 0 249.5 -19t165.5 -74t90 -157.5t27 -267.5v-509q0 -167 -27 -268.5t-90 -157.5t-165.5 -74t-249.5 -18q-149 0 -251 18t-165 74t-90.5 157.5t-27.5 268.5v509zM568 1872h142l237 -291h-136l-171 207l-174 -207h-133zM965 2085q-4 -36 -18 -72.5t-38 -64.5 t-56 -46t-72 -18q-37 0 -77 15t-78 33q-36 19 -72 32.5t-65 13.5q-44 0 -65 -32t-27 -74h-84q2 37 17 73t39 65t56.5 47t71.5 18q40 0 78.5 -14t76.5 -32q38 -20 73 -34t64 -14q44 0 65 32t27 72h84z" />
<glyph unicode="&#x1ed7;" horiz-adv-x="969" d="M238 532q0 -147 8.5 -233t34.5 -128.5t75 -54.5t128 -12q80 0 129 12t75 54.5t34.5 128.5t8.5 233q0 149 -8.5 235t-34.5 128.5t-75 54t-129 11.5q-79 0 -128 -11.5t-75 -54t-34.5 -128.5t-8.5 -235zM92 532q0 160 11.5 265.5t52.5 169t119 89.5t209 26q132 0 209.5 -26 t118.5 -89.5t53 -169t12 -265.5q0 -165 -12 -271t-53 -167.5t-119.5 -85.5t-208.5 -24q-129 0 -207 24t-119 85.5t-53.5 167.5t-12.5 271zM414 1477h142l236 -291h-136l-172 207l-173 -207h-134zM811 1702q-4 -35 -18 -71.5t-38 -65t-56.5 -46t-72.5 -17.5q-36 0 -76 14.5 t-78 33.5q-37 19 -73 32.5t-64 13.5q-44 0 -65 -32.5t-27 -74.5h-84q2 38 16.5 73.5t38.5 64.5t56.5 47t72.5 18q39 0 78 -13.5t76 -32.5t73 -33.5t65 -14.5q44 0 65 32.5t27 71.5h84z" />
<glyph unicode="&#x1ed8;" horiz-adv-x="1278" d="M1026 1003q0 125 -12.5 200t-52.5 115t-117 52.5t-204 12.5q-130 0 -206.5 -12.5t-116.5 -52.5t-52 -115t-12 -200v-493q0 -125 12 -200.5t52 -115t116.5 -52t206.5 -12.5q127 0 204 12.5t117 52t52.5 115t12.5 200.5v493zM106 1011q0 165 27.5 267.5t90.5 157.5t165 74 t251 19q147 0 249.5 -19t165.5 -74t90 -157.5t27 -267.5v-509q0 -167 -27 -268.5t-90 -157.5t-165.5 -74t-249.5 -18q-149 0 -251 18t-165 74t-90.5 157.5t-27.5 268.5v509zM560 -219h156v-201h-156v201zM568 1947h142l237 -291h-136l-171 208l-174 -208h-133z" />
<glyph unicode="&#x1ed9;" horiz-adv-x="969" d="M238 532q0 -147 8.5 -233t34.5 -128.5t75 -54.5t128 -12q80 0 129 12t75 54.5t34.5 128.5t8.5 233q0 149 -8.5 235t-34.5 128.5t-75 54t-129 11.5q-79 0 -128 -11.5t-75 -54t-34.5 -128.5t-8.5 -235zM92 532q0 160 11.5 265.5t52.5 169t119 89.5t209 26q132 0 209.5 -26 t118.5 -89.5t53 -169t12 -265.5q0 -165 -12 -271t-53 -167.5t-119.5 -85.5t-208.5 -24q-129 0 -207 24t-119 85.5t-53.5 167.5t-12.5 271zM405 -219h157v-201h-157v201zM414 1477h142l236 -291h-136l-172 207l-173 -207h-134z" />
<glyph unicode="&#x1eda;" horiz-adv-x="1359" d="M1333 1308q0 -40 -15 -70q-12 -26 -41.5 -47t-84.5 -21h-30q4 -36 6 -74.5t2 -82.5v-509q0 -167 -27 -268.5t-90 -157t-165.5 -74t-249.5 -18.5q-149 0 -251 18.5t-165 74t-90.5 157t-27.5 268.5v509q0 165 27.5 267.5t90.5 157.5t165 74t251 19q112 0 197.5 -10 t147 -38.5t101.5 -77.5t60 -129h40q10 0 20 4q6 5 12 13.5t6 26.5v191h111v-203zM1024 1005q0 125 -12.5 200t-52.5 115t-117 52.5t-204 12.5q-130 0 -206.5 -12.5t-116.5 -52.5t-52 -115t-12 -200v-493q0 -125 12 -200.5t52 -115t116.5 -52t206.5 -12.5q127 0 204 12.5 t117 52t52.5 115t12.5 200.5v493zM865 1947h163l-288 -291h-107z" />
<glyph unicode="&#x1edb;" horiz-adv-x="1044" d="M1024 863q0 -40 -15 -69q-12 -27 -41.5 -48t-84.5 -21h-10q4 -42 4 -87.5v-100.5q0 -165 -12 -271.5t-53 -168t-119.5 -85.5t-208.5 -24q-129 0 -207 24t-119 85.5t-53.5 168t-12.5 271.5q0 159 11.5 264.5t52.5 169t119 89.5t209 26q94 0 160 -13.5t110 -42.5t69 -78 t38 -121h14q10 0 20 4q6 4 12 13t6 27v190h111v-202zM484 108q80 0 129 12t75 54.5t34.5 128.5t8.5 234t-8.5 234t-34.5 128.5t-75 54t-129 11.5q-79 0 -128 -11.5t-75 -54t-34.5 -128.5t-8.5 -234t8.5 -234t34.5 -128.5t75 -54.5t128 -12zM740 1477h163l-289 -291h-106z " />
<glyph unicode="&#x1edc;" horiz-adv-x="1359" d="M1333 1308q0 -40 -15 -70q-12 -26 -41.5 -47t-84.5 -21h-30q4 -36 6 -74.5t2 -82.5v-509q0 -167 -27 -268.5t-90 -157t-165.5 -74t-249.5 -18.5q-149 0 -251 18.5t-165 74t-90.5 157t-27.5 268.5v509q0 165 27.5 267.5t90.5 157.5t165 74t251 19q112 0 197.5 -10 t147 -38.5t101.5 -77.5t60 -129h40q10 0 20 4q6 5 12 13.5t6 26.5v191h111v-203zM1024 1005q0 125 -12.5 200t-52.5 115t-117 52.5t-204 12.5q-130 0 -206.5 -12.5t-116.5 -52.5t-52 -115t-12 -200v-493q0 -125 12 -200.5t52 -115t116.5 -52t206.5 -12.5q127 0 204 12.5 t117 52t52.5 115t12.5 200.5v493zM482 1947h164l231 -291h-106z" />
<glyph unicode="&#x1edd;" horiz-adv-x="1044" d="M1024 863q0 -40 -15 -69q-12 -27 -41.5 -48t-84.5 -21h-10q4 -42 4 -87.5v-100.5q0 -165 -12 -271.5t-53 -168t-119.5 -85.5t-208.5 -24q-129 0 -207 24t-119 85.5t-53.5 168t-12.5 271.5q0 159 11.5 264.5t52.5 169t119 89.5t209 26q94 0 160 -13.5t110 -42.5t69 -78 t38 -121h14q10 0 20 4q6 4 12 13t6 27v190h111v-202zM484 108q80 0 129 12t75 54.5t34.5 128.5t8.5 234t-8.5 234t-34.5 128.5t-75 54t-129 11.5q-79 0 -128 -11.5t-75 -54t-34.5 -128.5t-8.5 -234t8.5 -234t34.5 -128.5t75 -54.5t128 -12zM323 1477h164l232 -291h-107z" />
<glyph unicode="&#x1ede;" horiz-adv-x="1359" d="M1333 1308q0 -40 -15 -70q-12 -26 -41.5 -47t-84.5 -21h-30q4 -36 6 -74.5t2 -82.5v-509q0 -167 -27 -268.5t-90 -157t-165.5 -74t-249.5 -18.5q-149 0 -251 18.5t-165 74t-90.5 157t-27.5 268.5v509q0 165 27.5 267.5t90.5 157.5t165 74t251 19q112 0 197.5 -10 t147 -38.5t101.5 -77.5t60 -129h40q10 0 20 4q6 5 12 13.5t6 26.5v191h111v-203zM1024 1005q0 125 -12.5 200t-52.5 115t-117 52.5t-204 12.5q-130 0 -206.5 -12.5t-116.5 -52.5t-52 -115t-12 -200v-493q0 -125 12 -200.5t52 -115t116.5 -52t206.5 -12.5q127 0 204 12.5 t117 52t52.5 115t12.5 200.5v493zM608 1834h-102v34q0 52 11 82.5t34 45.5t58 19.5t83 4.5q93 0 141 -29.5t48 -122.5q0 -72 -15 -110t-87 -62q-25 -8 -36.5 -14.5t-16.5 -13.5t-5 -17.5v-27.5v-21h-107v21q0 71 30.5 107t90.5 48q28 10 33 24t5 66q0 35 -23 43.5t-58 8.5 q-62 0 -73 -11.5t-11 -40.5v-34z" />
<glyph unicode="&#x1edf;" horiz-adv-x="1044" d="M1024 863q0 -40 -15 -69q-12 -27 -41.5 -48t-84.5 -21h-10q4 -42 4 -87.5v-100.5q0 -165 -12 -271.5t-53 -168t-119.5 -85.5t-208.5 -24q-129 0 -207 24t-119 85.5t-53.5 168t-12.5 271.5q0 159 11.5 264.5t52.5 169t119 89.5t209 26q94 0 160 -13.5t110 -42.5t69 -78 t38 -121h14q10 0 20 4q6 4 12 13t6 27v190h111v-202zM484 108q80 0 129 12t75 54.5t34.5 128.5t8.5 234t-8.5 234t-34.5 128.5t-75 54t-129 11.5q-79 0 -128 -11.5t-75 -54t-34.5 -128.5t-8.5 -234t8.5 -234t34.5 -128.5t75 -54.5t128 -12zM462 1364h-103v33q0 52 11.5 83 t34.5 46t57.5 19.5t83.5 4.5q94 0 141.5 -29.5t47.5 -123.5q0 -71 -15.5 -109t-86.5 -62q-25 -8 -37 -14t-17 -14t-5 -18v-27v-21h-106v21q0 71 30 106.5t92 48.5q26 10 31 23.5t5 65.5q0 36 -23 44t-57 8q-62 0 -73 -11t-11 -41v-33z" />
<glyph unicode="&#x1ee0;" horiz-adv-x="1359" d="M1333 1308q0 -40 -15 -70q-12 -26 -41.5 -47t-84.5 -21h-30q4 -36 6 -74.5t2 -82.5v-509q0 -167 -27 -268.5t-90 -157t-165.5 -74t-249.5 -18.5q-149 0 -251 18.5t-165 74t-90.5 157t-27.5 268.5v509q0 165 27.5 267.5t90.5 157.5t165 74t251 19q112 0 197.5 -10 t147 -38.5t101.5 -77.5t60 -129h40q10 0 20 4q6 5 12 13.5t6 26.5v191h111v-203zM1024 1005q0 125 -12.5 200t-52.5 115t-117 52.5t-204 12.5q-130 0 -206.5 -12.5t-116.5 -52.5t-52 -115t-12 -200v-493q0 -125 12 -200.5t52 -115t116.5 -52t206.5 -12.5q127 0 204 12.5 t117 52t52.5 115t12.5 200.5v493zM1059 1895q-4 -36 -17.5 -72.5t-37.5 -64.5t-56.5 -46t-72.5 -18q-38 0 -77.5 15t-76.5 33q-38 19 -73.5 32.5t-65.5 13.5q-43 0 -64 -32t-27 -74h-84q2 38 17 73t39 64t56.5 47t72.5 18q38 0 77 -13.5t77 -32.5q37 -18 73 -33t64 -15 q44 0 65 32.5t27 72.5h84z" />
<glyph unicode="&#x1ee1;" horiz-adv-x="1044" d="M1024 863q0 -40 -15 -69q-12 -27 -41.5 -48t-84.5 -21h-10q4 -42 4 -87.5v-100.5q0 -165 -12 -271.5t-53 -168t-119.5 -85.5t-208.5 -24q-129 0 -207 24t-119 85.5t-53.5 168t-12.5 271.5q0 159 11.5 264.5t52.5 169t119 89.5t209 26q94 0 160 -13.5t110 -42.5t69 -78 t38 -121h14q10 0 20 4q6 4 12 13t6 27v190h111v-202zM484 108q80 0 129 12t75 54.5t34.5 128.5t8.5 234t-8.5 234t-34.5 128.5t-75 54t-129 11.5q-79 0 -128 -11.5t-75 -54t-34.5 -128.5t-8.5 -234t8.5 -234t34.5 -128.5t75 -54.5t128 -12zM921 1425q-4 -36 -18 -72.5 t-37.5 -64.5t-56 -46t-72.5 -18q-37 0 -77 15t-78 33q-36 19 -72 32.5t-65 13.5q-44 0 -65 -32t-27 -74h-84q2 38 17 73t39 64.5t56.5 47t71.5 17.5q40 0 78.5 -13.5t76.5 -32.5t73 -33.5t65 -14.5q43 0 64 32.5t27 72.5h84z" />
<glyph unicode="&#x1ee2;" horiz-adv-x="1359" d="M1333 1308q0 -40 -15 -70q-12 -26 -41.5 -47t-84.5 -21h-30q4 -36 6 -74.5t2 -82.5v-509q0 -167 -27 -268.5t-90 -157t-165.5 -74t-249.5 -18.5q-149 0 -251 18.5t-165 74t-90.5 157t-27.5 268.5v509q0 165 27.5 267.5t90.5 157.5t165 74t251 19q112 0 197.5 -10 t147 -38.5t101.5 -77.5t60 -129h40q10 0 20 4q6 5 12 13.5t6 26.5v191h111v-203zM1024 1005q0 125 -12.5 200t-52.5 115t-117 52.5t-204 12.5q-130 0 -206.5 -12.5t-116.5 -52.5t-52 -115t-12 -200v-493q0 -125 12 -200.5t52 -115t116.5 -52t206.5 -12.5q127 0 204 12.5 t117 52t52.5 115t12.5 200.5v493zM546 -219h156v-201h-156v201z" />
<glyph unicode="&#x1ee3;" horiz-adv-x="1044" d="M1024 863q0 -40 -15 -69q-12 -27 -41.5 -48t-84.5 -21h-10q4 -42 4 -87.5v-100.5q0 -165 -12 -271.5t-53 -168t-119.5 -85.5t-208.5 -24q-129 0 -207 24t-119 85.5t-53.5 168t-12.5 271.5q0 159 11.5 264.5t52.5 169t119 89.5t209 26q94 0 160 -13.5t110 -42.5t69 -78 t38 -121h14q10 0 20 4q6 4 12 13t6 27v190h111v-202zM484 108q80 0 129 12t75 54.5t34.5 128.5t8.5 234t-8.5 234t-34.5 128.5t-75 54t-129 11.5q-79 0 -128 -11.5t-75 -54t-34.5 -128.5t-8.5 -234t8.5 -234t34.5 -128.5t75 -54.5t128 -12zM391 -219h157v-201h-157v201z" />
<glyph unicode="&#x1ee4;" horiz-adv-x="1241" d="M128 1513h145v-1170q0 -61 17 -101.5t56 -66t105.5 -35.5t166.5 -10q103 0 170 10t106 35.5t56 66t17 101.5v1170h147v-1126q0 -122 -27.5 -200.5t-86 -123.5t-153.5 -62t-229 -17q-131 0 -225 17t-152.5 62t-85.5 123.5t-27 200.5v1126zM541 -219h157v-201h-157v201z " />
<glyph unicode="&#x1ee5;" d="M857 0h-134v138h-4q-51 -86 -115.5 -120t-179.5 -34q-91 0 -152 23t-96.5 64.5t-50 103t-14.5 138.5v752h134v-720q0 -46 7 -90t28 -77.5t60.5 -53.5t106.5 -20q61 0 112 14t87.5 46.5t56.5 87.5t20 141v672h134v-1065zM405 -219h157v-201h-157v201z" />
<glyph unicode="&#x1ee6;" horiz-adv-x="1241" d="M128 1513h145v-1170q0 -61 17 -101.5t56 -66t105.5 -35.5t166.5 -10q103 0 170 10t106 35.5t56 66t17 101.5v1170h147v-1126q0 -122 -27.5 -200.5t-86 -123.5t-153.5 -62t-229 -17q-131 0 -225 17t-152.5 62t-85.5 123.5t-27 200.5v1126zM572 1834h-102v34 q0 52 11.5 82.5t34.5 45.5t57.5 19.5t82.5 4.5q94 0 142 -29.5t48 -122.5q0 -72 -15.5 -110t-86.5 -62q-25 -8 -36.5 -14.5t-17 -13.5t-5.5 -17.5v-27.5v-21h-107v21q0 71 31 107t91 48q27 10 32 24t5 66q0 35 -22.5 43.5t-58.5 8.5q-60 0 -72 -11.5t-12 -40.5v-34z" />
<glyph unicode="&#x1ee7;" d="M857 0h-134v138h-4q-51 -86 -115.5 -120t-179.5 -34q-91 0 -152 23t-96.5 64.5t-50 103t-14.5 138.5v752h134v-720q0 -46 7 -90t28 -77.5t60.5 -53.5t106.5 -20q61 0 112 14t87.5 46.5t56.5 87.5t20 141v672h134v-1065zM418 1364h-103v33q0 52 12 83t35 46t57 19.5 t83 4.5q94 0 142 -29.5t48 -123.5q0 -71 -16 -109t-86 -62q-26 -8 -37.5 -14t-17 -14t-5.5 -18v-27v-21h-106v21q0 71 30 106.5t92 48.5q26 10 31 23.5t5 65.5q0 36 -22.5 44t-57.5 8q-61 0 -72.5 -11t-11.5 -41v-33z" />
<glyph unicode="&#x1ee8;" horiz-adv-x="1317" d="M1295 1308q0 -40 -15 -70q-12 -26 -41 -47t-83 -21h-44v-785q0 -122 -27.5 -200.5t-86 -123.5t-153.5 -62t-229 -17q-132 0 -225.5 17t-152 62t-86 123.5t-27.5 200.5v1126h146v-1170q0 -62 17 -102t55.5 -65.5t105.5 -35.5t167 -10q103 0 170 10t106 35.5t56 65.5 t17 102v1170h147v-235h34q12 0 20 4q6 5 12 13.5t6 26.5v191h111v-203zM833 1947h164l-289 -291h-106z" />
<glyph unicode="&#x1ee9;" horiz-adv-x="1056" d="M1038 863q0 -40 -14 -69q-13 -25 -42 -46t-83 -21h-42v-727h-134v138h-4q-51 -86 -115.5 -120t-179.5 -34q-91 0 -152 23t-96.5 64.5t-50 103t-14.5 138.5v752h134v-720q0 -46 7 -90t28 -77.5t60.5 -53.5t106.5 -20q61 0 112 14t87.5 46.5t56.5 87.5t20 141v672h134v-234 h32q12 0 20 4q6 4 12 13t6 27v190h111v-202zM677 1477h162l-287 -291h-107z" />
<glyph unicode="&#x1eea;" horiz-adv-x="1317" d="M1295 1308q0 -40 -15 -70q-12 -26 -41 -47t-83 -21h-44v-785q0 -122 -27.5 -200.5t-86 -123.5t-153.5 -62t-229 -17q-132 0 -225.5 17t-152 62t-86 123.5t-27.5 200.5v1126h146v-1170q0 -62 17 -102t55.5 -65.5t105.5 -35.5t167 -10q103 0 170 10t106 35.5t56 65.5 t17 102v1170h147v-235h34q12 0 20 4q6 5 12 13.5t6 26.5v191h111v-203zM462 1947h162l233 -291h-107z" />
<glyph unicode="&#x1eeb;" horiz-adv-x="1056" d="M1038 863q0 -40 -14 -69q-13 -25 -42 -46t-83 -21h-42v-727h-134v138h-4q-51 -86 -115.5 -120t-179.5 -34q-91 0 -152 23t-96.5 64.5t-50 103t-14.5 138.5v752h134v-720q0 -46 7 -90t28 -77.5t60.5 -53.5t106.5 -20q61 0 112 14t87.5 46.5t56.5 87.5t20 141v672h134v-234 h32q12 0 20 4q6 4 12 13t6 27v190h111v-202zM330 1477h163l232 -291h-107z" />
<glyph unicode="&#x1eec;" horiz-adv-x="1317" d="M1295 1308q0 -40 -15 -70q-12 -26 -41 -47t-83 -21h-44v-785q0 -122 -27.5 -200.5t-86 -123.5t-153.5 -62t-229 -17q-132 0 -225.5 17t-152 62t-86 123.5t-27.5 200.5v1126h146v-1170q0 -62 17 -102t55.5 -65.5t105.5 -35.5t167 -10q103 0 170 10t106 35.5t56 65.5 t17 102v1170h147v-235h34q12 0 20 4q6 5 12 13.5t6 26.5v191h111v-203zM576 1834h-102v34q0 52 11.5 82.5t34.5 45.5t57.5 19.5t82.5 4.5q94 0 142.5 -29.5t48.5 -122.5q0 -72 -16 -110t-87 -62q-25 -8 -36.5 -14.5t-16.5 -13.5t-5 -17.5v-27.5v-21h-108v21q0 71 31 107 t91 48q27 10 32.5 24t5.5 66q0 35 -23 43.5t-59 8.5q-60 0 -72 -11.5t-12 -40.5v-34z" />
<glyph unicode="&#x1eed;" horiz-adv-x="1056" d="M1038 863q0 -40 -14 -69q-13 -25 -42 -46t-83 -21h-42v-727h-134v138h-4q-51 -86 -115.5 -120t-179.5 -34q-91 0 -152 23t-96.5 64.5t-50 103t-14.5 138.5v752h134v-720q0 -46 7 -90t28 -77.5t60.5 -53.5t106.5 -20q61 0 112 14t87.5 46.5t56.5 87.5t20 141v672h134v-234 h32q12 0 20 4q6 4 12 13t6 27v190h111v-202zM449 1364h-102v33q0 52 11 83t34.5 46t57.5 19.5t82 4.5q94 0 142.5 -29.5t48.5 -123.5q0 -71 -15.5 -109t-87.5 -62q-24 -8 -36 -14t-17 -14t-5 -18v-27v-21h-107v21q0 71 30.5 106.5t90.5 48.5q28 10 33 23.5t5 65.5 q0 36 -23 44t-59 8q-60 0 -71.5 -11t-11.5 -41v-33z" />
<glyph unicode="&#x1eee;" horiz-adv-x="1317" d="M1295 1308q0 -40 -15 -70q-12 -26 -41 -47t-83 -21h-44v-785q0 -122 -27.5 -200.5t-86 -123.5t-153.5 -62t-229 -17q-132 0 -225.5 17t-152 62t-86 123.5t-27.5 200.5v1126h146v-1170q0 -62 17 -102t55.5 -65.5t105.5 -35.5t167 -10q103 0 170 10t106 35.5t56 65.5 t17 102v1170h147v-235h34q12 0 20 4q6 5 12 13.5t6 26.5v191h111v-203zM984 1895q-4 -36 -17.5 -72.5t-37.5 -64.5t-57 -46t-72 -18q-37 0 -77 15t-77 33q-38 19 -73.5 32.5t-64.5 13.5q-44 0 -65 -32t-27 -74h-83q2 38 16 73t38 64t56.5 47t72.5 18t78.5 -13.5t75.5 -32.5 q38 -18 73.5 -33t65.5 -15q44 0 65 32.5t27 72.5h83z" />
<glyph unicode="&#x1eef;" horiz-adv-x="1056" d="M1038 863q0 -40 -14 -69q-13 -25 -42 -46t-83 -21h-42v-727h-134v138h-4q-51 -86 -115.5 -120t-179.5 -34q-91 0 -152 23t-96.5 64.5t-50 103t-14.5 138.5v752h134v-720q0 -46 7 -90t28 -77.5t60.5 -53.5t106.5 -20q61 0 112 14t87.5 46.5t56.5 87.5t20 141v672h134v-234 h32q12 0 20 4q6 4 12 13t6 27v190h111v-202zM855 1425q-4 -36 -18 -72.5t-38 -64.5t-56.5 -46t-72.5 -18q-37 0 -76.5 15t-77.5 33q-38 19 -73.5 32.5t-64.5 13.5q-43 0 -64 -32t-27 -74h-84q2 38 16.5 73t38.5 64.5t56.5 47t72.5 17.5q39 0 78 -13.5t76 -32.5t73 -33.5 t65 -14.5q44 0 65 32.5t27 72.5h84z" />
<glyph unicode="&#x1ef0;" horiz-adv-x="1317" d="M1295 1308q0 -40 -15 -70q-12 -26 -41 -47t-83 -21h-44v-785q0 -122 -27.5 -200.5t-86 -123.5t-153.5 -62t-229 -17q-132 0 -225.5 17t-152 62t-86 123.5t-27.5 200.5v1126h146v-1170q0 -62 17 -102t55.5 -65.5t105.5 -35.5t167 -10q103 0 170 10t106 35.5t56 65.5 t17 102v1170h147v-235h34q12 0 20 4q6 5 12 13.5t6 26.5v191h111v-203zM530 -219h157v-201h-157v201z" />
<glyph unicode="&#x1ef1;" horiz-adv-x="1056" d="M401 -219h157v-201h-157v201zM1038 863q0 -40 -14 -69q-13 -25 -42 -46t-83 -21h-42v-727h-134v138h-4q-51 -86 -115.5 -120t-179.5 -34q-91 0 -152 23t-96.5 64.5t-50 103t-14.5 138.5v752h134v-720q0 -46 7 -90t28 -77.5t60.5 -53.5t106.5 -20q61 0 112 14t87.5 46.5 t56.5 87.5t20 141v672h134v-234h32q12 0 20 4q6 4 12 13t6 27v190h111v-202z" />
<glyph unicode="&#x1ef2;" horiz-adv-x="1086" d="M470 628l-472 885h152l393 -736l393 736h152l-472 -885v-628h-146v628zM345 1947h163l232 -291h-107z" />
<glyph unicode="&#x1ef3;" horiz-adv-x="814" d="M146 -259q63 0 103 8t66 36.5t43.5 78.5t36.5 136h-60l-312 1065h132l271 -931h4l228 931h134l-286 -1176q-36 -140 -102.5 -211t-194.5 -71q-17 0 -34.5 2t-28.5 6v126zM209 1477h163l232 -291h-107z" />
<glyph unicode="&#x1ef4;" horiz-adv-x="1086" d="M470 628l-472 885h152l393 -736l393 736h152l-472 -885v-628h-146v628zM464 -219h156v-201h-156v201z" />
<glyph unicode="&#x1ef5;" horiz-adv-x="814" d="M146 -259q63 0 103 8t66 36.5t43.5 78.5t36.5 136h-60l-312 1065h132l271 -931h4l228 931h134l-286 -1176q-36 -140 -102.5 -211t-194.5 -71q-17 0 -34.5 2t-28.5 6v126zM574 -219h157v-201h-157v201z" />
<glyph unicode="&#x1ef6;" horiz-adv-x="1086" d="M470 628l-472 885h152l393 -736l393 736h152l-472 -885v-628h-146v628zM464 1834h-103v34q0 52 12 82.5t34.5 45.5t57 19.5t83.5 4.5q94 0 141.5 -29.5t47.5 -122.5q0 -72 -15.5 -110t-86.5 -62q-25 -8 -37 -14.5t-17 -13.5t-5 -17.5v-27.5v-21h-106v21q0 71 30 107 t92 48q26 10 31 24t5 66q0 35 -23 43.5t-57 8.5q-61 0 -72.5 -11.5t-11.5 -40.5v-34z" />
<glyph unicode="&#x1ef7;" horiz-adv-x="814" d="M146 -259q63 0 103 8t66 36.5t43.5 78.5t36.5 136h-60l-312 1065h132l271 -931h4l228 931h134l-286 -1176q-36 -140 -102.5 -211t-194.5 -71q-17 0 -34.5 2t-28.5 6v126zM367 1364h-102v33q0 52 12 83t35 46t57 19.5t82 4.5q95 0 143 -29.5t48 -123.5q0 -71 -16 -109 t-87 -62q-25 -8 -36.5 -14t-17 -14t-5.5 -18v-27v-21h-106v21q0 71 30.5 106.5t90.5 48.5q27 10 32 23.5t5 65.5q0 36 -22.5 44t-58.5 8q-60 0 -72 -11t-12 -41v-33z" />
<glyph unicode="&#x1ef8;" horiz-adv-x="1086" d="M470 628l-472 885h152l393 -736l393 736h152l-472 -885v-628h-146v628zM881 1895q-4 -36 -17 -72.5t-37.5 -64.5t-57 -46t-71.5 -18q-38 0 -78 15t-77 33q-37 19 -72.5 32.5t-65.5 13.5q-44 0 -65 -32t-27 -74h-83q2 38 16.5 73t38.5 64t56.5 47t72.5 18q39 0 77.5 -13.5 t76.5 -32.5q38 -18 73.5 -33t64.5 -15q44 0 65 32.5t27 72.5h83z" />
<glyph unicode="&#x1ef9;" horiz-adv-x="814" d="M146 -259q63 0 103 8t66 36.5t43.5 78.5t36.5 136h-60l-312 1065h132l271 -931h4l228 931h134l-286 -1176q-36 -140 -102.5 -211t-194.5 -71q-17 0 -34.5 2t-28.5 6v126zM733 1425q-4 -36 -17.5 -72.5t-37.5 -64.5t-56 -46t-72 -18q-38 0 -78 15t-77 33q-38 19 -73 32.5 t-65 13.5q-44 0 -65 -32t-27 -74h-83q2 38 16.5 73t38.5 64.5t56 47t72 17.5t78.5 -13.5t76.5 -32.5t73 -33.5t65 -14.5q44 0 65 32.5t27 72.5h83z" />
<glyph unicode="&#x2000;" horiz-adv-x="1176" />
<glyph unicode="&#x2001;" horiz-adv-x="2352" />
<glyph unicode="&#x2002;" horiz-adv-x="1176" />
<glyph unicode="&#x2003;" horiz-adv-x="2352" />
<glyph unicode="&#x2004;" horiz-adv-x="784" />
<glyph unicode="&#x2005;" horiz-adv-x="588" />
<glyph unicode="&#x2006;" horiz-adv-x="392" />
<glyph unicode="&#x2007;" horiz-adv-x="392" />
<glyph unicode="&#x2008;" horiz-adv-x="294" />
<glyph unicode="&#x2009;" horiz-adv-x="470" />
<glyph unicode="&#x200a;" horiz-adv-x="130" />
<glyph unicode="&#x2010;" horiz-adv-x="618" d="M80 614h459v-121h-459v121z" />
<glyph unicode="&#x2011;" horiz-adv-x="618" d="M80 614h459v-121h-459v121z" />
<glyph unicode="&#x2012;" horiz-adv-x="618" d="M80 614h459v-121h-459v121z" />
<glyph unicode="&#x2013;" horiz-adv-x="1044" d="M0 614h1044v-121h-1044v121z" />
<glyph unicode="&#x2014;" horiz-adv-x="2088" d="M0 614h2089v-121h-2089v121z" />
<glyph unicode="&#x2018;" horiz-adv-x="350" d="M102 1322q0 67 9.5 105t28.5 56.5t46 24t63 5.5v-84q-17 0 -28.5 -4t-20 -19t-11.5 -43t-3 -76h63v-193h-147v228z" />
<glyph unicode="&#x2019;" horiz-adv-x="350" d="M249 1285q0 -67 -9.5 -105t-28.5 -56.5t-46 -24t-63 -5.5v84q17 0 28.5 4t20 19t11.5 43t3 76h-63v193h147v-228z" />
<glyph unicode="&#x201c;" horiz-adv-x="618" d="M369 1322q0 67 10 105t28.5 56.5t45.5 24t63 5.5v-84q-17 0 -28.5 -4t-19.5 -19t-11.5 -43t-3.5 -76h63v-193h-147v228zM102 1322q0 67 9.5 105t28.5 56.5t46 24t63 5.5v-84q-17 0 -28.5 -4t-20 -19t-11.5 -43t-3 -76h63v-193h-147v228z" />
<glyph unicode="&#x201d;" horiz-adv-x="618" d="M249 1285q0 -67 -9.5 -105t-29.5 -56.5t-48 -24t-66 -5.5v84q19 0 32.5 4t21 19t11.5 43t4 76h-63v193h147v-228zM516 1285q0 -67 -9.5 -105t-29 -56.5t-48 -24t-66.5 -5.5v84q19 0 32.5 4t21 19t11.5 43t4 76h-63v193h147v-228z" />
<glyph unicode="&#x2026;" horiz-adv-x="2088" d="M275 192h147v-192h-147v192zM971 192h147v-192h-147v192zM1667 192h147v-192h-147v192z" />
<glyph unicode="&#x202f;" horiz-adv-x="470" />
<glyph unicode="&#x205f;" horiz-adv-x="588" />
<glyph unicode="&#xe000;" horiz-adv-x="1065" d="M0 1066h1066v-1066h-1066v1066z" />
</font>
</defs>
</svg>
