<?xml version="1.0" standalone="no"?>
<!DOCTYPE svg PUBLIC "-//W3C//DTD SVG 1.1//EN" "http://www.w3.org/Graphics/SVG/1.1/DTD/svg11.dtd" >
<svg xmlns="http://www.w3.org/2000/svg">
<metadata></metadata>
<defs>
<font id="_.bold_italic" horiz-adv-x="1437" >
<font-face units-per-em="2048" ascent="1638" descent="-410" />
<missing-glyph horiz-adv-x="499" />
<glyph horiz-adv-x="0" />
<glyph unicode="&#xd;" horiz-adv-x="462" />
<glyph horiz-adv-x="2027" />
<glyph horiz-adv-x="2027" />
<glyph unicode=" "  horiz-adv-x="499" />
<glyph unicode="&#x09;" horiz-adv-x="499" />
<glyph unicode="&#xa0;" horiz-adv-x="499" />
<glyph unicode="!" horiz-adv-x="626" d="M440 0h-256l60 278h255zM547 509h-255l199 1012h287z" />
<glyph unicode="&#x22;" horiz-adv-x="961" d="M704 1521l-56 -264l-141 -261h-110l-28 261l55 264h280zM1182 1521l-54 -264l-143 -261h-109l-29 261l55 264h280z" />
<glyph unicode="#" horiz-adv-x="1429" d="M1087 1521l-168 -426h220l169 426h186l-168 -426h181l-52 -234h-217l-104 -269h208l-48 -234h-257l-145 -358h-188l143 358h-220l-145 -358h-188l144 358h-202l48 234h248l105 269h-213l50 234h256l168 426h189zM720 592h222l110 269h-226z" />
<glyph unicode="$" horiz-adv-x="1429" d="M842 227q93 0 155.5 9.5t102 34.5t62 70.5t38.5 116.5q15 72 2.5 110t-49 56.5t-93 21t-129.5 4.5zM981 890q134 -6 239.5 -18.5t173.5 -54t91.5 -125.5t-9.5 -234q-31 -139 -84.5 -230.5t-136.5 -144t-198 -74t-266 -21.5l-35 -158h-162l35 158q-189 0 -296.5 32 t-156 92t-50.5 143.5t20 184.5l12 55h256l-12 -55q-17 -75 -10 -117.5t40.5 -63.5t94.5 -26.5t152 -5.5l89 423q-133 13 -235.5 30.5t-166.5 60t-84.5 122t10.5 220.5q31 150 86.5 239t137.5 136t191.5 61t249.5 14l30 148h162l-30 -148q118 -4 214.5 -13t159 -47.5t85 -117 t-8.5 -217.5l-10 -51h-255l10 51q8 54 0 84.5t-37.5 45.5t-81.5 19.5t-127 6.5zM906 1294q-83 -2 -139.5 -6.5t-95 -24t-63 -62t-41.5 -118.5q-14 -67 -1.5 -105t45.5 -56t87 -23t121 -9z" />
<glyph unicode="%" horiz-adv-x="1834" d="M1847 263q-22 -91 -52.5 -146t-77 -83t-112 -37t-152.5 -9q-89 0 -147.5 8t-91 37t-38.5 83t10 145l49 223q20 92 49.5 146.5t74 83t106.5 37.5t151 9t150 -8t95.5 -37.5t42.5 -83t-10 -144.5zM1720 474q10 49 9 76.5t-16.5 39.5t-47 14t-82.5 2q-47 0 -77 -2t-48.5 -14 t-30 -39.5t-22.5 -76.5l-41 -188q-12 -52 -12 -82t13.5 -44t42.5 -16t76 -2t79.5 2t53.5 16t35 44t27 82zM925 1037q-23 -93 -53 -147t-77 -83t-111.5 -38t-151.5 -9q-90 0 -148.5 8t-91.5 38t-38.5 83t9.5 145l49 223q21 91 50 146t73.5 83.5t106.5 37.5t151 9 q90 0 150.5 -8t95 -37.5t42.5 -83.5t-10 -145zM797 1247q10 49 9 76t-16.5 39.5t-46.5 14.5t-82 2q-46 0 -77 -2t-49 -14.5t-30 -39.5t-23 -76l-40 -189q-12 -52 -12 -82t13 -43.5t42.5 -15.5t75.5 -2q47 0 79.5 2t54 15.5t35.5 43.5t26 82zM538 0h-190l1285 1521h192z" />
<glyph unicode="&#x26;" horiz-adv-x="1583" d="M720 741q-65 -11 -103.5 -31.5t-61.5 -53.5t-36.5 -81t-27.5 -113q-19 -91 -9.5 -138.5t47.5 -68.5t105.5 -24.5t162.5 -3.5q54 0 100.5 1t87.5 10.5t75.5 27.5t67.5 53zM1281 156q-48 -61 -109 -95t-131 -50.5t-145 -19.5t-150 -3q-146 0 -260.5 12t-185.5 60t-94.5 143 t11.5 259q19 85 44 157t67.5 127t107.5 88.5t160 41.5q-31 33 -50 60t-27 57.5t-6 66t12 85.5q26 128 74.5 204.5t120 117t164.5 53.5t213 13q143 0 231 -17.5t129 -68t41 -144.5t-32 -247h-249q16 78 20.5 124.5t-11 71.5t-58 33.5t-122.5 8.5q-52 0 -92.5 -3.5 t-71.5 -17.5t-51 -44.5t-32 -85.5q-14 -67 0 -103t54 -77l394 -419l43 204h248l-19 -104q-16 -70 -35.5 -144t-55.5 -142l176 -190l-174 -168z" />
<glyph unicode="'" horiz-adv-x="482" d="M704 1521l-56 -264l-141 -261h-110l-28 261l55 264h280z" />
<glyph unicode="(" horiz-adv-x="705" d="M530 -304q-172 0 -259 34t-117 111.5t-15 200t54 299.5l113 535q37 163 70.5 285t95.5 205t166 125t283 42l-51 -239q-71 0 -113.5 -16.5t-70 -49t-42.5 -81t-27 -110.5l-181 -844q-10 -49 -16 -96t5 -82t46.5 -57.5t108.5 -22.5z" />
<glyph unicode=")" horiz-adv-x="705" d="M438 1533q170 0 257.5 -34.5t117.5 -111.5t14 -200t-53 -299l-113 -536q-36 -161 -70 -283.5t-95.5 -206t-166 -125t-282.5 -41.5l50 239q69 0 112.5 16t71 49t43 81.5t26.5 111.5l182 844q10 48 15.5 94.5t-5 82t-46.5 58t-109 22.5z" />
<glyph unicode="*" horiz-adv-x="1429" d="M1072 1081l116 -236l-140 -91l-115 244l-235 -244l-102 91l219 236l-254 103l83 144l256 -99l61 292h152l-61 -292l298 99l18 -154z" />
<glyph unicode="+" horiz-adv-x="1184" d="M917 1064l-85 -393h393l-41 -195h-393l-83 -393h-195l83 393h-393l41 195h393l85 393h195z" />
<glyph unicode="," horiz-adv-x="713" d="M152 -136q57 0 94.5 25.5t55.5 110.5h-101l58 273h256l-51 -238q-14 -66 -30 -119.5t-47 -92t-80.5 -58.5t-130.5 -20h-50z" />
<glyph unicode="-" horiz-adv-x="539" d="M679 657l-42 -195h-540l43 195h539z" />
<glyph unicode="." horiz-adv-x="713" d="M436 0h-256l60 278h255z" />
<glyph unicode="/" horiz-adv-x="1383" d="M168 -229h-226l1544 1750h230z" />
<glyph unicode="0" horiz-adv-x="1429" d="M1042 1533q171 0 285 -23.5t175 -91.5t68 -193.5t-36 -328.5l-58 -275q-42 -205 -103 -329t-150 -191.5t-214 -90t-295 -22.5t-286 22.5t-176.5 90t-68 191.5t35.5 329l59 279q41 191 92.5 313.5t135.5 193.5t212.5 98.5t323.5 27.5zM764 227q106 0 176 7.5t116.5 38.5 t76 96t53.5 182l87 416q25 116 24 182t-33.5 98t-99.5 39.5t-173 7.5q-107 0 -177 -7.5t-117 -39.5t-76 -98t-54 -182l-87 -416q-24 -117 -23 -182t33.5 -96t99.5 -38.5t174 -7.5z" />
<glyph unicode="1" horiz-adv-x="1429" d="M998 0h-276l272 1277l-481 -395l-128 180l584 459h351z" />
<glyph unicode="2" horiz-adv-x="1429" d="M1271 0h-1145l60 290q31 146 78.5 230t119.5 132t170 69t231 41q117 21 192 32t121.5 36t74 78t50.5 156q15 75 11.5 121t-31 70t-80.5 31.5t-134 7.5q-99 0 -161 -5.5t-102.5 -34.5t-65.5 -93t-50 -182h-275q30 140 65.5 243.5t108.5 172.5t198 103.5t333 34.5 q134 0 234.5 -17.5t161 -67t78 -141.5t-15.5 -243q-32 -149 -77.5 -239.5t-116.5 -143t-174.5 -79t-249.5 -51.5q-108 -15 -179.5 -26.5t-118 -35t-74.5 -69t-46 -130.5l-10 -50h870z" />
<glyph unicode="3" horiz-adv-x="1429" d="M505 513q-23 -105 -24 -163t26 -85t84 -32.5t153 -5.5q94 0 157.5 4.5t106 23t68 62.5t41.5 123q13 61 14 103.5t-16.5 70t-54 39.5t-97.5 12h-221l47 221h221q56 0 93.5 13.5t64 42.5t43 76.5t29.5 117.5q13 54 5 85.5t-38.5 47.5t-88.5 20.5t-147 4.5q-95 0 -153 -8.5 t-93.5 -34.5t-56 -79t-37.5 -140h-277q35 164 87 262.5t130.5 152.5t188.5 70t262 16q108 0 210.5 -6t176 -44t106 -119t2.5 -228q-14 -68 -35.5 -130t-58 -109.5t-89.5 -77.5t-132 -39l-2 -8q77 -6 122.5 -30t67 -66.5t20.5 -101.5t-17 -134q-35 -158 -94 -248.5t-145 -136 t-200 -56.5t-261 -11q-144 0 -249 11t-166 63t-75.5 157.5t26.5 293.5h276z" />
<glyph unicode="4" horiz-adv-x="1429" d="M1279 545h179l-47 -220h-178l-69 -325h-276l69 325h-827l67 318l859 878h430zM1166 1310h-9l-749 -765h596z" />
<glyph unicode="5" horiz-adv-x="1429" d="M625 925h4q34 42 81.5 67.5t100 38.5t106.5 16t99 3q148 0 238 -28t133 -92.5t44 -164.5t-30 -242q-39 -178 -92.5 -283.5t-135.5 -161t-202 -73t-288 -17.5q-139 0 -238 15t-155 62t-71.5 136t12.5 237h276q-16 -80 -5 -122.5t44.5 -62t87 -23t122.5 -3.5q99 0 161 8.5 t101.5 37.5t62 87t43.5 157q19 98 21 156.5t-23 89t-83 39.5t-157 9q-54 0 -103 -2t-88 -11t-67 -29.5t-46 -58.5h-255l172 811h1060l-46 -221h-805z" />
<glyph unicode="6" horiz-adv-x="1429" d="M849 689q-83 0 -141 -3t-98.5 -20.5t-64.5 -55.5t-38 -109q-20 -91 -22.5 -145t23.5 -82t84 -37.5t160 -9.5q95 0 155 4.5t98.5 26.5t61 70.5t40.5 137.5q19 81 14.5 127t-34 67t-88.5 25t-150 4zM341 1024q36 160 91 259.5t137.5 155t195.5 75t265 19.5q129 0 232.5 -9 t169.5 -51.5t86 -130t-13 -245.5h-276q13 73 6.5 112.5t-37 57.5t-85.5 22.5t-134 4.5q-97 0 -158 -6.5t-99.5 -33.5t-61.5 -82t-43 -150l-52 -239h4q29 49 69.5 77t89 43.5t102.5 20.5t109 5q152 0 252.5 -14.5t154 -61t63 -133.5t-21.5 -233q-33 -156 -82.5 -253.5 t-129.5 -152t-195 -74t-278 -19.5q-170 0 -278 20.5t-160.5 82t-54.5 179t39 312.5z" />
<glyph unicode="7" horiz-adv-x="1429" d="M1523 1240l-884 -1240h-314l926 1271h-849l52 250h1127z" />
<glyph unicode="8" horiz-adv-x="1429" d="M857 667q-107 0 -171.5 -9.5t-103 -33.5t-57 -66.5t-32.5 -109.5q-17 -71 -16 -114.5t30 -66.5t90.5 -31.5t166.5 -8.5q106 0 171 9.5t103 33.5t57.5 67.5t34.5 110.5q13 73 13 115.5t-28 65.5t-90 30.5t-168 7.5zM714 -12q-83 0 -158.5 3t-138.5 17.5t-111.5 42.5 t-75.5 79.5t-32 129t19 188.5q14 63 36.5 119t61.5 100.5t98 73.5t144 39l2 9q-72 16 -114.5 43t-61 68.5t-16.5 97.5t18 130q29 133 85.5 213.5t138.5 123t191 55.5t242 13q107 0 208.5 -3t173.5 -40t103.5 -120t-2.5 -242q-16 -72 -35.5 -128t-54 -98.5t-86 -70.5 t-130.5 -42l-2 -9q141 -22 180 -106t8 -226q-35 -160 -92.5 -251.5t-141.5 -138t-198 -58.5t-259 -12zM904 888q79 0 136 2t96.5 23.5t66 71t46.5 143.5q14 62 6 96.5t-40.5 50t-87.5 17.5t-136 2q-91 0 -149.5 -4.5t-95 -21.5t-55 -50.5t-30.5 -89.5q-18 -89 -13.5 -138.5 t35.5 -71.5t87 -26t134 -4z" />
<glyph unicode="9" horiz-adv-x="1429" d="M987 1294q-99 0 -161 -7.5t-98.5 -31.5t-57 -71.5t-35.5 -129.5q-16 -75 -16 -118.5t27 -67t85 -29t157 -5.5t162 5.5t102.5 28t62 66t38.5 120.5q18 85 11 133t-40.5 72t-92.5 29.5t-144 5.5zM489 426q-17 -76 -9.5 -116.5t38.5 -58t91 -21t151 -3.5q89 0 151 5.5 t103.5 29.5t69 77.5t48.5 151.5l54 251h-4q-35 -47 -76.5 -75t-92 -44.5t-110.5 -22.5t-133 -6q-122 0 -214 14.5t-147 62t-69.5 138.5t18.5 245q31 142 75.5 234.5t121 147t192.5 76t292 21.5q188 0 297 -27.5t158 -100t44 -199.5t-48 -324l-93 -440q-31 -144 -90.5 -233 t-146 -137.5t-200 -66t-250.5 -17.5q-126 0 -231.5 8t-176.5 49.5t-97.5 129.5t8.5 251h276z" />
<glyph unicode=":" horiz-adv-x="713" d="M436 0h-256l60 278h255zM602 787h-256l62 277h255z" />
<glyph unicode=";" horiz-adv-x="713" d="M152 -136q57 0 94.5 25.5t55.5 110.5h-101l58 273h256l-51 -238q-14 -66 -30 -119.5t-47 -92t-80.5 -58.5t-130.5 -20h-50zM623 787h-256l61 277h255z" />
<glyph unicode="&#x3c;" horiz-adv-x="1184" d="M240 644l1070 420l-45 -203l-766 -287l644 -288l-42 -203l-892 420z" />
<glyph unicode="=" horiz-adv-x="1184" d="M286 870h981l-40 -195h-981zM203 474h981l-43 -194h-981z" />
<glyph unicode="&#x3e;" horiz-adv-x="1184" d="M1190 503l-1070 -420l42 203l767 288l-645 287l45 203l892 -420z" />
<glyph unicode="?" horiz-adv-x="1206" d="M513 484l6 35q19 81 38 134t50.5 89t81 64t128.5 57q57 23 100.5 39.5t76 39.5t53.5 60t36 101q14 73 13 115.5t-23.5 65t-66 28.5t-112.5 6q-79 0 -130.5 -7t-84.5 -28.5t-51 -62t-30 -107.5l-12 -55h-255l12 55q28 131 71.5 213.5t113.5 128.5t172.5 61t247.5 15 q112 0 198.5 -14t139 -60t67.5 -130.5t-15 -223.5q-18 -83 -40.5 -143t-61 -104.5t-99.5 -79t-154 -70.5q-44 -17 -77.5 -30t-60 -31t-43.5 -48t-28 -78l-6 -35h-255zM665 0h-255l58 278h256z" />
<glyph unicode="@" horiz-adv-x="1977" d="M1656 1117l-257 -529q-18 -46 -6 -76t69 -30t114 41.5t102.5 100.5t76.5 123t42 108q20 93 -4.5 185t-85.5 163.5t-154 115t-215 43.5q-152 0 -289.5 -62.5t-245.5 -159t-181 -211t-95 -219.5q-26 -122 3 -223.5t98.5 -174t170.5 -113.5t223 -41q83 0 177.5 13t181.5 48 l28 -152q-97 -47 -211.5 -63t-212.5 -16q-143 0 -278 43.5t-231.5 130.5t-141 215t-7.5 298q34 167 135 321.5t244 273.5t316.5 191t352.5 72q142 0 266.5 -48.5t209.5 -137t122 -212t6 -272.5q-21 -93 -72.5 -188t-126.5 -173t-169 -126.5t-198 -48.5q-77 0 -118.5 26 t-65.5 92q-103 -72 -166 -95t-121 -23q-62 0 -109.5 25t-78 67.5t-41.5 97.5t1 116q18 85 75.5 176t137 166t172.5 122.5t184 47.5q59 0 107.5 -37.5t56.5 -93.5h4l47 103h158zM1221 989q-31 0 -75.5 -20.5t-90 -60.5t-84 -101t-54.5 -142q-17 -77 1.5 -130t101.5 -53 q63 0 117.5 37.5t97 94.5t72 120t39.5 115q16 72 -19 106t-106 34z" />
<glyph unicode="A" d="M452 288l-156 -288h-302l827 1521h430l192 -1521h-296l-38 288h-657zM998 1298h-4l-429 -789h526z" />
<glyph unicode="B" horiz-adv-x="1451" d="M474 249h400q65 0 115 5t86 24.5t59 59t40 110.5q12 63 13 104.5t-16.5 66t-56 34.5t-102.5 10h-449zM130 0l322 1521h757q111 0 192 -15.5t127.5 -58t59 -119.5t-14.5 -202q-14 -66 -33 -120.5t-52 -97.5t-81.5 -73t-121.5 -46l-2 -9q77 -10 120.5 -39t61 -75.5 t14.5 -107.5t-19 -134q-26 -126 -70 -208t-109.5 -129.5t-157 -67t-210.5 -19.5h-783zM610 884h420q61 0 102.5 10t69 35.5t44.5 66.5t29 101t7 95t-26 53t-60 22t-93 4h-412z" />
<glyph unicode="C" horiz-adv-x="1410" d="M1251 1012l18 83q14 67 7 104.5t-39 55.5t-94 23t-158 5q-109 0 -180 -12t-116.5 -49.5t-72 -105.5t-51.5 -179l-70 -337q-25 -113 -29 -184t23.5 -111t92 -53.5t180.5 -13.5q87 0 153 5t112.5 26t76.5 66.5t45 126.5l19 83h292l-21 -99q-34 -173 -99 -263t-158 -131.5 t-212 -49.5t-260 -14q-203 -8 -321 22.5t-170.5 103t-52.5 190.5t35 284l72 349q39 182 101 297.5t153.5 182.5t217 91.5t294.5 24.5q141 0 250.5 -7t178 -48.5t94.5 -130t-1 -252.5l-18 -83h-292z" />
<glyph unicode="D" horiz-adv-x="1528" d="M448 1521h726q159 0 265 -30.5t164.5 -97.5t70 -175.5t-21.5 -262.5l-77 -359q-24 -120 -68.5 -227.5t-121.5 -189.5t-195 -130.5t-290 -48.5h-774zM953 249q73 0 129.5 30.5t96.5 79.5t66 111t38 126l77 359q21 95 18 156t-32.5 96t-85 49.5t-138.5 14.5h-435 l-217 -1022h483z" />
<glyph unicode="E" horiz-adv-x="1255" d="M596 892h712l-53 -240h-711l-86 -403h757l-53 -249h-1048l322 1521h1042l-52 -250h-751z" />
<glyph unicode="F" horiz-adv-x="1180" d="M594 868h677l-50 -239h-677l-134 -629h-292l322 1521h1005l-52 -250h-714z" />
<glyph unicode="G" horiz-adv-x="1474" d="M1565 807l-58 -275q-37 -169 -86 -275.5t-132.5 -166t-216.5 -81t-336 -21.5q-183 0 -305.5 21.5t-188.5 85t-77 182t30 311.5l72 349q41 191 104 307t158.5 180t227 86.5t307.5 22.5q93 0 178.5 -1t155.5 -12t124.5 -39t84 -80.5t33.5 -134.5t-24 -204h-290q18 83 7 129 t-51 66t-107.5 23t-162.5 3q-128 0 -205 -13t-123.5 -50.5t-73 -105.5t-51.5 -177l-72 -349q-25 -120 -26 -189.5t30.5 -105.5t103.5 -45.5t194 -9.5q103 0 174 5t120 33t79 88t53 168l10 54h-383l48 221h675z" />
<glyph unicode="H" horiz-adv-x="1559" d="M1426 0h-292l137 648h-708l-137 -648h-292l322 1521h292l-131 -623h707l131 623h292z" />
<glyph unicode="I" horiz-adv-x="559" d="M426 0h-292l322 1521h292z" />
<glyph unicode="J" horiz-adv-x="1182" d="M1385 1521l-223 -1053q-32 -149 -80 -242.5t-119 -146t-168 -72t-228 -19.5q-115 0 -207.5 11t-150 51.5t-76.5 118t9 208.5l44 219h280l-21 -114q-17 -74 -23 -122t9 -75.5t60 -37t130 -9.5q64 0 105.5 9.5t69 35t43.5 70t31 115.5l223 1053h292z" />
<glyph unicode="K" horiz-adv-x="1449" d="M617 900h135l639 621h358l-772 -743l513 -778h-368l-422 650h-137l-137 -650h-292l322 1521h292z" />
<glyph unicode="L" horiz-adv-x="1145" d="M478 249h710l-52 -249h-1002l322 1521h292z" />
<glyph unicode="M" horiz-adv-x="2041" d="M1151 0h-261l-211 1275h-6l-247 -1275h-292l322 1521h469l174 -1130h8l644 1130h479l-322 -1521h-292l296 1281h-10z" />
<glyph unicode="N" horiz-adv-x="1677" d="M1573 1521h292l-322 -1521h-485l-377 1271h-10l-245 -1271h-292l322 1521h483l381 -1272h8z" />
<glyph unicode="O" horiz-adv-x="1449" d="M1048 1533q165 0 282 -18.5t186.5 -76t84.5 -168.5t-24 -293l-85 -410q-39 -182 -99 -295.5t-153 -176t-220.5 -85t-299.5 -22.5q-176 0 -295 20.5t-182 82t-73 176t31 300.5l85 410q39 176 94.5 285.5t143.5 169.5t216 80.5t308 20.5zM996 1283q-118 0 -190 -14 t-116 -48.5t-67 -93.5t-45 -150l-85 -410q-25 -113 -25 -178.5t31 -99.5t97.5 -42.5t175.5 -8.5q100 0 171 9.5t119.5 44.5t81 100.5t56.5 174.5l85 410q25 108 20 169t-41.5 91t-103.5 38t-164 8z" />
<glyph unicode="P" horiz-adv-x="1390" d="M436 1521h673q152 0 251.5 -22.5t151 -80.5t56.5 -159.5t-28 -260.5q-33 -162 -83 -260.5t-126 -153t-183.5 -73t-255.5 -18.5h-381l-105 -493h-292zM944 742q80 2 131 12t83 37.5t52.5 77.5t38.5 129q16 81 19 133.5t-17 84t-66.5 43.5t-128.5 12h-381l-112 -529h381z " />
<glyph unicode="Q" horiz-adv-x="1553" d="M1458 33l-110 99q-67 -55 -139.5 -84.5t-148 -42.5t-148 -15t-138.5 -2q-176 0 -297 20.5t-187.5 81t-81.5 175t19 302.5l85 410q38 178 103 286.5t161.5 168.5t227.5 80.5t299 20.5q134 0 253.5 -11t200.5 -65t111.5 -166.5t-12.5 -313.5l-85 -410q-2 -10 -9 -40 t-18 -69.5t-26 -81t-32 -72.5l126 -99zM1255 493q12 54 27.5 108t25.5 109l56 267q23 104 17 164.5t-42.5 92t-108 40.5t-180.5 9q-97 0 -170 -7t-126.5 -37t-89 -92t-60.5 -170l-85 -410q-24 -117 -21 -184t39.5 -99.5t107.5 -39t183 -6.5q81 0 161.5 5.5t151.5 56.5 l-320 242l156 172z" />
<glyph unicode="R" horiz-adv-x="1464" d="M523 503l-107 -503h-292l322 1521h777q123 -4 206.5 -26.5t128 -75.5t50.5 -139t-20 -216q-19 -85 -40 -156.5t-60 -126.5t-100.5 -93t-160.5 -51l-2 -8q75 -6 119.5 -31.5t65 -68t18.5 -103.5t-19 -142l-61 -284h-292l61 284q21 97 -10 157t-136 62h-448zM961 752 q81 0 134.5 10t90.5 39t59 81.5t40 135.5q17 81 18 130.5t-20.5 77t-67 36.5t-124.5 9h-406l-109 -519h385z" />
<glyph unicode="S" horiz-adv-x="1364" d="M462 484l-16 -70q-14 -66 -6 -103.5t43.5 -55t101 -23t167.5 -5.5q99 0 161 10.5t99.5 36.5t56 68.5t32.5 109.5q18 82 5 121t-52.5 55t-103.5 18t-149 6q-81 7 -155 11t-137 17t-111 39.5t-75 75t-32 122.5t19 186q33 156 97.5 243.5t158 129t210 49.5t254.5 8 q115 0 216.5 -8t169.5 -48t95 -122t-4 -231l-11 -50h-291l10 50q12 60 6 94.5t-35 51.5t-79.5 20.5t-127.5 3.5q-109 0 -176 -7.5t-107.5 -28t-60.5 -57.5t-33 -98q-16 -71 -13 -109.5t33 -58.5t95.5 -28.5t174.5 -14.5q172 -10 285 -26.5t170.5 -60t67 -125.5t-21.5 -228 q-35 -160 -92 -252t-141 -140t-198.5 -60t-259.5 -12q-83 0 -163.5 1t-149 12t-122.5 36t-86.5 72t-40.5 121t14 184l16 70h292z" />
<glyph unicode="T" horiz-adv-x="1189" d="M742 0h-292l270 1271h-447l54 250h1184l-53 -250h-446z" />
<glyph unicode="U" horiz-adv-x="1528" d="M1720 1521l-230 -1081q-35 -158 -100.5 -249.5t-159.5 -136t-213 -55.5t-257 -11q-133 0 -247 11t-189 55.5t-104 135t5 250.5l229 1081h292l-229 -1081q-12 -59 -7 -97.5t37.5 -62t96.5 -33t169 -9.5q102 0 169.5 7.5t111.5 31t68 63t36 100.5l230 1081h292z" />
<glyph unicode="V" horiz-adv-x="1372" d="M1718 1521l-814 -1521h-440l-164 1521h298l136 -1277h7l675 1277h302z" />
<glyph unicode="W" horiz-adv-x="2256" d="M2293 1521h294l-732 -1521h-421l-57 1159h-9l-561 -1159h-418l-73 1521h292l44 -1281h9l620 1281h337l69 -1281h6z" />
<glyph unicode="X" horiz-adv-x="1404" d="M1107 785l321 -785h-337l-248 643l-520 -643h-346l667 785l-307 736h340l225 -604l479 604h335z" />
<glyph unicode="Y" horiz-adv-x="1358" d="M942 584l-123 -584h-292l123 584l-350 937h333l222 -649h6l505 649h337z" />
<glyph unicode="Z" horiz-adv-x="1313" d="M1523 1271l-1057 -1016l-2 -6h852l-53 -249h-1213l53 248l1050 1015l2 8h-799l54 250h1165z" />
<glyph unicode="[" horiz-adv-x="705" d="M917 1533l-47 -221h-195l-298 -1395h195l-47 -221h-471l392 1837h471z" />
<glyph unicode="\" horiz-adv-x="563" d="M221 1521h229l167 -1750h-228z" />
<glyph unicode="]" horiz-adv-x="705" d="M50 -304l47 221h195l298 1395h-195l47 221h471l-392 -1837h-471z" />
<glyph unicode="^" horiz-adv-x="1184" d="M985 1521l211 -983h-202l-137 706l-439 -706h-203l628 983h142z" />
<glyph unicode="_" horiz-adv-x="1013" d="M959 -253h-1013l21 101h1014z" />
<glyph unicode="`" horiz-adv-x="752" d="M870 1271l-77 -105l-357 174l127 167z" />
<glyph unicode="a" horiz-adv-x="1193" d="M677 478q-48 0 -90.5 -2t-78.5 -16t-60 -45.5t-36 -87.5q-13 -58 -7.5 -90t29.5 -49.5t67.5 -21.5t108.5 -4q51 0 94.5 4t79 21.5t60 49.5t36.5 90q12 54 0 86t-41.5 45.5t-72 16.5t-89.5 3zM849 134h-6q-30 -53 -72.5 -82t-91 -43.5t-99 -17.5t-98.5 -3q-91 0 -162 12 t-114.5 48.5t-57.5 103.5t8 175q20 95 58.5 157.5t96.5 100.5t135 52.5t177 14.5q48 0 94.5 -2t86 -13.5t69 -36t44.5 -68.5h8l28 137q14 65 18 109.5t-13.5 72t-60 39.5t-121.5 12q-42 0 -79.5 -4t-68 -18.5t-52 -44.5t-32.5 -81h-256q24 116 76 181t120.5 96t153 38 t175.5 7q127 0 215.5 -14t138.5 -56.5t60 -123.5t-18 -215l-143 -667h-255z" />
<glyph unicode="b" horiz-adv-x="1204" d="M815 882q-83 0 -136.5 -18.5t-89.5 -56t-57 -98.5t-39 -146q-21 -95 -33 -165.5t1 -118.5t60.5 -72.5t145.5 -24.5q87 0 138.5 26t83.5 74.5t50 119t36 161.5q21 100 24 163t-16.5 97t-60 46.5t-107.5 12.5zM440 1521h255l-126 -598h11q30 48 70.5 78.5t87.5 46.5 t96.5 22t98.5 6q135 0 209.5 -36t101.5 -103t19 -161.5t-32 -212.5q-26 -121 -57 -226.5t-86.5 -183.5t-147 -121.5t-238.5 -43.5q-58 0 -106.5 7t-86 26.5t-64.5 53t-39 85.5h-9l-24 -160h-255z" />
<glyph unicode="c" horiz-adv-x="1116" d="M1141 406q-28 -133 -70.5 -213.5t-109.5 -126.5t-163 -62t-231 -16q-145 0 -233 24.5t-128 86t-37 166t38 267.5q31 139 68 241.5t101 170.5t165.5 100t257.5 32q118 0 206 -13t140.5 -53.5t67 -116.5t-12.5 -202h-256q13 61 11 99t-24 58t-65 27t-110 7 q-83 0 -130.5 -16.5t-77 -57t-48 -107t-38.5 -169.5q-22 -100 -33 -167t1 -107.5t52.5 -58t125.5 -17.5q79 0 125.5 8.5t76.5 33t45 68t31 114.5h255z" />
<glyph unicode="d" horiz-adv-x="1201" d="M752 882q-67 0 -112.5 -12.5t-79 -46.5t-58 -97t-44.5 -163q-18 -91 -31 -161.5t-2 -119t51.5 -74.5t127.5 -26q98 0 154.5 24.5t90 72.5t51 118.5t37.5 165.5q18 85 22 146t-14 98.5t-63.5 56t-129.5 18.5zM865 160h-8q-70 -106 -162.5 -139t-205.5 -33 q-148 0 -221 43.5t-96.5 121.5t-9.5 183.5t41 226.5q24 118 57.5 212.5t89.5 161.5t144 103t226 36q48 0 94.5 -6t86 -22t68.5 -46.5t39 -78.5h10l125 598h256l-323 -1521h-255z" />
<glyph unicode="e" horiz-adv-x="1155" d="M1143 339q-26 -126 -75.5 -196t-121.5 -104.5t-165.5 -42.5t-206.5 -8q-152 0 -242 26.5t-132 89t-39 167t36 259.5q30 141 68.5 244.5t104.5 170.5t169.5 99t265.5 32q164 0 256 -27t130 -94t30 -181.5t-45 -289.5h-731q-19 -85 -27 -143.5t7 -93t60 -50t130 -15.5 q52 0 96.5 2t80.5 16.5t60 47t36 91.5h255zM955 646q18 82 19 129.5t-20 71t-66.5 29.5t-125.5 6q-83 0 -131.5 -10.5t-78 -36.5t-44.5 -71.5t-30 -117.5h477z" />
<glyph unicode="f" horiz-adv-x="705" d="M878 870h-259l-185 -870h-256l185 870h-150l42 194h151l18 93q21 96 49 165t75.5 112.5t117.5 65t176 21.5h166l-41 -195h-77q-64 2 -102 -10t-60 -36.5t-33.5 -63t-21.5 -86.5l-12 -66h260z" />
<glyph unicode="g" horiz-adv-x="1204" d="M754 882q-67 0 -112.5 -12.5t-78.5 -46.5t-58 -97t-45 -163q-18 -91 -30 -161.5t-1 -119t51.5 -74.5t125.5 -26q96 0 153.5 24.5t91 72.5t53 118.5t38.5 165.5q19 85 23 146t-15 98.5t-65.5 56t-130.5 18.5zM863 152h-6q-36 -53 -79.5 -85t-91 -49.5t-97 -23.5t-98.5 -6 q-139 0 -211.5 36t-100 103.5t-19.5 161.5t33 212q26 122 56.5 227.5t86 183t147 121t239.5 43.5q114 0 190.5 -33t105.5 -139h8l24 160h256l-227 -1062q-31 -144 -75.5 -236.5t-115.5 -145t-173.5 -72.5t-248.5 -20q-97 0 -177 12t-130.5 49.5t-67 109.5t16.5 191h238 q-11 -54 -7 -87.5t23 -50.5t55.5 -23.5t91.5 -6.5q81 0 135 10.5t88 35.5t54.5 68.5t34.5 113.5z" />
<glyph unicode="h" horiz-adv-x="1212" d="M574 904h8q33 59 74.5 93.5t88 51.5t99 22t109.5 5q105 0 170 -22t97.5 -68t35.5 -116.5t-18 -167.5l-149 -702h-255l143 675q12 57 12 96.5t-16 63.5t-53.5 35.5t-98.5 11.5q-83 0 -137.5 -19.5t-89.5 -57t-55 -93t-34 -126.5l-124 -586h-255l322 1521h256z" />
<glyph unicode="i" horiz-adv-x="478" d="M367 0h-255l227 1064h255zM644 1304h-255l45 217h255z" />
<glyph unicode="j" horiz-adv-x="456" d="M350 -25q-15 -76 -40.5 -141t-67 -111t-102.5 -71t-148 -25q-48 0 -93 12l39 183q85 0 113 36.5t40 92.5l238 1113h255zM635 1304h-256l45 217h255z" />
<glyph unicode="k" horiz-adv-x="1092" d="M517 650h63l387 414h288l-485 -501l335 -563h-308l-253 476h-64l-101 -476h-255l322 1521h256z" />
<glyph unicode="l" horiz-adv-x="510" d="M383 0h-255l322 1521h256z" />
<glyph unicode="m" horiz-adv-x="1873" d="M602 1064l-35 -153h9q32 50 75.5 82.5t92.5 50.5t100.5 25t101.5 7q52 0 101.5 -8t89 -28t64 -58t22.5 -94h8q30 54 72.5 91t92 58t104.5 30t108 9q104 0 169.5 -18.5t100 -61.5t37.5 -111t-17 -165l-153 -720h-255l148 695q16 100 -9 143.5t-131 43.5q-76 0 -128 -17.5 t-86.5 -53t-55.5 -88t-36 -123.5l-128 -600h-255l148 695q16 100 -9 143.5t-131 43.5q-76 0 -128 -17.5t-87 -53t-56 -88t-35 -123.5l-128 -600h-255l226 1064h248z" />
<glyph unicode="n" horiz-adv-x="1212" d="M608 1064l-34 -160h8q33 59 74.5 93.5t88 51.5t99 22t109.5 5q105 0 170 -22t97.5 -68t35.5 -116.5t-18 -167.5l-149 -702h-255l143 675q12 57 12 96.5t-16 63.5t-53.5 35.5t-98.5 11.5q-83 0 -137.5 -19.5t-89.5 -57t-55 -93t-34 -126.5l-124 -586h-255l226 1064h256z " />
<glyph unicode="o" horiz-adv-x="1180" d="M819 1076q166 0 259.5 -27t132 -90t32.5 -168.5t-38 -258.5q-33 -155 -71.5 -259.5t-103.5 -167t-170.5 -90t-271.5 -27.5t-259 27.5t-132 90t-33 167t39 259.5q33 153 71 258.5t103 168.5t170 90t272 27zM776 882q-85 0 -136.5 -14.5t-85 -54t-54 -108t-44.5 -175.5 q-22 -108 -30 -175t9 -105.5t63 -53t131 -14.5t136.5 14.5t85 53t54 105.5t41.5 175q25 107 33 175.5t-9 108t-63 54t-131 14.5z" />
<glyph unicode="p" horiz-adv-x="1208" d="M671 182q67 0 113 12.5t79 47t57 96t47 163.5q18 91 30.5 162t2 120t-52 74t-128.5 25q-97 0 -155 -24t-91 -72t-50.5 -119t-38.5 -166q-18 -85 -22 -146t14.5 -98.5t65 -56t129.5 -18.5zM559 904h8q72 106 164 139t206 33q148 0 221 -43.5t96 -121t9 -183t-40 -227.5 q-25 -118 -58 -212t-89 -161.5t-145 -103.5t-225 -36q-49 0 -97 6t-87.5 22.5t-66.5 46.5t-37 79h-10l-128 -602h-255l323 1524h256z" />
<glyph unicode="q" horiz-adv-x="1210" d="M760 882q-67 0 -112.5 -12.5t-78.5 -46.5t-57.5 -97t-45.5 -163q-18 -91 -31 -161.5t-1.5 -119t51.5 -74.5t127 -26q98 0 156 24.5t91 72.5t51.5 118.5t37.5 165.5q19 85 23 146t-15 98.5t-66 56t-130 18.5zM987 -460h-255l127 602h-10q-30 -49 -71.5 -79t-87.5 -46.5 t-95.5 -22.5t-97.5 -6q-139 0 -211.5 36t-100 103.5t-19.5 161.5t33 212q26 122 56.5 227.5t86 183t147 121t239.5 43.5q114 0 191 -33t105 -139h8l24 160h256z" />
<glyph unicode="r" horiz-adv-x="955" d="M584 1064l-37 -139h10q58 89 140.5 120t176.5 31q85 0 133.5 -24t71 -68t21.5 -105.5t-17 -136.5l-19 -85h-238l12 55q7 40 10 71.5t-5.5 53.5t-32 33.5t-68.5 11.5q-113 0 -167 -61t-72 -164l-140 -657h-255l227 1064h249z" />
<glyph unicode="s" horiz-adv-x="1129" d="M937 774q9 49 3.5 74.5t-29 37.5t-61 14t-88.5 2q-50 0 -92.5 -2t-76.5 -15t-56 -41.5t-34 -81.5q-8 -40 -5 -61.5t26 -33.5t71.5 -16.5t132.5 -7.5q93 -4 178 -9t144 -36t83 -97.5t-1 -196.5q-23 -107 -76.5 -170t-128 -95.5t-166.5 -41.5t-194 -9q-109 0 -197 5 t-145 37t-77 103.5t8 201.5h256q-10 -59 -8 -92.5t23 -52t64 -23.5t113 -5q57 0 102.5 2t79 14.5t55.5 41.5t35 84q8 35 8 61t-21 44.5t-71.5 27.5t-148.5 11q-146 2 -233 16t-129.5 49.5t-47 99.5t17.5 165q22 110 72 170t122 89t161 34t193 5q79 0 159.5 -5t139.5 -34 t89 -90t5 -173h-255z" />
<glyph unicode="t" horiz-adv-x="861" d="M223 1064h133l52 242h255l-51 -242h408l-43 -194h-408l-115 -545q-6 -37 -10 -63t2 -44.5t26.5 -27t61.5 -8.5q54 0 84 19.5t47.5 52t26 72t18.5 82.5h225q-24 -122 -58 -202t-84.5 -128.5t-123.5 -69t-176 -20.5q-106 0 -173 14t-101.5 51.5t-38.5 102.5t19 167l115 547 h-134z" />
<glyph unicode="u" horiz-adv-x="1201" d="M828 0l33 164h-8q-34 -52 -75.5 -86.5t-89 -55t-100 -27.5t-108.5 -7q-78 0 -141 15t-102.5 50.5t-53 94.5t4.5 146l164 770h256l-144 -671q-12 -56 -15.5 -97t9 -66t46.5 -36.5t94 -11.5q148 0 218 64t99 204l131 614h256l-228 -1064h-246z" />
<glyph unicode="v" horiz-adv-x="995" d="M698 0h-386l-95 1064h261l60 -890h6l423 890h268z" />
<glyph unicode="w" horiz-adv-x="1613" d="M1366 0h-364l-8 855h-7l-370 -855h-371l-15 1064h251l-10 -890h6l398 890h318l15 -890h8l373 890h246z" />
<glyph unicode="x" horiz-adv-x="1013" d="M797 559l225 -559h-300l-132 389l-296 -389h-304l470 559l-203 505h292l112 -340l258 340h296z" />
<glyph unicode="y" horiz-adv-x="983" d="M710 -43q-43 -91 -83.5 -169t-96.5 -136t-131.5 -91t-187.5 -33q-29 0 -54 3t-54 5l43 193q12 -2 25 -4.5t28 -2.5q60 0 102 26.5t72.5 67t51.5 89t39 95.5h-123l-124 1064h263l77 -906h4l400 906h260z" />
<glyph unicode="z" horiz-adv-x="963" d="M383 195h574l-40 -195h-870l46 219l706 651h-523l43 194h824l-46 -213z" />
<glyph unicode="{" horiz-adv-x="789" d="M229 722q15 0 43 1t57 10t54 26t31 52l95 452q14 70 51.5 121.5t80 84t85 48.5t71.5 16h194l-43 -195h-74q-34 0 -55.5 -9t-33 -23t-17.5 -33.5t-10 -37.5l-89 -420q-12 -57 -41.5 -93.5t-65 -57t-70 -29t-58.5 -10.5v-4q22 -2 53.5 -8.5t58 -27t39.5 -61t-1 -110.5 l-89 -420q-4 -19 -6 -37.5t4 -33t23.5 -24t50.5 -9.5h76l-43 -194h-194q-29 0 -64.5 16.5t-64 48.5t-43.5 83t0 121l97 453q8 42 -7.5 64.5t-41 32.5t-53.5 11t-43 1z" />
<glyph unicode="|" horiz-adv-x="1007" d="M760 1754v-2338h-186v2338h186z" />
<glyph unicode="}" horiz-adv-x="789" d="M821 507q-16 0 -43.5 -1t-57 -10t-53.5 -27.5t-30 -50.5l-97 -453q-15 -70 -51.5 -121t-79 -83t-86 -48.5t-70.5 -16.5h-195l43 194h75q35 0 56 9.5t32.5 24t16.5 33t9 37.5l89 420q14 56 43.5 93t64 57t69 29t59.5 11l2 4q-25 2 -56 8.5t-57 26.5t-39 60.5t-1 111.5 l89 420q4 18 7 37.5t-3 33.5t-23 23t-52 9h-74l42 195h194q27 0 63.5 -16t65 -48.5t43 -84t-0.5 -121.5l-95 -452q-10 -43 6 -65t41.5 -32t52.5 -11t43 -1z" />
<glyph unicode="~" horiz-adv-x="1184" d="M1231 700q-10 -54 -39.5 -110t-70 -102t-91.5 -75.5t-103 -29.5q-35 0 -71.5 9.5t-79.5 33.5l-217 121q-23 16 -46.5 22.5t-40.5 6.5q-22 0 -39 -14.5t-30.5 -34.5t-22.5 -42.5t-15 -39.5h-168q12 58 43 115t77 102.5t103.5 73.5t123.5 28q48 0 104 -34l190 -120 q34 -22 61.5 -30t48.5 -8q29 0 49.5 13t33.5 32.5t20 41.5t11 41h169z" />
<glyph unicode="&#xa3;" horiz-adv-x="1429" d="M1103 574h-408l-18 -85q-10 -44 -19.5 -81t-26 -67.5t-45.5 -55t-73 -45.5l-2 -6l917 12l-53 -246h-1233l51 240q51 4 85 24t56 50.5t36.5 69t24.5 78.5l25 112h-199l46 221h199l53 244q30 147 76 243.5t117 152t174 77t250 21.5q133 0 234.5 -10t162.5 -52.5t78.5 -128 t-15.5 -235.5l-15 -65h-275l14 65q13 55 10.5 90.5t-25 56.5t-69 30.5t-127.5 9.5q-75 0 -126.5 -7.5t-86.5 -30.5t-57 -67t-38 -119l-59 -275h407z" />
<glyph unicode="&#xa4;" horiz-adv-x="922" />
<glyph unicode="&#xa5;" horiz-adv-x="1149" />
<glyph unicode="&#xa6;" horiz-adv-x="922" />
<glyph unicode="&#xa7;" horiz-adv-x="1429" d="M772 754q-22 6 -56.5 14t-58.5 8q-42 0 -70 -16t-46 -41.5t-29 -58.5t-19 -66q-11 -47 -8.5 -75t17.5 -46.5t45.5 -28.5t79.5 -22l292 -72q18 -4 50.5 -11.5t52.5 -7.5q36 0 62.5 16t44.5 42.5t29.5 58.5t17.5 67q8 42 9 68.5t-15.5 44.5t-51.5 31.5t-98 29.5zM399 2 q-12 -71 -15 -116.5t21.5 -72t86 -37t177.5 -10.5q101 0 165 8.5t103.5 28t59 54.5t31.5 91q11 48 8.5 76t-18.5 46.5t-45 28t-69 19.5l-474 109q-80 19 -128.5 40t-71.5 57.5t-22 93t19 145.5q11 49 24.5 96t39 86.5t64 68.5t97.5 41q-34 23 -49.5 55t-18.5 71t3 81.5 t17 88.5q28 132 80 208.5t130.5 115t185 48.5t244.5 10q126 0 225 -8t162 -46t84 -117t-8 -221l-13 -56h-263q11 68 11 110t-24 64t-77.5 28.5t-146.5 6.5q-96 0 -153.5 -6.5t-91 -22.5t-48 -43.5t-22.5 -70.5q-12 -52 -8 -82t23.5 -47.5t56 -29t91.5 -23.5l322 -77 q78 -18 139 -36t98.5 -51t49 -89.5t-9.5 -152.5q-9 -46 -24.5 -95.5t-41 -93t-61 -79.5t-83.5 -49l-2 -4q44 -17 66.5 -46.5t27.5 -69t-2 -85t-17 -93.5q-33 -157 -95 -242t-150 -124.5t-199.5 -46.5t-242.5 -7q-147 0 -253.5 11t-169 55.5t-80 133t15.5 241.5l6 33h263z " />
<glyph unicode="&#xa9;" horiz-adv-x="1601" d="M799 -12q-160 0 -288 61t-211 165.5t-113.5 245t4.5 300.5q34 161 124.5 301.5t217 245t280.5 165.5t315 61q159 0 287 -61t210 -165.5t113.5 -245t-3.5 -301.5q-34 -160 -124 -300.5t-218 -245t-281 -165.5t-313 -61zM830 134q127 0 252 48.5t228 134t177 200t103 243.5 q26 130 0.5 244.5t-92 200t-171 134t-232.5 48.5q-132 0 -256.5 -48.5t-227 -134t-176.5 -200t-100 -244.5q-29 -129 -4 -243.5t92.5 -200t171 -134t235.5 -48.5zM1324 623q-22 -72 -65.5 -127.5t-100.5 -94t-123 -58.5t-133 -20q-97 0 -169 34t-114.5 94t-56 141t6.5 174 q21 97 67.5 179.5t113.5 142t152 93.5t185 34q140 0 224 -77.5t76 -216.5h-172q4 70 -41.5 110.5t-119.5 40.5q-63 0 -114.5 -25t-91 -67.5t-67 -97t-39.5 -112.5q-12 -54 -6.5 -109t29.5 -98.5t65.5 -71t102.5 -27.5q71 0 135 43.5t83 115.5h173z" />
<glyph unicode="&#xab;" horiz-adv-x="1072" d="M754 996l-309 -439l139 -427l-187 -103l-176 530l381 536zM1168 996l-311 -439l141 -427l-185 -103l-178 530l383 536z" />
<glyph unicode="&#xad;" horiz-adv-x="539" d="M679 657l-42 -195h-540l43 195h539z" />
<glyph unicode="&#xae;" horiz-adv-x="1601" d="M799 -12q-160 0 -288 61t-211 165.5t-113.5 245t4.5 300.5q32 161 123.5 300.5t218 245t280.5 166.5t315 61q157 0 284.5 -61t211 -166.5t114 -245t-2.5 -300.5q-34 -160 -125 -300.5t-218 -245t-281 -165.5t-312 -61zM830 134q129 0 254 48.5t228.5 134t176 199 t101.5 244.5q26 130 1.5 244.5t-91 200t-171 134t-234.5 48.5q-132 0 -255.5 -48.5t-227 -134t-176.5 -200t-99 -244.5q-29 -131 -5 -244.5t91.5 -199t171 -134t235.5 -48.5zM1257 341h-189l-111 352h-164l-75 -352h-163l177 833h404q62 0 119 -8.5t96.5 -32.5t57 -69.5 t0.5 -121.5q-28 -133 -97.5 -186.5t-179.5 -62.5zM1062 815q72 0 120.5 24t64.5 103q8 43 -6 65.5t-42.5 32.5t-63 11t-65.5 1h-202l-51 -237h245z" />
<glyph unicode="&#xb6;" horiz-adv-x="1429" d="M1087 -460l368 1741h-176l-368 -1741h-222l201 947h-229q-150 0 -252.5 16t-159 69t-68 152t25.5 267q35 166 85.5 269.5t128.5 161.5t189.5 78.5t269.5 20.5h848l-420 -1981h-221zM1058 1281h-228q-96 0 -154.5 -8t-94.5 -36t-57 -87t-42 -159q-20 -91 -19 -143.5 t26.5 -79.5t76.5 -34.5t129 -7.5h245z" />
<glyph unicode="&#xb7;" horiz-adv-x="713" d="M578 436h-255l58 278h256z" />
<glyph unicode="&#xb9;" horiz-adv-x="857" d="M758 621h-193l161 756l-288 -238l-75 118l351 276h239z" />
<glyph unicode="&#xba;" horiz-adv-x="653" />
<glyph unicode="&#xbb;" horiz-adv-x="859" />
<glyph unicode="&#xbc;" horiz-adv-x="2143" d="M2008 337h78l-30 -151h-79l-41 -186h-193l41 186h-497l41 199l517 528h285zM1906 766h-6l-424 -429h339zM689 0h-188l1283 1521h193zM770 608h-192l160 756l-288 -236l-75 116l349 277h239z" />
<glyph unicode="&#xbd;" horiz-adv-x="2143" d="M659 0h-189l1284 1521h192zM741 608h-194l161 756l-288 -236l-75 116l348 277h240zM2043 0h-687l35 166q18 87 47.5 137.5t72 79.5t101.5 42t137 25q64 12 103.5 18t64.5 21.5t40.5 46.5t27.5 95q8 42 7 68.5t-14 40.5t-39.5 19t-67.5 5q-48 0 -79.5 -3t-52.5 -20 t-36.5 -55t-29.5 -106h-193q18 83 39 146t65.5 104.5t119 62t200.5 20.5q81 0 141 -10.5t95.5 -40.5t45.5 -85t-8 -146q-19 -91 -46 -145t-69.5 -85.5t-105.5 -47.5t-150 -30q-58 -11 -96 -17t-62.5 -18t-38.5 -35.5t-22 -68.5l-5 -26h495z" />
<glyph unicode="&#xbe;" horiz-adv-x="2143" d="M2031 337h80l-31 -151h-79l-41 -186h-192l41 186h-497l40 199l517 528h286zM1930 766h-5l-424 -429h338zM734 0h-189l1284 1521h193zM600 1162h132q32 0 52.5 5t35 19t23 40.5t18.5 67.5q7 26 1.5 42t-23.5 25t-51.5 11.5t-85.5 2.5q-47 0 -75.5 -4.5t-47 -19.5 t-29 -43.5t-20.5 -76.5h-193q19 99 51 157.5t79.5 91.5t112 43t156.5 10q65 0 130 -4t112.5 -26.5t70.5 -71t5 -137.5q-17 -81 -65.5 -142t-145.5 -71v-5q94 -8 124.5 -58.5t11.5 -141.5q-20 -96 -58.5 -148.5t-94.5 -79.5t-127.5 -33.5t-158.5 -6.5q-86 0 -149.5 6.5 t-100.5 36.5t-45.5 93t14.5 177h193q-12 -58 -15 -88t9 -45.5t41.5 -18.5t84.5 -3q57 0 94.5 2t61.5 12.5t37 33t22 62.5q14 66 -0.5 97t-88.5 31h-133z" />
<glyph unicode="&#xc0;" d="M452 288l-156 -288h-302l827 1521h430l192 -1521h-296l-38 288h-657zM998 1298h-4l-429 -789h526zM1350 1728l-77 -106l-356 175l127 165z" />
<glyph unicode="&#xc1;" d="M452 288l-156 -288h-302l827 1521h430l192 -1521h-296l-38 288h-657zM998 1298h-4l-429 -789h526zM1364 1797l-429 -175l-33 106l408 234z" />
<glyph unicode="&#xc2;" d="M452 288l-156 -288h-302l827 1521h430l192 -1521h-296l-38 288h-657zM998 1298h-4l-429 -789h526zM1451 1741l-72 -101l-284 128l-339 -128l-26 101l408 219z" />
<glyph unicode="&#xc3;" d="M452 288l-156 -288h-302l827 1521h430l192 -1521h-296l-38 288h-657zM998 1298h-4l-429 -789h526zM1496 1815q-55 -72 -119.5 -124.5t-151.5 -52.5q-45 0 -83.5 17.5t-74 39t-68 38t-62.5 16.5q-45 0 -73 -25t-53 -60l-116 71q53 70 119 121.5t151 51.5q41 0 79.5 -18.5 t73.5 -39.5t70 -39.5t65 -18.5q41 0 74 29.5t58 62.5z" />
<glyph unicode="&#xc8;" horiz-adv-x="1255" d="M596 892h712l-53 -240h-711l-86 -403h757l-53 -249h-1048l322 1521h1042l-52 -250h-751zM1219 1728l-78 -106l-356 175l128 165z" />
<glyph unicode="&#xc9;" horiz-adv-x="1255" d="M596 892h712l-53 -240h-711l-86 -403h757l-53 -249h-1048l322 1521h1042l-52 -250h-751zM1273 1797l-430 -175l-32 106l408 234z" />
<glyph unicode="&#xca;" horiz-adv-x="1255" d="M596 892h712l-53 -240h-711l-86 -403h757l-53 -249h-1048l322 1521h1042l-52 -250h-751zM1360 1741l-73 -101l-283 128l-339 -128l-26 101l407 219z" />
<glyph unicode="&#xcc;" horiz-adv-x="559" d="M426 0h-292l322 1521h292zM872 1728l-77 -106l-357 175l127 165z" />
<glyph unicode="&#xcd;" horiz-adv-x="559" d="M426 0h-292l322 1521h292zM886 1797l-430 -175l-32 106l408 234z" />
<glyph unicode="&#xd2;" horiz-adv-x="1449" d="M1048 1533q165 0 282 -18.5t186.5 -76t84.5 -168.5t-24 -293l-85 -410q-39 -182 -99 -295.5t-153 -176t-220.5 -85t-299.5 -22.5q-176 0 -295 20.5t-182 82t-73 176t31 300.5l85 410q39 176 94.5 285.5t143.5 169.5t216 80.5t308 20.5zM996 1283q-118 0 -190 -14 t-116 -48.5t-67 -93.5t-45 -150l-85 -410q-25 -113 -25 -178.5t31 -99.5t97.5 -42.5t175.5 -8.5q100 0 171 9.5t119.5 44.5t81 100.5t56.5 174.5l85 410q25 108 20 169t-41.5 91t-103.5 38t-164 8zM1316 1728l-78 -106l-356 175l128 165z" />
<glyph unicode="&#xd3;" horiz-adv-x="1449" d="M1048 1533q165 0 282 -18.5t186.5 -76t84.5 -168.5t-24 -293l-85 -410q-39 -182 -99 -295.5t-153 -176t-220.5 -85t-299.5 -22.5q-176 0 -295 20.5t-182 82t-73 176t31 300.5l85 410q39 176 94.5 285.5t143.5 169.5t216 80.5t308 20.5zM996 1283q-118 0 -190 -14 t-116 -48.5t-67 -93.5t-45 -150l-85 -410q-25 -113 -25 -178.5t31 -99.5t97.5 -42.5t175.5 -8.5q100 0 171 9.5t119.5 44.5t81 100.5t56.5 174.5l85 410q25 108 20 169t-41.5 91t-103.5 38t-164 8zM1330 1797l-430 -175l-32 106l407 234z" />
<glyph unicode="&#xd4;" horiz-adv-x="1449" d="M1048 1533q165 0 282 -18.5t186.5 -76t84.5 -168.5t-24 -293l-85 -410q-39 -182 -99 -295.5t-153 -176t-220.5 -85t-299.5 -22.5q-176 0 -295 20.5t-182 82t-73 176t31 300.5l85 410q39 176 94.5 285.5t143.5 169.5t216 80.5t308 20.5zM996 1283q-118 0 -190 -14 t-116 -48.5t-67 -93.5t-45 -150l-85 -410q-25 -113 -25 -178.5t31 -99.5t97.5 -42.5t175.5 -8.5q100 0 171 9.5t119.5 44.5t81 100.5t56.5 174.5l85 410q25 108 20 169t-41.5 91t-103.5 38t-164 8zM1458 1741l-73 -101l-284 128l-339 -128l-26 101l407 219z" />
<glyph unicode="&#xd5;" horiz-adv-x="1449" d="M1048 1533q165 0 282 -18.5t186.5 -76t84.5 -168.5t-24 -293l-85 -410q-39 -182 -99 -295.5t-153 -176t-220.5 -85t-299.5 -22.5q-176 0 -295 20.5t-182 82t-73 176t31 300.5l85 410q39 176 94.5 285.5t143.5 169.5t216 80.5t308 20.5zM996 1283q-118 0 -190 -14 t-116 -48.5t-67 -93.5t-45 -150l-85 -410q-25 -113 -25 -178.5t31 -99.5t97.5 -42.5t175.5 -8.5q100 0 171 9.5t119.5 44.5t81 100.5t56.5 174.5l85 410q25 108 20 169t-41.5 91t-103.5 38t-164 8zM1503 1815q-56 -72 -120.5 -124.5t-151.5 -52.5q-45 0 -83.5 17.5t-73.5 39 t-68 38t-64 16.5q-44 0 -72 -25t-53 -60l-115 71q52 70 118 121.5t151 51.5q41 0 79.5 -18.5t73.5 -39.5t70 -39.5t65 -18.5q41 0 74 29.5t58 62.5z" />
<glyph unicode="&#xd9;" horiz-adv-x="1528" d="M1720 1521l-230 -1081q-35 -158 -100.5 -249.5t-159.5 -136t-213 -55.5t-257 -11q-133 0 -247 11t-189 55.5t-104 135t5 250.5l229 1081h292l-229 -1081q-12 -59 -7 -97.5t37.5 -62t96.5 -33t169 -9.5q102 0 169.5 7.5t111.5 31t68 63t36 100.5l230 1081h292zM1356 1728 l-77 -106l-356 175l127 165z" />
<glyph unicode="&#xda;" horiz-adv-x="1528" d="M1720 1521l-230 -1081q-35 -158 -100.5 -249.5t-159.5 -136t-213 -55.5t-257 -11q-133 0 -247 11t-189 55.5t-104 135t5 250.5l229 1081h292l-229 -1081q-12 -59 -7 -97.5t37.5 -62t96.5 -33t169 -9.5q102 0 169.5 7.5t111.5 31t68 63t36 100.5l230 1081h292zM1370 1797 l-430 -175l-31 106l407 234z" />
<glyph unicode="&#xdd;" horiz-adv-x="1358" d="M942 584l-123 -584h-292l123 584l-350 937h333l222 -649h6l505 649h337zM1322 1797l-430 -175l-33 106l408 234z" />
<glyph unicode="&#xe0;" horiz-adv-x="1193" d="M677 478q-48 0 -90.5 -2t-78.5 -16t-60 -45.5t-36 -87.5q-13 -58 -7.5 -90t29.5 -49.5t67.5 -21.5t108.5 -4q51 0 94.5 4t79 21.5t60 49.5t36.5 90q12 54 0 86t-41.5 45.5t-72 16.5t-89.5 3zM849 134h-6q-30 -53 -72.5 -82t-91 -43.5t-99 -17.5t-98.5 -3q-91 0 -162 12 t-114.5 48.5t-57.5 103.5t8 175q20 95 58.5 157.5t96.5 100.5t135 52.5t177 14.5q48 0 94.5 -2t86 -13.5t69 -36t44.5 -68.5h8l28 137q14 65 18 109.5t-13.5 72t-60 39.5t-121.5 12q-42 0 -79.5 -4t-68 -18.5t-52 -44.5t-32.5 -81h-256q24 116 76 181t120.5 96t153 38 t175.5 7q127 0 215.5 -14t138.5 -56.5t60 -123.5t-18 -215l-143 -667h-255zM1091 1271l-77 -105l-357 174l128 167z" />
<glyph unicode="&#xe1;" horiz-adv-x="1193" d="M677 478q-48 0 -90.5 -2t-78.5 -16t-60 -45.5t-36 -87.5q-13 -58 -7.5 -90t29.5 -49.5t67.5 -21.5t108.5 -4q51 0 94.5 4t79 21.5t60 49.5t36.5 90q12 54 0 86t-41.5 45.5t-72 16.5t-89.5 3zM849 134h-6q-30 -53 -72.5 -82t-91 -43.5t-99 -17.5t-98.5 -3q-91 0 -162 12 t-114.5 48.5t-57.5 103.5t8 175q20 95 58.5 157.5t96.5 100.5t135 52.5t177 14.5q48 0 94.5 -2t86 -13.5t69 -36t44.5 -68.5h8l28 137q14 65 18 109.5t-13.5 72t-60 39.5t-121.5 12q-42 0 -79.5 -4t-68 -18.5t-52 -44.5t-32.5 -81h-256q24 116 76 181t120.5 96t153 38 t175.5 7q127 0 215.5 -14t138.5 -56.5t60 -123.5t-18 -215l-143 -667h-255zM1145 1340l-429 -174l-33 105l408 236z" />
<glyph unicode="&#xe2;" horiz-adv-x="1193" d="M677 478q-48 0 -90.5 -2t-78.5 -16t-60 -45.5t-36 -87.5q-13 -58 -7.5 -90t29.5 -49.5t67.5 -21.5t108.5 -4q51 0 94.5 4t79 21.5t60 49.5t36.5 90q12 54 0 86t-41.5 45.5t-72 16.5t-89.5 3zM849 134h-6q-30 -53 -72.5 -82t-91 -43.5t-99 -17.5t-98.5 -3q-91 0 -162 12 t-114.5 48.5t-57.5 103.5t8 175q20 95 58.5 157.5t96.5 100.5t135 52.5t177 14.5q48 0 94.5 -2t86 -13.5t69 -36t44.5 -68.5h8l28 137q14 65 18 109.5t-13.5 72t-60 39.5t-121.5 12q-42 0 -79.5 -4t-68 -18.5t-52 -44.5t-32.5 -81h-256q24 116 76 181t120.5 96t153 38 t175.5 7q127 0 215.5 -14t138.5 -56.5t60 -123.5t-18 -215l-143 -667h-255zM1233 1285l-74 -101l-281 128l-340 -128l-27 101l408 220z" />
<glyph unicode="&#xe3;" horiz-adv-x="1193" d="M677 478q-48 0 -90.5 -2t-78.5 -16t-60 -45.5t-36 -87.5q-13 -58 -7.5 -90t29.5 -49.5t67.5 -21.5t108.5 -4q51 0 94.5 4t79 21.5t60 49.5t36.5 90q12 54 0 86t-41.5 45.5t-72 16.5t-89.5 3zM849 134h-6q-30 -53 -72.5 -82t-91 -43.5t-99 -17.5t-98.5 -3q-91 0 -162 12 t-114.5 48.5t-57.5 103.5t8 175q20 95 58.5 157.5t96.5 100.5t135 52.5t177 14.5q48 0 94.5 -2t86 -13.5t69 -36t44.5 -68.5h8l28 137q14 65 18 109.5t-13.5 72t-60 39.5t-121.5 12q-42 0 -79.5 -4t-68 -18.5t-52 -44.5t-32.5 -81h-256q24 116 76 181t120.5 96t153 38 t175.5 7q127 0 215.5 -14t138.5 -56.5t60 -123.5t-18 -215l-143 -667h-255zM1277 1358q-52 -71 -118 -123.5t-153 -52.5q-45 0 -83.5 17.5t-73 38.5t-67 38.5t-62.5 17.5q-45 0 -73 -26t-55 -59l-116 70q54 69 119.5 120.5t150.5 51.5q41 0 79 -17.5t74 -39.5t70.5 -40 t64.5 -18q40 0 73.5 29.5t60.5 62.5z" />
<glyph unicode="&#xe8;" horiz-adv-x="1155" d="M1143 339q-26 -126 -75.5 -196t-121.5 -104.5t-165.5 -42.5t-206.5 -8q-152 0 -242 26.5t-132 89t-39 167t36 259.5q30 141 68.5 244.5t104.5 170.5t169.5 99t265.5 32q164 0 256 -27t130 -94t30 -181.5t-45 -289.5h-731q-19 -85 -27 -143.5t7 -93t60 -50t130 -15.5 q52 0 96.5 2t80.5 16.5t60 47t36 91.5h255zM955 646q18 82 19 129.5t-20 71t-66.5 29.5t-125.5 6q-83 0 -131.5 -10.5t-78 -36.5t-44.5 -71.5t-30 -117.5h477zM1072 1271l-76 -105l-357 174l127 167z" />
<glyph unicode="&#xe9;" horiz-adv-x="1155" d="M1143 339q-26 -126 -75.5 -196t-121.5 -104.5t-165.5 -42.5t-206.5 -8q-152 0 -242 26.5t-132 89t-39 167t36 259.5q30 141 68.5 244.5t104.5 170.5t169.5 99t265.5 32q164 0 256 -27t130 -94t30 -181.5t-45 -289.5h-731q-19 -85 -27 -143.5t7 -93t60 -50t130 -15.5 q52 0 96.5 2t80.5 16.5t60 47t36 91.5h255zM955 646q18 82 19 129.5t-20 71t-66.5 29.5t-125.5 6q-83 0 -131.5 -10.5t-78 -36.5t-44.5 -71.5t-30 -117.5h477zM1128 1340l-430 -174l-33 105l407 236z" />
<glyph unicode="&#xea;" horiz-adv-x="1155" d="M1143 339q-26 -126 -75.5 -196t-121.5 -104.5t-165.5 -42.5t-206.5 -8q-152 0 -242 26.5t-132 89t-39 167t36 259.5q30 141 68.5 244.5t104.5 170.5t169.5 99t265.5 32q164 0 256 -27t130 -94t30 -181.5t-45 -289.5h-731q-19 -85 -27 -143.5t7 -93t60 -50t130 -15.5 q52 0 96.5 2t80.5 16.5t60 47t36 91.5h255zM955 646q18 82 19 129.5t-20 71t-66.5 29.5t-125.5 6q-83 0 -131.5 -10.5t-78 -36.5t-44.5 -71.5t-30 -117.5h477zM1213 1285l-74 -101l-282 128l-340 -128l-26 101l407 220z" />
<glyph unicode="&#xec;" horiz-adv-x="478" d="M367 0h-255l227 1064h255zM734 1271l-77 -105l-357 174l128 167z" />
<glyph unicode="&#xed;" horiz-adv-x="478" d="M367 0h-255l227 1064h255zM748 1340l-429 -174l-33 105l407 236z" />
<glyph unicode="&#xf2;" horiz-adv-x="1180" d="M819 1076q166 0 259.5 -27t132 -90t32.5 -168.5t-38 -258.5q-33 -155 -71.5 -259.5t-103.5 -167t-170.5 -90t-271.5 -27.5t-259 27.5t-132 90t-33 167t39 259.5q33 153 71 258.5t103 168.5t170 90t272 27zM776 882q-85 0 -136.5 -14.5t-85 -54t-54 -108t-44.5 -175.5 q-22 -108 -30 -175t9 -105.5t63 -53t131 -14.5t136.5 14.5t85 53t54 105.5t41.5 175q25 107 33 175.5t-9 108t-63 54t-131 14.5zM1085 1271l-77 -105l-358 174l128 167z" />
<glyph unicode="&#xf3;" horiz-adv-x="1180" d="M819 1076q166 0 259.5 -27t132 -90t32.5 -168.5t-38 -258.5q-33 -155 -71.5 -259.5t-103.5 -167t-170.5 -90t-271.5 -27.5t-259 27.5t-132 90t-33 167t39 259.5q33 153 71 258.5t103 168.5t170 90t272 27zM776 882q-85 0 -136.5 -14.5t-85 -54t-54 -108t-44.5 -175.5 q-22 -108 -30 -175t9 -105.5t63 -53t131 -14.5t136.5 14.5t85 53t54 105.5t41.5 175q25 107 33 175.5t-9 108t-63 54t-131 14.5zM1099 1340l-430 -174l-32 105l407 236z" />
<glyph unicode="&#xf4;" horiz-adv-x="1180" d="M819 1076q166 0 259.5 -27t132 -90t32.5 -168.5t-38 -258.5q-33 -155 -71.5 -259.5t-103.5 -167t-170.5 -90t-271.5 -27.5t-259 27.5t-132 90t-33 167t39 259.5q33 153 71 258.5t103 168.5t170 90t272 27zM776 882q-85 0 -136.5 -14.5t-85 -54t-54 -108t-44.5 -175.5 q-22 -108 -30 -175t9 -105.5t63 -53t131 -14.5t136.5 14.5t85 53t54 105.5t41.5 175q25 107 33 175.5t-9 108t-63 54t-131 14.5zM1225 1285l-74 -101l-281 128l-340 -128l-27 101l408 220z" />
<glyph unicode="&#xf5;" horiz-adv-x="1180" d="M819 1076q166 0 259.5 -27t132 -90t32.5 -168.5t-38 -258.5q-33 -155 -71.5 -259.5t-103.5 -167t-170.5 -90t-271.5 -27.5t-259 27.5t-132 90t-33 167t39 259.5q33 153 71 258.5t103 168.5t170 90t272 27zM776 882q-85 0 -136.5 -14.5t-85 -54t-54 -108t-44.5 -175.5 q-22 -108 -30 -175t9 -105.5t63 -53t131 -14.5t136.5 14.5t85 53t54 105.5t41.5 175q25 107 33 175.5t-9 108t-63 54t-131 14.5zM1271 1358q-52 -71 -118 -123.5t-153 -52.5q-45 0 -83.5 17.5t-73 38.5t-67 38.5t-62.5 17.5q-45 0 -73.5 -26t-54.5 -59l-116 70 q53 69 119 120.5t152 51.5q39 0 77.5 -17.5t74.5 -39.5t70.5 -40t64.5 -18q40 0 74 29.5t60 62.5z" />
<glyph unicode="&#xf9;" horiz-adv-x="1201" d="M828 0l33 164h-8q-34 -52 -75.5 -86.5t-89 -55t-100 -27.5t-108.5 -7q-78 0 -141 15t-102.5 50.5t-53 94.5t4.5 146l164 770h256l-144 -671q-12 -56 -15.5 -97t9 -66t46.5 -36.5t94 -11.5q148 0 218 64t99 204l131 614h256l-228 -1064h-246zM1014 1271l-77 -105l-357 174 l128 167z" />
<glyph unicode="&#xfa;" horiz-adv-x="1201" d="M828 0l33 164h-8q-34 -52 -75.5 -86.5t-89 -55t-100 -27.5t-108.5 -7q-78 0 -141 15t-102.5 50.5t-53 94.5t4.5 146l164 770h256l-144 -671q-12 -56 -15.5 -97t9 -66t46.5 -36.5t94 -11.5q148 0 218 64t99 204l131 614h256l-228 -1064h-246zM1134 1340l-430 -174l-33 105 l408 236z" />
<glyph unicode="&#xfd;" horiz-adv-x="983" d="M710 -43q-43 -91 -83.5 -169t-96.5 -136t-131.5 -91t-187.5 -33q-29 0 -54 3t-54 5l43 193q12 -2 25 -4.5t28 -2.5q60 0 102 26.5t72.5 67t51.5 89t39 95.5h-123l-124 1064h263l77 -906h4l400 906h260zM1024 1340l-430 -174l-33 105l408 236z" />
<glyph unicode="&#x102;" d="M452 288l-156 -288h-302l827 1521h430l192 -1521h-296l-38 288h-657zM998 1298h-4l-429 -789h526zM880 1932q-4 -77 45.5 -125.5t126.5 -48.5q39 0 76.5 13t71 36.5t59.5 55t41 69.5h134q-18 -67 -59.5 -126t-97.5 -103.5t-122 -69.5t-133 -25q-69 0 -124 25t-92.5 69.5 t-53.5 103.5t-6 126h134z" />
<glyph unicode="&#x103;" horiz-adv-x="1193" d="M677 478q-48 0 -90.5 -2t-78.5 -16t-60 -45.5t-36 -87.5q-13 -58 -7.5 -90t29.5 -49.5t67.5 -21.5t108.5 -4q51 0 94.5 4t79 21.5t60 49.5t36.5 90q12 54 0 86t-41.5 45.5t-72 16.5t-89.5 3zM849 134h-6q-30 -53 -72.5 -82t-91 -43.5t-99 -17.5t-98.5 -3q-91 0 -162 12 t-114.5 48.5t-57.5 103.5t8 175q20 95 58.5 157.5t96.5 100.5t135 52.5t177 14.5q48 0 94.5 -2t86 -13.5t69 -36t44.5 -68.5h8l28 137q14 65 18 109.5t-13.5 72t-60 39.5t-121.5 12q-42 0 -79.5 -4t-68 -18.5t-52 -44.5t-32.5 -81h-256q24 116 76 181t120.5 96t153 38 t175.5 7q127 0 215.5 -14t138.5 -56.5t60 -123.5t-18 -215l-143 -667h-255zM702 1476q-4 -77 45.5 -125.5t126.5 -48.5q39 0 76 13t70.5 36.5t60 54.5t41.5 70h133q-18 -67 -60 -125.5t-97.5 -103.5t-121 -70.5t-133.5 -25.5q-69 0 -123.5 25.5t-92 70.5t-54 103.5 t-6.5 125.5h135z" />
<glyph unicode="&#x110;" horiz-adv-x="1528" d="M1174 1521q159 0 265 -30.5t164.5 -97.5t70 -175.5t-21.5 -262.5l-77 -359q-24 -120 -68.5 -227.5t-121.5 -189.5t-195 -130.5t-290 -48.5h-774l152 720h-100l47 217h100l123 584h726zM1360 955q21 95 18 156t-32.5 96t-85 49.5t-138.5 14.5h-435l-70 -334h240l-46 -217 h-242l-99 -471h483q73 0 129.5 30.5t96.5 79.5t66 111t38 126z" />
<glyph unicode="&#x111;" horiz-adv-x="1201" d="M1403 1151h-83l-244 -1151h-255l44 160h-8q-70 -106 -162.5 -139t-205.5 -33q-148 0 -221 43.5t-96.5 121.5t-9.5 183.5t41 226.5q24 118 57.5 212.5t89.5 161.5t144 103t226 36q48 0 94.5 -6t86 -22t68.5 -46.5t39 -78.5h10l48 228h-240l42 195h239l36 175h256l-37 -175 h83zM937 563q18 85 22 146t-14 98.5t-63.5 56t-129.5 18.5q-67 0 -112.5 -12.5t-79 -46.5t-58 -97t-44.5 -163q-18 -91 -31 -161.5t-2 -119t51.5 -74.5t127.5 -26q98 0 154.5 24.5t90 72.5t51 118.5t37.5 165.5z" />
<glyph unicode="&#x128;" horiz-adv-x="559" d="M426 0h-292l322 1521h292zM1062 1815q-52 -72 -118 -124.5t-153 -52.5q-45 0 -83.5 17.5t-73 39t-66.5 38t-63 16.5q-45 0 -73 -25t-55 -60l-116 71q53 70 119 121.5t152 51.5q40 0 78 -18.5t74 -39.5t70.5 -39.5t64.5 -18.5q40 0 74 29.5t60 62.5z" />
<glyph unicode="&#x129;" horiz-adv-x="478" d="M367 0h-255l227 1064h255zM904 1358q-53 -71 -118.5 -123.5t-152.5 -52.5q-45 0 -83.5 17.5t-73 38.5t-67 38.5t-63.5 17.5q-44 0 -72 -26t-55 -59l-116 70q53 69 119 120.5t151 51.5q41 0 79.5 -17.5t73.5 -39.5t70 -40t65 -18q41 0 74 29.5t60 62.5z" />
<glyph unicode="&#x168;" horiz-adv-x="1528" d="M1720 1521l-230 -1081q-35 -158 -100.5 -249.5t-159.5 -136t-213 -55.5t-257 -11q-133 0 -247 11t-189 55.5t-104 135t5 250.5l229 1081h292l-229 -1081q-12 -59 -7 -97.5t37.5 -62t96.5 -33t169 -9.5q102 0 169.5 7.5t111.5 31t68 63t36 100.5l230 1081h292zM1543 1815 q-53 -72 -119 -124.5t-153 -52.5q-44 0 -83 17.5t-73 39t-66.5 38t-63.5 16.5q-45 0 -73 -25t-55 -60l-115 71q53 70 119 121.5t151 51.5q40 0 79 -18.5t74 -39.5t69.5 -39.5t65.5 -18.5q40 0 73.5 29.5t60.5 62.5z" />
<glyph unicode="&#x169;" horiz-adv-x="1201" d="M828 0l33 164h-8q-34 -52 -75.5 -86.5t-89 -55t-100 -27.5t-108.5 -7q-78 0 -141 15t-102.5 50.5t-53 94.5t4.5 146l164 770h256l-144 -671q-12 -56 -15.5 -97t9 -66t46.5 -36.5t94 -11.5q148 0 218 64t99 204l131 614h256l-228 -1064h-246zM1273 1358 q-52 -71 -118 -123.5t-153 -52.5q-45 0 -83.5 17.5t-73 38.5t-67 38.5t-62.5 17.5q-45 0 -73 -26t-55 -59l-116 70q53 69 119 120.5t151 51.5q41 0 79 -17.5t74 -39.5t70.5 -40t64.5 -18q40 0 74 29.5t60 62.5z" />
<glyph unicode="&#x1a0;" horiz-adv-x="1599" d="M1950 1534l-58 -279q-19 -67 -56 -119q-33 -45 -92 -81.5t-158 -36.5q-3 -10 -5 -19.5t-4 -19.5l-85 -410q-39 -182 -99 -295.5t-153 -176t-220.5 -85t-299.5 -22.5q-176 0 -295 20.5t-182 82t-73 176t31 300.5l85 410q39 176 94.5 286t143.5 169.5t216 79.5t308 20 q130 0 230.5 -10.5t170.5 -42.5t109.5 -90t45.5 -154h12q15 -2 26 5q10 7 21.5 20t17.5 40l49 232h220zM1285 979q25 108 20 169t-41.5 91t-103.5 38t-164 8q-118 0 -190 -14t-116 -48.5t-67 -93.5t-45 -150l-85 -410q-25 -113 -25 -178.5t31 -99.5t97.5 -42.5t175.5 -8.5 q100 0 171 9.5t119.5 44.5t81 100.5t56.5 174.5z" />
<glyph unicode="&#x1a1;" horiz-adv-x="1265" d="M1555 1076l-44 -198q-19 -61 -56 -110q-31 -40 -86 -76.5t-142 -41.5q-4 -27 -10 -57t-12 -61q-33 -155 -71.5 -259.5t-103.5 -167t-170.5 -90t-271.5 -27.5t-259 27.5t-132 90t-33 167t39 259.5q33 153 71 258.5t103 168.5t170 90t272 27q110 0 188 -12t127.5 -37 t75 -66.5t30.5 -101.5h7q14 -2 26 6q10 7 22.5 20t18.5 40l34 151h207zM946 530q25 107 33 175.5t-9 108t-63 54t-131 14.5t-136.5 -14.5t-85 -54t-54 -108t-44.5 -175.5q-22 -108 -30 -175t9 -105.5t63 -53t131 -14.5t136.5 14.5t85 53t54 105.5t41.5 175z" />
<glyph unicode="&#x1af;" horiz-adv-x="1711" d="M2033 1521l-60 -281q-19 -66 -57 -118q-34 -46 -94 -82t-162 -36h-50l-120 -564q-35 -158 -100.5 -249.5t-159.5 -136t-213 -55.5t-257 -11q-133 0 -247 11t-189 55.5t-104 135t5 250.5l229 1081h292l-229 -1081q-12 -59 -7 -97.5t37.5 -62t96.5 -33t169 -9.5 q102 0 169.5 7.5t111.5 31t68 63t36 100.5l230 1081h292l-64 -298h37q14 -2 29 6q11 6 22.5 19t17.5 39l51 234h220z" />
<glyph unicode="&#x1b0;" horiz-adv-x="1348" d="M1598 1064l-33 -160q-20 -72 -58 -130q-35 -48 -96 -89t-162 -41h-36l-139 -644h-246l33 164h-8q-34 -52 -75.5 -86.5t-89 -55t-100 -27.5t-108.5 -7q-78 0 -141 15t-102.5 50.5t-53 94.5t4.5 146l164 770h256l-144 -671q-12 -56 -15.5 -97t9 -66t46.5 -36.5t94 -11.5 q148 0 218 64t99 204l131 614h256l-45 -213h22q17 -2 29 6q10 6 21 19.5t17 40.5l31 147h221z" />
<glyph unicode="&#x1ea0;" d="M452 288l-156 -288h-302l827 1521h430l192 -1521h-296l-38 288h-657zM998 1298h-4l-429 -789h526zM805 -422h-256l59 278h255z" />
<glyph unicode="&#x1ea1;" horiz-adv-x="1193" d="M677 478q-48 0 -90.5 -2t-78.5 -16t-60 -45.5t-36 -87.5q-13 -58 -7.5 -90t29.5 -49.5t67.5 -21.5t108.5 -4q51 0 94.5 4t79 21.5t60 49.5t36.5 90q12 54 0 86t-41.5 45.5t-72 16.5t-89.5 3zM849 134h-6q-30 -53 -72.5 -82t-91 -43.5t-99 -17.5t-98.5 -3q-91 0 -162 12 t-114.5 48.5t-57.5 103.5t8 175q20 95 58.5 157.5t96.5 100.5t135 52.5t177 14.5q48 0 94.5 -2t86 -13.5t69 -36t44.5 -68.5h8l28 137q14 65 18 109.5t-13.5 72t-60 39.5t-121.5 12q-42 0 -79.5 -4t-68 -18.5t-52 -44.5t-32.5 -81h-256q24 116 76 181t120.5 96t153 38 t175.5 7q127 0 215.5 -14t138.5 -56.5t60 -123.5t-18 -215l-143 -667h-255zM695 -422h-255l59 278h255z" />
<glyph unicode="&#x1ea2;" d="M452 288l-156 -288h-302l827 1521h430l192 -1521h-296l-38 288h-657zM998 1298h-4l-429 -789h526zM987 1629l9 40q30 134 149 165h2q2 2 21.5 9.5t23.5 27.5l6 35q2 17 -8 22.5t-24 5.5h-42q-21 0 -30 -7t-11 -15l-2 -6l-11 -53h-141l10 53q12 54 31 89t54 52 q28 17 65 23t89 6q101 0 140 -33q48 -38 28 -137q-8 -39 -16 -66t-24 -50q-19 -24 -44 -41t-66 -29q-6 -2 -13 -4t-11 -4h-2q-17 -11 -21 -17t-4 -10v-2l-11 -54h-147z" />
<glyph unicode="&#x1ea3;" horiz-adv-x="1193" d="M677 478q-48 0 -90.5 -2t-78.5 -16t-60 -45.5t-36 -87.5q-13 -58 -7.5 -90t29.5 -49.5t67.5 -21.5t108.5 -4q51 0 94.5 4t79 21.5t60 49.5t36.5 90q12 54 0 86t-41.5 45.5t-72 16.5t-89.5 3zM849 134h-6q-30 -53 -72.5 -82t-91 -43.5t-99 -17.5t-98.5 -3q-91 0 -162 12 t-114.5 48.5t-57.5 103.5t8 175q20 95 58.5 157.5t96.5 100.5t135 52.5t177 14.5q48 0 94.5 -2t86 -13.5t69 -36t44.5 -68.5h8l28 137q14 65 18 109.5t-13.5 72t-60 39.5t-121.5 12q-42 0 -79.5 -4t-68 -18.5t-52 -44.5t-32.5 -81h-256q24 116 76 181t120.5 96t153 38 t175.5 7q127 0 215.5 -14t138.5 -56.5t60 -123.5t-18 -215l-143 -667h-255zM783 1172l8 41q30 133 149 166h2q2 2 21.5 9t23.5 28l7 33q2 17 -8.5 23t-24.5 6h-42q-21 0 -30 -7t-11 -16l-2 -6l-11 -52h-141l10 52q12 56 31.5 90t53.5 53q28 16 65 22t89 6q101 0 140 -32 q49 -39 28 -139q-7 -38 -15.5 -65.5t-24.5 -48.5q-18 -25 -43.5 -42.5t-66.5 -29.5q-6 -2 -13 -4t-11 -4h-2q-17 -11 -21 -17q-4 -5 -4 -9v-2l-11 -55h-146z" />
<glyph unicode="&#x1ea4;" d="M452 288l-156 -288h-302l827 1521h430l192 -1521h-296l-38 288h-657zM998 1298h-4l-429 -789h526zM1451 1741l-72 -101l-284 128l-339 -128l-26 101l408 219zM1936 1995l-429 -174l-33 106l408 234z" />
<glyph unicode="&#x1ea5;" horiz-adv-x="1193" d="M677 478q-48 0 -90.5 -2t-78.5 -16t-60 -45.5t-36 -87.5q-13 -58 -7.5 -90t29.5 -49.5t67.5 -21.5t108.5 -4q51 0 94.5 4t79 21.5t60 49.5t36.5 90q12 54 0 86t-41.5 45.5t-72 16.5t-89.5 3zM849 134h-6q-30 -53 -72.5 -82t-91 -43.5t-99 -17.5t-98.5 -3q-91 0 -162 12 t-114.5 48.5t-57.5 103.5t8 175q20 95 58.5 157.5t96.5 100.5t135 52.5t177 14.5q48 0 94.5 -2t86 -13.5t69 -36t44.5 -68.5h8l28 137q14 65 18 109.5t-13.5 72t-60 39.5t-121.5 12q-42 0 -79.5 -4t-68 -18.5t-52 -44.5t-32.5 -81h-256q24 116 76 181t120.5 96t153 38 t175.5 7q127 0 215.5 -14t138.5 -56.5t60 -123.5t-18 -215l-143 -667h-255zM1233 1285l-74 -101l-281 128l-340 -128l-27 101l408 220zM1687 1536l-430 -174l-32 106l408 235z" />
<glyph unicode="&#x1ea6;" d="M452 288l-156 -288h-302l827 1521h430l192 -1521h-296l-38 288h-657zM998 1298h-4l-429 -789h526zM1451 1741l-72 -101l-284 128l-339 -128l-26 101l408 219zM840 1927l-78 -106l-356 174l128 166z" />
<glyph unicode="&#x1ea7;" horiz-adv-x="1193" d="M677 478q-48 0 -90.5 -2t-78.5 -16t-60 -45.5t-36 -87.5q-13 -58 -7.5 -90t29.5 -49.5t67.5 -21.5t108.5 -4q51 0 94.5 4t79 21.5t60 49.5t36.5 90q12 54 0 86t-41.5 45.5t-72 16.5t-89.5 3zM849 134h-6q-30 -53 -72.5 -82t-91 -43.5t-99 -17.5t-98.5 -3q-91 0 -162 12 t-114.5 48.5t-57.5 103.5t8 175q20 95 58.5 157.5t96.5 100.5t135 52.5t177 14.5q48 0 94.5 -2t86 -13.5t69 -36t44.5 -68.5h8l28 137q14 65 18 109.5t-13.5 72t-60 39.5t-121.5 12q-42 0 -79.5 -4t-68 -18.5t-52 -44.5t-32.5 -81h-256q24 116 76 181t120.5 96t153 38 t175.5 7q127 0 215.5 -14t138.5 -56.5t60 -123.5t-18 -215l-143 -667h-255zM1233 1285l-74 -101l-281 128l-340 -128l-27 101l408 220zM532 1464l-78 -106l-357 175l128 166z" />
<glyph unicode="&#x1ea8;" d="M452 288l-156 -288h-302l827 1521h430l192 -1521h-296l-38 288h-657zM998 1298h-4l-429 -789h526zM1451 1741l-72 -101l-284 128l-339 -128l-26 101l408 219zM1322 1918l8 40q30 135 150 167h2q2 2 21.5 9t23.5 27l6 35q1 16 -8.5 22.5t-23.5 6.5h-43q-21 0 -29.5 -7.5 t-10.5 -15.5l-2 -6l-11 -53h-142l10 53q12 54 31.5 89t53.5 52q29 17 65.5 23t89.5 6q101 0 139 -33q49 -38 29 -137q-8 -39 -16.5 -66t-24.5 -50q-18 -24 -43.5 -41t-65.5 -29q-6 -2 -13 -4.5t-11 -4.5h-2q-17 -10 -21 -16t-4 -10v-2l-12 -55h-146z" />
<glyph unicode="&#x1ea9;" horiz-adv-x="1193" d="M677 478q-48 0 -90.5 -2t-78.5 -16t-60 -45.5t-36 -87.5q-13 -58 -7.5 -90t29.5 -49.5t67.5 -21.5t108.5 -4q51 0 94.5 4t79 21.5t60 49.5t36.5 90q12 54 0 86t-41.5 45.5t-72 16.5t-89.5 3zM849 134h-6q-30 -53 -72.5 -82t-91 -43.5t-99 -17.5t-98.5 -3q-91 0 -162 12 t-114.5 48.5t-57.5 103.5t8 175q20 95 58.5 157.5t96.5 100.5t135 52.5t177 14.5q48 0 94.5 -2t86 -13.5t69 -36t44.5 -68.5h8l28 137q14 65 18 109.5t-13.5 72t-60 39.5t-121.5 12q-42 0 -79.5 -4t-68 -18.5t-52 -44.5t-32.5 -81h-256q24 116 76 181t120.5 96t153 38 t175.5 7q127 0 215.5 -14t138.5 -56.5t60 -123.5t-18 -215l-143 -667h-255zM1233 1285l-74 -101l-281 128l-340 -128l-27 101l408 220zM1111 1468l8 41q30 133 150 166h2q2 2 21.5 9t23.5 28l6 33q2 17 -8 23t-24 6h-43q-20 0 -29 -7t-11 -16l-2 -6l-11 -52h-142l10 52 q12 56 31.5 90t53.5 53q29 16 65.5 22t89.5 6q101 0 139 -32q49 -39 29 -139q-8 -38 -16.5 -65.5t-23.5 -48.5q-19 -25 -44.5 -42.5t-65.5 -29.5q-6 -2 -13 -4t-11 -4h-2q-17 -11 -21 -17q-4 -5 -4 -9v-2l-12 -55h-146z" />
<glyph unicode="&#x1eaa;" d="M452 288l-156 -288h-302l827 1521h430l192 -1521h-296l-38 288h-657zM998 1298h-4l-429 -789h526zM1451 1741l-72 -101l-284 128l-339 -128l-26 101l408 219zM1596 2178q-53 -71 -119 -124t-153 -53q-45 0 -83.5 17t-72.5 38.5t-67 39t-62 17.5q-45 0 -73.5 -25.5 t-54.5 -59.5l-116 71q52 68 118 120t151 52q41 0 79.5 -18.5t74 -39.5t70 -39.5t64.5 -18.5q41 0 74.5 29.5t59.5 61.5z" />
<glyph unicode="&#x1eab;" horiz-adv-x="1193" d="M677 478q-48 0 -90.5 -2t-78.5 -16t-60 -45.5t-36 -87.5q-13 -58 -7.5 -90t29.5 -49.5t67.5 -21.5t108.5 -4q51 0 94.5 4t79 21.5t60 49.5t36.5 90q12 54 0 86t-41.5 45.5t-72 16.5t-89.5 3zM849 134h-6q-30 -53 -72.5 -82t-91 -43.5t-99 -17.5t-98.5 -3q-91 0 -162 12 t-114.5 48.5t-57.5 103.5t8 175q20 95 58.5 157.5t96.5 100.5t135 52.5t177 14.5q48 0 94.5 -2t86 -13.5t69 -36t44.5 -68.5h8l28 137q14 65 18 109.5t-13.5 72t-60 39.5t-121.5 12q-42 0 -79.5 -4t-68 -18.5t-52 -44.5t-32.5 -81h-256q24 116 76 181t120.5 96t153 38 t175.5 7q127 0 215.5 -14t138.5 -56.5t60 -123.5t-18 -215l-143 -667h-255zM1233 1285l-74 -101l-281 128l-340 -128l-27 101l408 220zM1436 1697q-53 -71 -119 -123.5t-153 -52.5q-45 0 -83.5 17t-73 38.5t-66.5 39t-63 17.5q-44 0 -73 -26t-55 -60l-115 71 q52 69 118 120.5t151 51.5q40 0 79 -18t74.5 -39t70 -39.5t64.5 -18.5q41 0 74.5 29t59.5 62z" />
<glyph unicode="&#x1eac;" d="M452 288l-156 -288h-302l827 1521h430l192 -1521h-296l-38 288h-657zM998 1298h-4l-429 -789h526zM805 -422h-256l59 278h255zM1460 1741l-73 -101l-282 128l-341 -128l-26 101l407 219z" />
<glyph unicode="&#x1ead;" horiz-adv-x="1193" d="M677 478q-48 0 -90.5 -2t-78.5 -16t-60 -45.5t-36 -87.5q-13 -58 -7.5 -90t29.5 -49.5t67.5 -21.5t108.5 -4q51 0 94.5 4t79 21.5t60 49.5t36.5 90q12 54 0 86t-41.5 45.5t-72 16.5t-89.5 3zM849 134h-6q-30 -53 -72.5 -82t-91 -43.5t-99 -17.5t-98.5 -3q-91 0 -162 12 t-114.5 48.5t-57.5 103.5t8 175q20 95 58.5 157.5t96.5 100.5t135 52.5t177 14.5q48 0 94.5 -2t86 -13.5t69 -36t44.5 -68.5h8l28 137q14 65 18 109.5t-13.5 72t-60 39.5t-121.5 12q-42 0 -79.5 -4t-68 -18.5t-52 -44.5t-32.5 -81h-256q24 116 76 181t120.5 96t153 38 t175.5 7q127 0 215.5 -14t138.5 -56.5t60 -123.5t-18 -215l-143 -667h-255zM695 -422h-255l59 278h255zM1259 1285l-73 -101l-282 128l-341 -128l-25 101l406 220z" />
<glyph unicode="&#x1eae;" d="M452 288l-156 -288h-302l827 1521h430l192 -1521h-296l-38 288h-657zM998 1298h-4l-429 -789h526zM880 1932q-4 -77 45.5 -125.5t126.5 -48.5q39 0 76.5 13t71 36.5t59.5 55t41 69.5h134q-18 -67 -59.5 -126t-97.5 -103.5t-122 -69.5t-133 -25q-69 0 -124 25t-92.5 69.5 t-53.5 103.5t-6 126h134zM1468 2105l-429 -175l-33 105l407 236z" />
<glyph unicode="&#x1eaf;" horiz-adv-x="1193" d="M677 478q-48 0 -90.5 -2t-78.5 -16t-60 -45.5t-36 -87.5q-13 -58 -7.5 -90t29.5 -49.5t67.5 -21.5t108.5 -4q51 0 94.5 4t79 21.5t60 49.5t36.5 90q12 54 0 86t-41.5 45.5t-72 16.5t-89.5 3zM849 134h-6q-30 -53 -72.5 -82t-91 -43.5t-99 -17.5t-98.5 -3q-91 0 -162 12 t-114.5 48.5t-57.5 103.5t8 175q20 95 58.5 157.5t96.5 100.5t135 52.5t177 14.5q48 0 94.5 -2t86 -13.5t69 -36t44.5 -68.5h8l28 137q14 65 18 109.5t-13.5 72t-60 39.5t-121.5 12q-42 0 -79.5 -4t-68 -18.5t-52 -44.5t-32.5 -81h-256q24 116 76 181t120.5 96t153 38 t175.5 7q127 0 215.5 -14t138.5 -56.5t60 -123.5t-18 -215l-143 -667h-255zM702 1476q-4 -77 45.5 -125.5t126.5 -48.5q39 0 76 13t70.5 36.5t60 54.5t41.5 70h133q-18 -67 -60 -125.5t-97.5 -103.5t-121 -70.5t-133.5 -25.5q-69 0 -123.5 25.5t-92 70.5t-54 103.5 t-6.5 125.5h135zM1308 1656l-430 -174l-33 106l408 235z" />
<glyph unicode="&#x1eb0;" d="M452 288l-156 -288h-302l827 1521h430l192 -1521h-296l-38 288h-657zM998 1298h-4l-429 -789h526zM880 1932q-4 -77 45.5 -125.5t126.5 -48.5q39 0 76.5 13t71 36.5t59.5 55t41 69.5h134q-18 -67 -59.5 -126t-97.5 -103.5t-122 -69.5t-133 -25q-69 0 -124 25t-92.5 69.5 t-53.5 103.5t-6 126h134zM1180 2037l-77 -105l-357 175l128 166z" />
<glyph unicode="&#x1eb1;" horiz-adv-x="1193" d="M677 478q-48 0 -90.5 -2t-78.5 -16t-60 -45.5t-36 -87.5q-13 -58 -7.5 -90t29.5 -49.5t67.5 -21.5t108.5 -4q51 0 94.5 4t79 21.5t60 49.5t36.5 90q12 54 0 86t-41.5 45.5t-72 16.5t-89.5 3zM849 134h-6q-30 -53 -72.5 -82t-91 -43.5t-99 -17.5t-98.5 -3q-91 0 -162 12 t-114.5 48.5t-57.5 103.5t8 175q20 95 58.5 157.5t96.5 100.5t135 52.5t177 14.5q48 0 94.5 -2t86 -13.5t69 -36t44.5 -68.5h8l28 137q14 65 18 109.5t-13.5 72t-60 39.5t-121.5 12q-42 0 -79.5 -4t-68 -18.5t-52 -44.5t-32.5 -81h-256q24 116 76 181t120.5 96t153 38 t175.5 7q127 0 215.5 -14t138.5 -56.5t60 -123.5t-18 -215l-143 -667h-255zM702 1476q-4 -77 45.5 -125.5t126.5 -48.5q39 0 76 13t70.5 36.5t60 54.5t41.5 70h133q-18 -67 -60 -125.5t-97.5 -103.5t-121 -70.5t-133.5 -25.5q-69 0 -123.5 25.5t-92 70.5t-54 103.5 t-6.5 125.5h135zM1012 1579l-77 -105l-357 174l128 167z" />
<glyph unicode="&#x1eb2;" d="M452 288l-156 -288h-302l827 1521h430l192 -1521h-296l-38 288h-657zM998 1298h-4l-429 -789h526zM880 1932q-4 -77 45.5 -125.5t126.5 -48.5q39 0 76.5 13t71 36.5t59.5 55t41 69.5h134q-18 -67 -59.5 -126t-97.5 -103.5t-122 -69.5t-133 -25q-69 0 -124 25t-92.5 69.5 t-53.5 103.5t-6 126h134zM1004 1904l8 40q30 134 150 167h2q2 2 21.5 9t23.5 27l6 35q2 16 -8.5 22t-24.5 6h-43q-20 0 -29 -7t-11 -15l-2 -6l-10 -54h-143l11 54q12 54 31.5 89t53.5 53q28 15 64.5 21.5t89.5 6.5q102 0 141 -32q48 -39 27 -138q-8 -39 -16 -66.5t-24 -49.5 q-18 -25 -43.5 -41.5t-65.5 -29.5q-6 -2 -13.5 -4t-11.5 -4h-2q-16 -10 -20 -16t-4 -11v-2l-13 -54h-145z" />
<glyph unicode="&#x1eb3;" horiz-adv-x="1193" d="M677 478q-48 0 -90.5 -2t-78.5 -16t-60 -45.5t-36 -87.5q-13 -58 -7.5 -90t29.5 -49.5t67.5 -21.5t108.5 -4q51 0 94.5 4t79 21.5t60 49.5t36.5 90q12 54 0 86t-41.5 45.5t-72 16.5t-89.5 3zM849 134h-6q-30 -53 -72.5 -82t-91 -43.5t-99 -17.5t-98.5 -3q-91 0 -162 12 t-114.5 48.5t-57.5 103.5t8 175q20 95 58.5 157.5t96.5 100.5t135 52.5t177 14.5q48 0 94.5 -2t86 -13.5t69 -36t44.5 -68.5h8l28 137q14 65 18 109.5t-13.5 72t-60 39.5t-121.5 12q-42 0 -79.5 -4t-68 -18.5t-52 -44.5t-32.5 -81h-256q24 116 76 181t120.5 96t153 38 t175.5 7q127 0 215.5 -14t138.5 -56.5t60 -123.5t-18 -215l-143 -667h-255zM702 1476q-4 -77 45.5 -125.5t126.5 -48.5q39 0 76 13t70.5 36.5t60 54.5t41.5 70h133q-18 -67 -60 -125.5t-97.5 -103.5t-121 -70.5t-133.5 -25.5q-69 0 -123.5 25.5t-92 70.5t-54 103.5 t-6.5 125.5h135zM828 1453l8 41q29 135 149 166h2q2 2 21.5 9.5t23.5 27.5l7 35q1 15 -9 21.5t-24 6.5h-43q-21 0 -29.5 -7.5t-10.5 -15.5l-2 -5l-10 -53h-143l10 53q13 54 32.5 88.5t52.5 52.5q29 17 65.5 23t89.5 6q101 0 139 -33q50 -38 29 -137q-8 -39 -16 -66.5 t-25 -49.5q-17 -24 -43 -41.5t-65 -29.5q-7 -2 -14 -4.5t-11 -4.5h-2q-16 -9 -21 -15q-4 -6 -4 -10v-2l-12 -56h-145z" />
<glyph unicode="&#x1eb4;" d="M452 288l-156 -288h-302l827 1521h430l192 -1521h-296l-38 288h-657zM998 1298h-4l-429 -789h526zM880 1932q-4 -77 45.5 -125.5t126.5 -48.5q39 0 76.5 13t71 36.5t59.5 55t41 69.5h134q-18 -67 -59.5 -126t-97.5 -103.5t-122 -69.5t-133 -25q-69 0 -124 25t-92.5 69.5 t-53.5 103.5t-6 126h134zM1527 2159q-53 -71 -119 -123.5t-153 -52.5q-44 0 -82.5 17.5t-73.5 38.5t-67 38.5t-63 17.5q-44 0 -72.5 -26t-54.5 -59l-116 70q52 69 118.5 120.5t151.5 51.5q41 0 79 -18t73.5 -39.5t70 -39.5t64.5 -18q41 0 74.5 29.5t60.5 61.5z" />
<glyph unicode="&#x1eb5;" horiz-adv-x="1193" d="M677 478q-48 0 -90.5 -2t-78.5 -16t-60 -45.5t-36 -87.5q-13 -58 -7.5 -90t29.5 -49.5t67.5 -21.5t108.5 -4q51 0 94.5 4t79 21.5t60 49.5t36.5 90q12 54 0 86t-41.5 45.5t-72 16.5t-89.5 3zM849 134h-6q-30 -53 -72.5 -82t-91 -43.5t-99 -17.5t-98.5 -3q-91 0 -162 12 t-114.5 48.5t-57.5 103.5t8 175q20 95 58.5 157.5t96.5 100.5t135 52.5t177 14.5q48 0 94.5 -2t86 -13.5t69 -36t44.5 -68.5h8l28 137q14 65 18 109.5t-13.5 72t-60 39.5t-121.5 12q-42 0 -79.5 -4t-68 -18.5t-52 -44.5t-32.5 -81h-256q24 116 76 181t120.5 96t153 38 t175.5 7q127 0 215.5 -14t138.5 -56.5t60 -123.5t-18 -215l-143 -667h-255zM702 1476q-4 -77 45.5 -125.5t126.5 -48.5q39 0 76 13t70.5 36.5t60 54.5t41.5 70h133q-18 -67 -60 -125.5t-97.5 -103.5t-121 -70.5t-133.5 -25.5q-69 0 -123.5 25.5t-92 70.5t-54 103.5 t-6.5 125.5h135zM1354 1689q-52 -71 -118 -123.5t-153 -52.5q-44 0 -83 17t-73.5 38.5t-66.5 38.5t-63 17q-45 0 -73.5 -25.5t-54.5 -60.5l-116 72q53 69 119 120.5t151 51.5q40 0 78.5 -18.5t74.5 -39.5t70.5 -39.5t64.5 -18.5q40 0 74 30t59 62z" />
<glyph unicode="&#x1eb6;" d="M452 288l-156 -288h-302l827 1521h430l192 -1521h-296l-38 288h-657zM998 1298h-4l-429 -789h526zM805 -422h-256l59 278h255zM855 1932q-4 -77 46 -125.5t127 -48.5q38 0 75.5 13t71.5 36.5t60 55t40 69.5h134q-18 -67 -59.5 -126t-97.5 -103.5t-122 -69.5t-132 -25 q-69 0 -124 25t-92.5 69.5t-53.5 103.5t-6 126h133z" />
<glyph unicode="&#x1eb7;" horiz-adv-x="1193" d="M677 478q-48 0 -90.5 -2t-78.5 -16t-60 -45.5t-36 -87.5q-13 -58 -7.5 -90t29.5 -49.5t67.5 -21.5t108.5 -4q51 0 94.5 4t79 21.5t60 49.5t36.5 90q12 54 0 86t-41.5 45.5t-72 16.5t-89.5 3zM849 134h-6q-30 -53 -72.5 -82t-91 -43.5t-99 -17.5t-98.5 -3q-91 0 -162 12 t-114.5 48.5t-57.5 103.5t8 175q20 95 58.5 157.5t96.5 100.5t135 52.5t177 14.5q48 0 94.5 -2t86 -13.5t69 -36t44.5 -68.5h8l28 137q14 65 18 109.5t-13.5 72t-60 39.5t-121.5 12q-42 0 -79.5 -4t-68 -18.5t-52 -44.5t-32.5 -81h-256q24 116 76 181t120.5 96t153 38 t175.5 7q127 0 215.5 -14t138.5 -56.5t60 -123.5t-18 -215l-143 -667h-255zM695 -422h-255l59 278h255zM675 1476q-4 -77 45.5 -125.5t126.5 -48.5q39 0 76.5 13t71 36.5t60 54.5t40.5 70h134q-18 -67 -59.5 -125.5t-97.5 -103.5t-122 -70.5t-133 -25.5q-69 0 -123.5 25.5 t-92.5 70.5t-53.5 103.5t-5.5 125.5h133z" />
<glyph unicode="&#x1eb8;" horiz-adv-x="1255" d="M596 892h712l-53 -240h-711l-86 -403h757l-53 -249h-1048l322 1521h1042l-52 -250h-751zM726 -422h-256l60 278h255z" />
<glyph unicode="&#x1eb9;" horiz-adv-x="1155" d="M1143 339q-26 -126 -75.5 -196t-121.5 -104.5t-165.5 -42.5t-206.5 -8q-152 0 -242 26.5t-132 89t-39 167t36 259.5q30 141 68.5 244.5t104.5 170.5t169.5 99t265.5 32q164 0 256 -27t130 -94t30 -181.5t-45 -289.5h-731q-19 -85 -27 -143.5t7 -93t60 -50t130 -15.5 q52 0 96.5 2t80.5 16.5t60 47t36 91.5h255zM955 646q18 82 19 129.5t-20 71t-66.5 29.5t-125.5 6q-83 0 -131.5 -10.5t-78 -36.5t-44.5 -71.5t-30 -117.5h477zM675 -422h-255l58 278h256z" />
<glyph unicode="&#x1eba;" horiz-adv-x="1255" d="M596 892h712l-53 -240h-711l-86 -403h757l-53 -249h-1048l322 1521h1042l-52 -250h-751zM921 1629l8 40q30 134 150 165h2q2 2 21.5 9.5t23.5 27.5l6 35q2 17 -8.5 22.5t-24.5 5.5h-43q-19 0 -28.5 -7t-11.5 -15l-2 -6l-10 -53h-143l11 53q12 54 31.5 89t53.5 52 q28 17 64.5 23t89.5 6q102 0 140 -33q49 -38 28 -137q-8 -39 -16 -66t-25 -50q-17 -24 -42.5 -41t-65.5 -29q-6 -2 -13.5 -4t-11.5 -4h-2q-16 -11 -20 -17t-4 -10v-2l-13 -54h-145z" />
<glyph unicode="&#x1ebb;" horiz-adv-x="1155" d="M1143 339q-26 -126 -75.5 -196t-121.5 -104.5t-165.5 -42.5t-206.5 -8q-152 0 -242 26.5t-132 89t-39 167t36 259.5q30 141 68.5 244.5t104.5 170.5t169.5 99t265.5 32q164 0 256 -27t130 -94t30 -181.5t-45 -289.5h-731q-19 -85 -27 -143.5t7 -93t60 -50t130 -15.5 q52 0 96.5 2t80.5 16.5t60 47t36 91.5h255zM955 646q18 82 19 129.5t-20 71t-66.5 29.5t-125.5 6q-83 0 -131.5 -10.5t-78 -36.5t-44.5 -71.5t-30 -117.5h477zM724 1172l8 41q30 133 150 166h2q2 2 21.5 9t23.5 28l6 33q2 17 -8 23t-25 6h-43q-19 0 -28.5 -7t-11.5 -16 l-2 -6l-10 -52h-142l10 52q12 56 31.5 90t53.5 53q29 16 65 22t90 6q101 0 139 -32q49 -39 29 -139q-9 -38 -17 -65.5t-24 -48.5q-18 -25 -43.5 -42.5t-65.5 -29.5q-6 -2 -13 -4t-11 -4h-3q-16 -11 -20 -17q-4 -5 -4 -9v-2l-12 -55h-146z" />
<glyph unicode="&#x1ebc;" horiz-adv-x="1255" d="M596 892h712l-53 -240h-711l-86 -403h757l-53 -249h-1048l322 1521h1042l-52 -250h-751zM1418 1815q-54 -72 -119.5 -124.5t-153.5 -52.5q-44 0 -82.5 17.5t-73 39t-67 38t-63.5 16.5q-44 0 -72.5 -25t-54.5 -60l-115 71q52 70 118 121.5t151 51.5q41 0 79.5 -18.5 t73.5 -39.5t69.5 -39.5t65.5 -18.5q41 0 74 29.5t60 62.5z" />
<glyph unicode="&#x1ebd;" horiz-adv-x="1155" d="M1143 339q-26 -126 -75.5 -196t-121.5 -104.5t-165.5 -42.5t-206.5 -8q-152 0 -242 26.5t-132 89t-39 167t36 259.5q30 141 68.5 244.5t104.5 170.5t169.5 99t265.5 32q164 0 256 -27t130 -94t30 -181.5t-45 -289.5h-731q-19 -85 -27 -143.5t7 -93t60 -50t130 -15.5 q52 0 96.5 2t80.5 16.5t60 47t36 91.5h255zM955 646q18 82 19 129.5t-20 71t-66.5 29.5t-125.5 6q-83 0 -131.5 -10.5t-78 -36.5t-44.5 -71.5t-30 -117.5h477zM1249 1358q-53 -71 -119 -123.5t-153 -52.5q-44 0 -83 17.5t-73 38.5t-66.5 38.5t-63.5 17.5q-45 0 -73 -26 t-55 -59l-115 70q53 69 119 120.5t151 51.5q40 0 79 -17.5t74 -39.5t69.5 -40t65.5 -18q40 0 73.5 29.5t59.5 62.5z" />
<glyph unicode="&#x1ebe;" horiz-adv-x="1255" d="M596 892h712l-53 -240h-711l-86 -403h757l-53 -249h-1048l322 1521h1042l-52 -250h-751zM1360 1741l-73 -101l-283 128l-339 -128l-26 101l407 219zM1832 1991l-429 -174l-33 106l408 234z" />
<glyph unicode="&#x1ebf;" horiz-adv-x="1155" d="M1143 339q-26 -126 -75.5 -196t-121.5 -104.5t-165.5 -42.5t-206.5 -8q-152 0 -242 26.5t-132 89t-39 167t36 259.5q30 141 68.5 244.5t104.5 170.5t169.5 99t265.5 32q164 0 256 -27t130 -94t30 -181.5t-45 -289.5h-731q-19 -85 -27 -143.5t7 -93t60 -50t130 -15.5 q52 0 96.5 2t80.5 16.5t60 47t36 91.5h255zM955 646q18 82 19 129.5t-20 71t-66.5 29.5t-125.5 6q-83 0 -131.5 -10.5t-78 -36.5t-44.5 -71.5t-30 -117.5h477zM1213 1285l-74 -101l-282 128l-340 -128l-26 101l407 220zM1693 1521l-430 -175l-32 105l407 236z" />
<glyph unicode="&#x1ec0;" horiz-adv-x="1255" d="M596 892h712l-53 -240h-711l-86 -403h757l-53 -249h-1048l322 1521h1042l-52 -250h-751zM1360 1741l-73 -101l-283 128l-339 -128l-26 101l407 219zM1565 1960l-77 -105l-356 175l127 166z" />
<glyph unicode="&#x1ec1;" horiz-adv-x="1155" d="M1143 339q-26 -126 -75.5 -196t-121.5 -104.5t-165.5 -42.5t-206.5 -8q-152 0 -242 26.5t-132 89t-39 167t36 259.5q30 141 68.5 244.5t104.5 170.5t169.5 99t265.5 32q164 0 256 -27t130 -94t30 -181.5t-45 -289.5h-731q-19 -85 -27 -143.5t7 -93t60 -50t130 -15.5 q52 0 96.5 2t80.5 16.5t60 47t36 91.5h255zM955 646q18 82 19 129.5t-20 71t-66.5 29.5t-125.5 6q-83 0 -131.5 -10.5t-78 -36.5t-44.5 -71.5t-30 -117.5h477zM1213 1285l-74 -101l-282 128l-340 -128l-26 101l407 220zM1407 1519l-77 -106l-357 175l128 166z" />
<glyph unicode="&#x1ec2;" horiz-adv-x="1255" d="M596 892h712l-53 -240h-711l-86 -403h757l-53 -249h-1048l322 1521h1042l-52 -250h-751zM1360 1741l-73 -101l-283 128l-339 -128l-26 101l407 219zM1249 1920l8 40q30 135 150 167h2q2 1 21 8.5t23 27.5l7 35q2 16 -8.5 22.5t-23.5 6.5h-43q-21 0 -30 -7.5t-11 -15.5 l-2 -6l-9 -53h-143l10 53q13 54 32 89t53 52q29 17 65.5 23t88.5 6q101 0 140 -33q50 -38 29 -137q-8 -39 -16.5 -66t-24.5 -50q-18 -24 -43.5 -41t-65.5 -29q-7 -2 -14 -4.5t-10 -4.5h-2q-16 -10 -21 -16q-4 -6 -4 -10v-2l-12 -55h-146z" />
<glyph unicode="&#x1ec3;" horiz-adv-x="1155" d="M1143 339q-26 -126 -75.5 -196t-121.5 -104.5t-165.5 -42.5t-206.5 -8q-152 0 -242 26.5t-132 89t-39 167t36 259.5q30 141 68.5 244.5t104.5 170.5t169.5 99t265.5 32q164 0 256 -27t130 -94t30 -181.5t-45 -289.5h-731q-19 -85 -27 -143.5t7 -93t60 -50t130 -15.5 q52 0 96.5 2t80.5 16.5t60 47t36 91.5h255zM955 646q18 82 19 129.5t-20 71t-66.5 29.5t-125.5 6q-83 0 -131.5 -10.5t-78 -36.5t-44.5 -71.5t-30 -117.5h477zM1213 1285l-74 -101l-282 128l-340 -128l-26 101l407 220zM1097 1470l8 41q31 133 150 166h2q2 2 21.5 9t23.5 28 l6 33q2 17 -8 23t-25 6h-42q-20 0 -29.5 -7t-11.5 -15l-2 -7l-10 -52h-141l9 52q12 56 31.5 90t54.5 53q28 16 64.5 22t88.5 6q102 0 141 -32q48 -39 27 -139q-8 -38 -15.5 -65.5t-23.5 -48.5q-19 -25 -44.5 -42.5t-65.5 -29.5q-6 -2 -13.5 -4t-11.5 -4h-2q-16 -10 -20 -17 q-4 -5 -4 -9v-2l-13 -55h-145z" />
<glyph unicode="&#x1ec4;" horiz-adv-x="1255" d="M596 892h712l-53 -240h-711l-86 -403h757l-53 -249h-1048l322 1521h1042l-52 -250h-751zM1360 1741l-73 -101l-283 128l-339 -128l-26 101l407 219zM1494 2157q-53 -71 -118.5 -123.5t-152.5 -52.5q-45 0 -83.5 17.5t-73 38.5t-67 38.5t-62.5 17.5q-45 0 -73 -26t-55 -59 l-116 70q53 69 119 120.5t151 51.5q41 0 79.5 -18t73.5 -39.5t70 -39.5t65 -18q41 0 74 29.5t60 62.5z" />
<glyph unicode="&#x1ec5;" horiz-adv-x="1155" d="M1143 339q-26 -126 -75.5 -196t-121.5 -104.5t-165.5 -42.5t-206.5 -8q-152 0 -242 26.5t-132 89t-39 167t36 259.5q30 141 68.5 244.5t104.5 170.5t169.5 99t265.5 32q164 0 256 -27t130 -94t30 -181.5t-45 -289.5h-731q-19 -85 -27 -143.5t7 -93t60 -50t130 -15.5 q52 0 96.5 2t80.5 16.5t60 47t36 91.5h255zM955 646q18 82 19 129.5t-20 71t-66.5 29.5t-125.5 6q-83 0 -131.5 -10.5t-78 -36.5t-44.5 -71.5t-30 -117.5h477zM1213 1285l-74 -101l-282 128l-340 -128l-26 101l407 220zM1368 1703q-52 -70 -118 -123t-153 -53 q-45 0 -83.5 17t-73 38.5t-66.5 38.5t-63 17q-45 0 -73 -25t-55 -60l-116 71q54 69 119.5 121t151.5 52q40 0 78.5 -18.5t74 -39.5t70 -39.5t65.5 -18.5q40 0 73.5 29t59.5 62z" />
<glyph unicode="&#x1ec6;" horiz-adv-x="1255" d="M596 892h712l-53 -240h-711l-86 -403h757l-53 -249h-1048l322 1521h1042l-52 -250h-751zM726 -422h-256l60 278h255zM1370 1741l-72 -101l-282 128l-341 -128l-27 101l408 219z" />
<glyph unicode="&#x1ec7;" horiz-adv-x="1155" d="M1143 339q-26 -126 -75.5 -196t-121.5 -104.5t-165.5 -42.5t-206.5 -8q-152 0 -242 26.5t-132 89t-39 167t36 259.5q30 141 68.5 244.5t104.5 170.5t169.5 99t265.5 32q164 0 256 -27t130 -94t30 -181.5t-45 -289.5h-731q-19 -85 -27 -143.5t7 -93t60 -50t130 -15.5 q52 0 96.5 2t80.5 16.5t60 47t36 91.5h255zM955 646q18 82 19 129.5t-20 71t-66.5 29.5t-125.5 6q-83 0 -131.5 -10.5t-78 -36.5t-44.5 -71.5t-30 -117.5h477zM675 -422h-255l58 278h256zM1223 1285l-74 -101l-281 128l-341 -128l-26 101l408 220z" />
<glyph unicode="&#x1ec8;" horiz-adv-x="559" d="M426 0h-292l322 1521h292zM530 1629l8 40q29 134 149 165h2q2 2 21.5 9.5t23.5 27.5l7 35q1 17 -9 22.5t-24 5.5h-43q-21 0 -29.5 -7t-10.5 -15l-2 -6l-11 -53h-142l10 53q13 54 32.5 89t52.5 52q29 17 65.5 23t89.5 6q101 0 139 -33q50 -38 29 -137q-8 -39 -16.5 -66 t-24.5 -50q-17 -24 -43 -41t-66 -29q-6 -2 -13 -4t-11 -4h-2q-17 -11 -21 -17t-4 -10v-2l-12 -54h-145z" />
<glyph unicode="&#x1ec9;" horiz-adv-x="478" d="M594 1064h-255l-227 -1064h255zM408 1172l8 41q30 133 149 166h2q2 2 21.5 9t23.5 28l7 33q2 17 -8.5 23t-24.5 6h-42q-21 0 -30 -7t-11 -16l-2 -6l-10 -52h-143l10 52q13 56 32.5 90t54.5 53q27 16 63.5 22t89.5 6q102 0 140 -32q49 -39 28 -139q-8 -38 -16 -65.5 t-24 -48.5q-18 -25 -43.5 -42.5t-65.5 -29.5l-14 -4t-11 -4h-2q-16 -11 -21 -17q-4 -5 -4 -9v-2l-12 -55h-145z" />
<glyph unicode="&#x1eca;" horiz-adv-x="559" d="M426 0h-292l322 1521h292zM316 -422h-256l60 278h255z" />
<glyph unicode="&#x1ecb;" horiz-adv-x="478" d="M367 0h-255l227 1064h255zM644 1304h-255l45 217h255zM298 -422h-255l58 278h255z" />
<glyph unicode="&#x1ecc;" horiz-adv-x="1449" d="M1048 1533q165 0 282 -18.5t186.5 -76t84.5 -168.5t-24 -293l-85 -410q-39 -182 -99 -295.5t-153 -176t-220.5 -85t-299.5 -22.5q-176 0 -295 20.5t-182 82t-73 176t31 300.5l85 410q39 176 94.5 285.5t143.5 169.5t216 80.5t308 20.5zM996 1283q-118 0 -190 -14 t-116 -48.5t-67 -93.5t-45 -150l-85 -410q-25 -113 -25 -178.5t31 -99.5t97.5 -42.5t175.5 -8.5q100 0 171 9.5t119.5 44.5t81 100.5t56.5 174.5l85 410q25 108 20 169t-41.5 91t-103.5 38t-164 8zM823 -422h-256l60 278h255z" />
<glyph unicode="&#x1ecd;" horiz-adv-x="1180" d="M819 1076q166 0 259.5 -27t132 -90t32.5 -168.5t-38 -258.5q-33 -155 -71.5 -259.5t-103.5 -167t-170.5 -90t-271.5 -27.5t-259 27.5t-132 90t-33 167t39 259.5q33 153 71 258.5t103 168.5t170 90t272 27zM776 882q-85 0 -136.5 -14.5t-85 -54t-54 -108t-44.5 -175.5 q-22 -108 -30 -175t9 -105.5t63 -53t131 -14.5t136.5 14.5t85 53t54 105.5t41.5 175q25 107 33 175.5t-9 108t-63 54t-131 14.5zM687 -422h-255l59 278h255z" />
<glyph unicode="&#x1ece;" horiz-adv-x="1449" d="M1048 1533q165 0 282 -18.5t186.5 -76t84.5 -168.5t-24 -293l-85 -410q-39 -182 -99 -295.5t-153 -176t-220.5 -85t-299.5 -22.5q-176 0 -295 20.5t-182 82t-73 176t31 300.5l85 410q39 176 94.5 285.5t143.5 169.5t216 80.5t308 20.5zM996 1283q-118 0 -190 -14 t-116 -48.5t-67 -93.5t-45 -150l-85 -410q-25 -113 -25 -178.5t31 -99.5t97.5 -42.5t175.5 -8.5q100 0 171 9.5t119.5 44.5t81 100.5t56.5 174.5l85 410q25 108 20 169t-41.5 91t-103.5 38t-164 8zM985 1629l9 40q30 134 149 165h2q2 2 21.5 9.5t23.5 27.5l6 35 q2 17 -8 22.5t-24 5.5h-42q-21 0 -30 -7t-11 -15l-2 -6l-11 -53h-141l10 53q11 54 30.5 89t54.5 52q28 17 65 23t89 6q101 0 140 -33q48 -38 28 -137q-8 -39 -16 -66t-24 -50q-19 -24 -44 -41t-66 -29q-6 -2 -13 -4t-11 -4h-2q-17 -11 -21 -17t-4 -10v-2l-11 -54h-147z" />
<glyph unicode="&#x1ecf;" horiz-adv-x="1180" d="M819 1076q166 0 259.5 -27t132 -90t32.5 -168.5t-38 -258.5q-33 -155 -71.5 -259.5t-103.5 -167t-170.5 -90t-271.5 -27.5t-259 27.5t-132 90t-33 167t39 259.5q33 153 71 258.5t103 168.5t170 90t272 27zM776 882q-85 0 -136.5 -14.5t-85 -54t-54 -108t-44.5 -175.5 q-22 -108 -30 -175t9 -105.5t63 -53t131 -14.5t136.5 14.5t85 53t54 105.5t41.5 175q25 107 33 175.5t-9 108t-63 54t-131 14.5zM728 1172l8 41q30 133 150 166h2q2 2 21.5 9t23.5 28l6 33q1 17 -8.5 23t-24.5 6h-43q-20 0 -28.5 -7t-11.5 -16l-2 -6l-10 -52h-142l10 52 q12 56 31.5 90t53.5 53q29 16 65 22t90 6q101 0 139 -32q49 -39 29 -139q-8 -38 -16.5 -65.5t-24.5 -48.5q-18 -25 -43.5 -42.5t-65.5 -29.5q-6 -2 -13 -4t-11 -4h-2q-17 -11 -21 -17q-4 -5 -4 -9v-2l-12 -55h-146z" />
<glyph unicode="&#x1ed0;" horiz-adv-x="1449" d="M1048 1533q165 0 282 -18.5t186.5 -76t84.5 -168.5t-24 -293l-85 -410q-39 -182 -99 -295.5t-153 -176t-220.5 -85t-299.5 -22.5q-176 0 -295 20.5t-182 82t-73 176t31 300.5l85 410q39 176 94.5 285.5t143.5 169.5t216 80.5t308 20.5zM996 1283q-118 0 -190 -14 t-116 -48.5t-67 -93.5t-45 -150l-85 -410q-25 -113 -25 -178.5t31 -99.5t97.5 -42.5t175.5 -8.5q100 0 171 9.5t119.5 44.5t81 100.5t56.5 174.5l85 410q25 108 20 169t-41.5 91t-103.5 38t-164 8zM1458 1741l-73 -101l-284 128l-339 -128l-26 101l407 219zM1894 1989 l-430 -174l-32 105l407 235z" />
<glyph unicode="&#x1ed1;" horiz-adv-x="1180" d="M819 1076q166 0 259.5 -27t132 -90t32.5 -168.5t-38 -258.5q-33 -155 -71.5 -259.5t-103.5 -167t-170.5 -90t-271.5 -27.5t-259 27.5t-132 90t-33 167t39 259.5q33 153 71 258.5t103 168.5t170 90t272 27zM776 882q-85 0 -136.5 -14.5t-85 -54t-54 -108t-44.5 -175.5 q-22 -108 -30 -175t9 -105.5t63 -53t131 -14.5t136.5 14.5t85 53t54 105.5t41.5 175q25 107 33 175.5t-9 108t-63 54t-131 14.5zM1225 1285l-74 -101l-281 128l-340 -128l-27 101l408 220zM1695 1533l-430 -175l-32 106l407 235z" />
<glyph unicode="&#x1ed2;" horiz-adv-x="1449" d="M1048 1533q165 0 282 -18.5t186.5 -76t84.5 -168.5t-24 -293l-85 -410q-39 -182 -99 -295.5t-153 -176t-220.5 -85t-299.5 -22.5q-176 0 -295 20.5t-182 82t-73 176t31 300.5l85 410q39 176 94.5 285.5t143.5 169.5t216 80.5t308 20.5zM996 1283q-118 0 -190 -14 t-116 -48.5t-67 -93.5t-45 -150l-85 -410q-25 -113 -25 -178.5t31 -99.5t97.5 -42.5t175.5 -8.5q100 0 171 9.5t119.5 44.5t81 100.5t56.5 174.5l85 410q25 108 20 169t-41.5 91t-103.5 38t-164 8zM1458 1741l-73 -101l-284 128l-339 -128l-26 101l407 219zM799 1920 l-77 -105l-357 174l128 166z" />
<glyph unicode="&#x1ed3;" horiz-adv-x="1180" d="M819 1076q166 0 259.5 -27t132 -90t32.5 -168.5t-38 -258.5q-33 -155 -71.5 -259.5t-103.5 -167t-170.5 -90t-271.5 -27.5t-259 27.5t-132 90t-33 167t39 259.5q33 153 71 258.5t103 168.5t170 90t272 27zM776 882q-85 0 -136.5 -14.5t-85 -54t-54 -108t-44.5 -175.5 q-22 -108 -30 -175t9 -105.5t63 -53t131 -14.5t136.5 14.5t85 53t54 105.5t41.5 175q25 107 33 175.5t-9 108t-63 54t-131 14.5zM1225 1285l-74 -101l-281 128l-340 -128l-27 101l408 220zM551 1439l-77 -104l-356 174l128 166z" />
<glyph unicode="&#x1ed4;" horiz-adv-x="1449" d="M1048 1533q165 0 282 -18.5t186.5 -76t84.5 -168.5t-24 -293l-85 -410q-39 -182 -99 -295.5t-153 -176t-220.5 -85t-299.5 -22.5q-176 0 -295 20.5t-182 82t-73 176t31 300.5l85 410q39 176 94.5 285.5t143.5 169.5t216 80.5t308 20.5zM996 1283q-118 0 -190 -14 t-116 -48.5t-67 -93.5t-45 -150l-85 -410q-25 -113 -25 -178.5t31 -99.5t97.5 -42.5t175.5 -8.5q100 0 171 9.5t119.5 44.5t81 100.5t56.5 174.5l85 410q25 108 20 169t-41.5 91t-103.5 38t-164 8zM1458 1741l-73 -101l-284 128l-339 -128l-26 101l407 219zM1377 1884l8 41 q31 133 149 165h2q2 3 21.5 10t23.5 27l7 34q2 17 -8.5 23t-24.5 6h-42q-21 0 -30 -7t-11 -16l-2 -6l-10 -52h-142l10 52q12 55 31.5 89.5t53.5 53.5q28 16 65 21.5t89 5.5q102 0 140 -32q49 -38 28 -138q-7 -38 -15 -65.5t-25 -50.5q-18 -23 -43.5 -40.5t-65.5 -29.5 l-14 -4t-11 -4h-2q-16 -11 -21 -17q-4 -6 -4 -10v-2l-11 -54h-146z" />
<glyph unicode="&#x1ed5;" horiz-adv-x="1180" d="M819 1076q166 0 259.5 -27t132 -90t32.5 -168.5t-38 -258.5q-33 -155 -71.5 -259.5t-103.5 -167t-170.5 -90t-271.5 -27.5t-259 27.5t-132 90t-33 167t39 259.5q33 153 71 258.5t103 168.5t170 90t272 27zM776 882q-85 0 -136.5 -14.5t-85 -54t-54 -108t-44.5 -175.5 q-22 -108 -30 -175t9 -105.5t63 -53t131 -14.5t136.5 14.5t85 53t54 105.5t41.5 175q25 107 33 175.5t-9 108t-63 54t-131 14.5zM1225 1285l-74 -101l-281 128l-340 -128l-27 101l408 220zM1132 1430l7 40q31 134 151 166h2q2 2 21.5 9t22.5 28l6 34q2 17 -8 22.5t-24 5.5 h-43q-20 0 -29 -6.5t-11 -14.5l-2 -7l-10 -53h-143l11 53q12 55 31.5 89.5t53.5 52.5q28 16 64.5 22t89.5 6q102 0 140 -32q49 -38 28 -138q-8 -38 -16 -65.5t-25 -49.5q-17 -25 -42.5 -42t-66.5 -29q-5 -2 -12.5 -4t-11.5 -4h-2q-16 -10 -20 -17q-4 -6 -4 -10v-2l-13 -54 h-145z" />
<glyph unicode="&#x1ed6;" horiz-adv-x="1449" d="M1048 1533q165 0 282 -18.5t186.5 -76t84.5 -168.5t-24 -293l-85 -410q-39 -182 -99 -295.5t-153 -176t-220.5 -85t-299.5 -22.5q-176 0 -295 20.5t-182 82t-73 176t31 300.5l85 410q39 176 94.5 285.5t143.5 169.5t216 80.5t308 20.5zM996 1283q-118 0 -190 -14 t-116 -48.5t-67 -93.5t-45 -150l-85 -410q-25 -113 -25 -178.5t31 -99.5t97.5 -42.5t175.5 -8.5q100 0 171 9.5t119.5 44.5t81 100.5t56.5 174.5l85 410q25 108 20 169t-41.5 91t-103.5 38t-164 8zM1458 1741l-73 -101l-284 128l-339 -128l-26 101l407 219zM1614 2167 q-53 -70 -118.5 -123t-153.5 -53q-44 0 -82.5 17.5t-73.5 38.5t-67 38.5t-63 17.5q-44 0 -72.5 -25.5t-54.5 -59.5l-116 70q52 69 118.5 121t151.5 52q41 0 79 -18t73.5 -39.5t70 -40t64.5 -18.5q41 0 74.5 29.5t60.5 61.5z" />
<glyph unicode="&#x1ed7;" horiz-adv-x="1180" d="M819 1076q166 0 259.5 -27t132 -90t32.5 -168.5t-38 -258.5q-33 -155 -71.5 -259.5t-103.5 -167t-170.5 -90t-271.5 -27.5t-259 27.5t-132 90t-33 167t39 259.5q33 153 71 258.5t103 168.5t170 90t272 27zM776 882q-85 0 -136.5 -14.5t-85 -54t-54 -108t-44.5 -175.5 q-22 -108 -30 -175t9 -105.5t63 -53t131 -14.5t136.5 14.5t85 53t54 105.5t41.5 175q25 107 33 175.5t-9 108t-63 54t-131 14.5zM1225 1285l-74 -101l-281 128l-340 -128l-27 101l408 220zM1377 1687q-53 -71 -119 -123.5t-153 -52.5q-45 0 -83.5 17t-72.5 38.5t-67 38.5 t-63 17q-45 0 -73 -25.5t-55 -60.5l-115 72q53 69 118.5 120.5t150.5 51.5q41 0 79.5 -18.5t74 -39.5t70 -39.5t65.5 -18.5q40 0 73 30t60 62z" />
<glyph unicode="&#x1ed8;" horiz-adv-x="1449" d="M1048 1533q165 0 282 -18.5t186.5 -76t84.5 -168.5t-24 -293l-85 -410q-39 -182 -99 -295.5t-153 -176t-220.5 -85t-299.5 -22.5q-176 0 -295 20.5t-182 82t-73 176t31 300.5l85 410q39 176 94.5 285.5t143.5 169.5t216 80.5t308 20.5zM996 1283q-118 0 -190 -14 t-116 -48.5t-67 -93.5t-45 -150l-85 -410q-25 -113 -25 -178.5t31 -99.5t97.5 -42.5t175.5 -8.5q100 0 171 9.5t119.5 44.5t81 100.5t56.5 174.5l85 410q25 108 20 169t-41.5 91t-103.5 38t-164 8zM823 -422h-256l60 278h255zM1458 1741l-73 -101l-282 128l-341 -128 l-26 101l407 219z" />
<glyph unicode="&#x1ed9;" horiz-adv-x="1180" d="M819 1076q166 0 259.5 -27t132 -90t32.5 -168.5t-38 -258.5q-33 -155 -71.5 -259.5t-103.5 -167t-170.5 -90t-271.5 -27.5t-259 27.5t-132 90t-33 167t39 259.5q33 153 71 258.5t103 168.5t170 90t272 27zM776 882q-85 0 -136.5 -14.5t-85 -54t-54 -108t-44.5 -175.5 q-22 -108 -30 -175t9 -105.5t63 -53t131 -14.5t136.5 14.5t85 53t54 105.5t41.5 175q25 107 33 175.5t-9 108t-63 54t-131 14.5zM687 -422h-255l59 278h255zM1240 1285l-72 -101l-282 128l-341 -128l-26 101l408 220z" />
<glyph unicode="&#x1eda;" horiz-adv-x="1599" d="M1950 1534l-58 -279q-19 -67 -56 -119q-33 -45 -92 -81.5t-158 -36.5q-3 -10 -5 -19.5t-4 -19.5l-85 -410q-39 -182 -99 -295.5t-153 -176t-220.5 -85t-299.5 -22.5q-176 0 -295 20.5t-182 82t-73 176t31 300.5l85 410q39 176 94.5 286t143.5 169.5t216 79.5t308 20 q130 0 230.5 -10.5t170.5 -42.5t109.5 -90t45.5 -154h12q15 -2 26 5q10 7 21.5 20t17.5 40l49 232h220zM1285 979q25 108 20 169t-41.5 91t-103.5 38t-164 8q-118 0 -190 -14t-116 -48.5t-67 -93.5t-45 -150l-85 -410q-25 -113 -25 -178.5t31 -99.5t97.5 -42.5t175.5 -8.5 q100 0 171 9.5t119.5 44.5t81 100.5t56.5 174.5zM1342 1797l-429 -175l-33 106l407 234z" />
<glyph unicode="&#x1edb;" horiz-adv-x="1265" d="M1555 1076l-44 -198q-19 -61 -56 -110q-31 -40 -86 -76.5t-142 -41.5q-4 -27 -10 -57t-12 -61q-33 -155 -71.5 -259.5t-103.5 -167t-170.5 -90t-271.5 -27.5t-259 27.5t-132 90t-33 167t39 259.5q33 153 71 258.5t103 168.5t170 90t272 27q110 0 188 -12t127.5 -37 t75 -66.5t30.5 -101.5h7q14 -2 26 6q10 7 22.5 20t18.5 40l34 151h207zM946 530q25 107 33 175.5t-9 108t-63 54t-131 14.5t-136.5 -14.5t-85 -54t-54 -108t-44.5 -175.5q-22 -108 -30 -175t9 -105.5t63 -53t131 -14.5t136.5 14.5t85 53t54 105.5t41.5 175zM1089 1340 l-430 -174l-32 105l407 236z" />
<glyph unicode="&#x1edc;" horiz-adv-x="1599" d="M1950 1534l-58 -279q-19 -67 -56 -119q-33 -45 -92 -81.5t-158 -36.5q-3 -10 -5 -19.5t-4 -19.5l-85 -410q-39 -182 -99 -295.5t-153 -176t-220.5 -85t-299.5 -22.5q-176 0 -295 20.5t-182 82t-73 176t31 300.5l85 410q39 176 94.5 286t143.5 169.5t216 79.5t308 20 q130 0 230.5 -10.5t170.5 -42.5t109.5 -90t45.5 -154h12q15 -2 26 5q10 7 21.5 20t17.5 40l49 232h220zM1285 979q25 108 20 169t-41.5 91t-103.5 38t-164 8q-118 0 -190 -14t-116 -48.5t-67 -93.5t-45 -150l-85 -410q-25 -113 -25 -178.5t31 -99.5t97.5 -42.5t175.5 -8.5 q100 0 171 9.5t119.5 44.5t81 100.5t56.5 174.5zM1235 1728l-78 -106l-356 175l128 165z" />
<glyph unicode="&#x1edd;" horiz-adv-x="1265" d="M1555 1076l-44 -198q-19 -61 -56 -110q-31 -40 -86 -76.5t-142 -41.5q-4 -27 -10 -57t-12 -61q-33 -155 -71.5 -259.5t-103.5 -167t-170.5 -90t-271.5 -27.5t-259 27.5t-132 90t-33 167t39 259.5q33 153 71 258.5t103 168.5t170 90t272 27q110 0 188 -12t127.5 -37 t75 -66.5t30.5 -101.5h7q14 -2 26 6q10 7 22.5 20t18.5 40l34 151h207zM946 530q25 107 33 175.5t-9 108t-63 54t-131 14.5t-136.5 -14.5t-85 -54t-54 -108t-44.5 -175.5q-22 -108 -30 -175t9 -105.5t63 -53t131 -14.5t136.5 14.5t85 53t54 105.5t41.5 175zM1052 1271 l-77 -105l-356 174l127 167z" />
<glyph unicode="&#x1ede;" horiz-adv-x="1599" d="M1950 1534l-58 -279q-19 -67 -56 -119q-33 -45 -92 -81.5t-158 -36.5q-3 -10 -5 -19.5t-4 -19.5l-85 -410q-39 -182 -99 -295.5t-153 -176t-220.5 -85t-299.5 -22.5q-176 0 -295 20.5t-182 82t-73 176t31 300.5l85 410q39 176 94.5 286t143.5 169.5t216 79.5t308 20 q130 0 230.5 -10.5t170.5 -42.5t109.5 -90t45.5 -154h12q15 -2 26 5q10 7 21.5 20t17.5 40l49 232h220zM1285 979q25 108 20 169t-41.5 91t-103.5 38t-164 8q-118 0 -190 -14t-116 -48.5t-67 -93.5t-45 -150l-85 -410q-25 -113 -25 -178.5t31 -99.5t97.5 -42.5t175.5 -8.5 q100 0 171 9.5t119.5 44.5t81 100.5t56.5 174.5zM946 1629l9 40q30 134 150 165h2q2 2 21 9.5t23 27.5l6 35q2 17 -8 22.5t-23 5.5h-43q-21 0 -30 -7t-11 -15l-2 -6l-10 -53h-142l10 53q13 54 31.5 89t53.5 52q29 17 65.5 23t89.5 6q100 0 139 -33q49 -38 29 -137 q-8 -39 -16.5 -66t-24.5 -50q-18 -24 -43.5 -41t-66.5 -29q-6 -2 -12.5 -4t-10.5 -4h-2q-17 -11 -21 -17t-4 -10v-2l-12 -54h-147z" />
<glyph unicode="&#x1edf;" horiz-adv-x="1265" d="M1555 1076l-44 -198q-19 -61 -56 -110q-31 -40 -86 -76.5t-142 -41.5q-4 -27 -10 -57t-12 -61q-33 -155 -71.5 -259.5t-103.5 -167t-170.5 -90t-271.5 -27.5t-259 27.5t-132 90t-33 167t39 259.5q33 153 71 258.5t103 168.5t170 90t272 27q110 0 188 -12t127.5 -37 t75 -66.5t30.5 -101.5h7q14 -2 26 6q10 7 22.5 20t18.5 40l34 151h207zM946 530q25 107 33 175.5t-9 108t-63 54t-131 14.5t-136.5 -14.5t-85 -54t-54 -108t-44.5 -175.5q-22 -108 -30 -175t9 -105.5t63 -53t131 -14.5t136.5 14.5t85 53t54 105.5t41.5 175zM734 1172l8 41 q30 133 150 166h2q2 2 21.5 9t23.5 28l5 33q2 17 -7.5 23t-23.5 6h-43q-21 0 -29.5 -7t-10.5 -16l-2 -6l-11 -52h-142l10 52q13 56 32 90t53 53q29 16 65.5 22t89.5 6q101 0 139 -32q49 -39 29 -139q-8 -38 -16.5 -65.5t-24.5 -48.5q-18 -25 -43.5 -42.5t-66.5 -29.5 q-5 -2 -12 -4t-11 -4h-2q-17 -11 -21 -17q-4 -5 -4 -9v-2l-12 -55h-146z" />
<glyph unicode="&#x1ee0;" horiz-adv-x="1599" d="M1950 1534l-58 -279q-19 -67 -56 -119q-33 -45 -92 -81.5t-158 -36.5q-3 -10 -5 -19.5t-4 -19.5l-85 -410q-39 -182 -99 -295.5t-153 -176t-220.5 -85t-299.5 -22.5q-176 0 -295 20.5t-182 82t-73 176t31 300.5l85 410q39 176 94.5 286t143.5 169.5t216 79.5t308 20 q130 0 230.5 -10.5t170.5 -42.5t109.5 -90t45.5 -154h12q15 -2 26 5q10 7 21.5 20t17.5 40l49 232h220zM1285 979q25 108 20 169t-41.5 91t-103.5 38t-164 8q-118 0 -190 -14t-116 -48.5t-67 -93.5t-45 -150l-85 -410q-25 -113 -25 -178.5t31 -99.5t97.5 -42.5t175.5 -8.5 q100 0 171 9.5t119.5 44.5t81 100.5t56.5 174.5zM1529 1815q-53 -72 -119 -124.5t-153 -52.5q-44 0 -82.5 17.5t-73.5 39t-67 38t-63 16.5q-44 0 -72.5 -25t-55.5 -60l-115 71q52 70 118.5 121.5t151.5 51.5q41 0 79 -18.5t73.5 -39.5t70 -39.5t64.5 -18.5q41 0 74.5 29.5 t60.5 62.5z" />
<glyph unicode="&#x1ee1;" horiz-adv-x="1265" d="M1555 1076l-44 -198q-19 -61 -56 -110q-31 -40 -86 -76.5t-142 -41.5q-4 -27 -10 -57t-12 -61q-33 -155 -71.5 -259.5t-103.5 -167t-170.5 -90t-271.5 -27.5t-259 27.5t-132 90t-33 167t39 259.5q33 153 71 258.5t103 168.5t170 90t272 27q110 0 188 -12t127.5 -37 t75 -66.5t30.5 -101.5h7q14 -2 26 6q10 7 22.5 20t18.5 40l34 151h207zM946 530q25 107 33 175.5t-9 108t-63 54t-131 14.5t-136.5 -14.5t-85 -54t-54 -108t-44.5 -175.5q-22 -108 -30 -175t9 -105.5t63 -53t131 -14.5t136.5 14.5t85 53t54 105.5t41.5 175zM1294 1358 q-54 -71 -119.5 -123.5t-152.5 -52.5q-45 0 -83.5 17.5t-72.5 38.5t-67 38.5t-63 17.5q-45 0 -73 -26t-55 -59l-115 70q52 69 118 120.5t151 51.5q41 0 79.5 -17.5t74 -39.5t70 -40t64.5 -18q41 0 74 29.5t60 62.5z" />
<glyph unicode="&#x1ee2;" horiz-adv-x="1599" d="M1950 1534l-58 -279q-19 -67 -56 -119q-33 -45 -92 -81.5t-158 -36.5q-3 -10 -5 -19.5t-4 -19.5l-85 -410q-39 -182 -99 -295.5t-153 -176t-220.5 -85t-299.5 -22.5q-176 0 -295 20.5t-182 82t-73 176t31 300.5l85 410q39 176 94.5 286t143.5 169.5t216 79.5t308 20 q130 0 230.5 -10.5t170.5 -42.5t109.5 -90t45.5 -154h12q15 -2 26 5q10 7 21.5 20t17.5 40l49 232h220zM1285 979q25 108 20 169t-41.5 91t-103.5 38t-164 8q-118 0 -190 -14t-116 -48.5t-67 -93.5t-45 -150l-85 -410q-25 -113 -25 -178.5t31 -99.5t97.5 -42.5t175.5 -8.5 q100 0 171 9.5t119.5 44.5t81 100.5t56.5 174.5zM898 -422h-255l59 278h255z" />
<glyph unicode="&#x1ee3;" horiz-adv-x="1265" d="M1555 1076l-44 -198q-19 -61 -56 -110q-31 -40 -86 -76.5t-142 -41.5q-4 -27 -10 -57t-12 -61q-33 -155 -71.5 -259.5t-103.5 -167t-170.5 -90t-271.5 -27.5t-259 27.5t-132 90t-33 167t39 259.5q33 153 71 258.5t103 168.5t170 90t272 27q110 0 188 -12t127.5 -37 t75 -66.5t30.5 -101.5h7q14 -2 26 6q10 7 22.5 20t18.5 40l34 151h207zM946 530q25 107 33 175.5t-9 108t-63 54t-131 14.5t-136.5 -14.5t-85 -54t-54 -108t-44.5 -175.5q-22 -108 -30 -175t9 -105.5t63 -53t131 -14.5t136.5 14.5t85 53t54 105.5t41.5 175zM730 -422h-256 l60 278h255z" />
<glyph unicode="&#x1ee4;" horiz-adv-x="1528" d="M1720 1521l-230 -1081q-35 -158 -100.5 -249.5t-159.5 -136t-213 -55.5t-257 -11q-133 0 -247 11t-189 55.5t-104 135t5 250.5l229 1081h292l-229 -1081q-12 -59 -7 -97.5t37.5 -62t96.5 -33t169 -9.5q102 0 169.5 7.5t111.5 31t68 63t36 100.5l230 1081h292zM861 -422 h-255l59 278h256z" />
<glyph unicode="&#x1ee5;" horiz-adv-x="1201" d="M828 0l33 164h-8q-34 -52 -75.5 -86.5t-89 -55t-100 -27.5t-108.5 -7q-78 0 -141 15t-102.5 50.5t-53 94.5t4.5 146l164 770h256l-144 -671q-12 -56 -15.5 -97t9 -66t46.5 -36.5t94 -11.5q148 0 218 64t99 204l131 614h256l-228 -1064h-246zM700 -422h-255l58 278h255z " />
<glyph unicode="&#x1ee6;" horiz-adv-x="1528" d="M1720 1521l-230 -1081q-35 -158 -100.5 -249.5t-159.5 -136t-213 -55.5t-257 -11q-133 0 -247 11t-189 55.5t-104 135t5 250.5l229 1081h292l-229 -1081q-12 -59 -7 -97.5t37.5 -62t96.5 -33t169 -9.5q102 0 169.5 7.5t111.5 31t68 63t36 100.5l230 1081h292zM1008 1629 l8 40q30 134 150 165h2q2 2 21.5 9.5t23.5 27.5l6 35q2 17 -8.5 22.5t-24.5 5.5h-43q-19 0 -28.5 -7t-11.5 -15l-2 -6l-10 -53h-143l11 53q12 54 31.5 89t53.5 52q28 17 64.5 23t89.5 6q102 0 140 -33q49 -38 28 -137q-8 -39 -16 -66t-24 -50q-18 -24 -43.5 -41t-65.5 -29 q-6 -2 -13.5 -4t-11.5 -4h-2q-16 -11 -20 -17t-4 -10v-2l-13 -54h-145z" />
<glyph unicode="&#x1ee7;" horiz-adv-x="1201" d="M828 0l33 164h-8q-34 -52 -75.5 -86.5t-89 -55t-100 -27.5t-108.5 -7q-78 0 -141 15t-102.5 50.5t-53 94.5t4.5 146l164 770h256l-144 -671q-12 -56 -15.5 -97t9 -66t46.5 -36.5t94 -11.5q148 0 218 64t99 204l131 614h256l-228 -1064h-246zM744 1172l8 41 q31 133 150 166h2q2 2 21 9t23 28l7 33q2 17 -8 23t-24 6h-43q-21 0 -29.5 -7t-10.5 -16l-2 -6l-10 -52h-143l10 52q13 56 32 90t53 53q29 16 65.5 22t89.5 6q102 0 139 -32q50 -39 29 -139q-8 -38 -16 -65.5t-25 -48.5q-18 -25 -43 -42.5t-66 -29.5q-7 -2 -13.5 -4 t-10.5 -4h-2q-16 -11 -21 -17q-4 -5 -4 -9v-2l-12 -55h-146z" />
<glyph unicode="&#x1ee8;" horiz-adv-x="1711" d="M2033 1521l-60 -281q-19 -66 -57 -118q-34 -46 -94 -82t-162 -36h-50l-120 -564q-35 -158 -100.5 -249.5t-159.5 -136t-213 -55.5t-257 -11q-133 0 -247 11t-189 55.5t-104 135t5 250.5l229 1081h292l-229 -1081q-12 -59 -7 -97.5t37.5 -62t96.5 -33t169 -9.5 q102 0 169.5 7.5t111.5 31t68 63t36 100.5l230 1081h292l-64 -298h37q14 -2 29 6q11 6 22.5 19t17.5 39l51 234h220zM1344 1797l-429 -175l-33 106l408 234z" />
<glyph unicode="&#x1ee9;" horiz-adv-x="1348" d="M1598 1064l-33 -160q-20 -72 -58 -130q-35 -48 -96 -89t-162 -41h-36l-139 -644h-246l33 164h-8q-34 -52 -75.5 -86.5t-89 -55t-100 -27.5t-108.5 -7q-78 0 -141 15t-102.5 50.5t-53 94.5t4.5 146l164 770h256l-144 -671q-12 -56 -15.5 -97t9 -66t46.5 -36.5t94 -11.5 q148 0 218 64t99 204l131 614h256l-45 -213h22q17 -2 29 6q10 6 21 19.5t17 40.5l31 147h221zM1093 1340l-430 -174l-32 105l408 236z" />
<glyph unicode="&#x1eea;" horiz-adv-x="1711" d="M2033 1521l-60 -281q-19 -66 -57 -118q-34 -46 -94 -82t-162 -36h-50l-120 -564q-35 -158 -100.5 -249.5t-159.5 -136t-213 -55.5t-257 -11q-133 0 -247 11t-189 55.5t-104 135t5 250.5l229 1081h292l-229 -1081q-12 -59 -7 -97.5t37.5 -62t96.5 -33t169 -9.5 q102 0 169.5 7.5t111.5 31t68 63t36 100.5l230 1081h292l-64 -298h37q14 -2 29 6q11 6 22.5 19t17.5 39l51 234h220zM1314 1728l-77 -106l-357 175l128 165z" />
<glyph unicode="&#x1eeb;" horiz-adv-x="1348" d="M1598 1064l-33 -160q-20 -72 -58 -130q-35 -48 -96 -89t-162 -41h-36l-139 -644h-246l33 164h-8q-34 -52 -75.5 -86.5t-89 -55t-100 -27.5t-108.5 -7q-78 0 -141 15t-102.5 50.5t-53 94.5t4.5 146l164 770h256l-144 -671q-12 -56 -15.5 -97t9 -66t46.5 -36.5t94 -11.5 q148 0 218 64t99 204l131 614h256l-45 -213h22q17 -2 29 6q10 6 21 19.5t17 40.5l31 147h221zM1099 1271l-77 -105l-357 174l128 167z" />
<glyph unicode="&#x1eec;" horiz-adv-x="1711" d="M2033 1521l-60 -281q-19 -66 -57 -118q-34 -46 -94 -82t-162 -36h-50l-120 -564q-35 -158 -100.5 -249.5t-159.5 -136t-213 -55.5t-257 -11q-133 0 -247 11t-189 55.5t-104 135t5 250.5l229 1081h292l-229 -1081q-12 -59 -7 -97.5t37.5 -62t96.5 -33t169 -9.5 q102 0 169.5 7.5t111.5 31t68 63t36 100.5l230 1081h292l-64 -298h37q14 -2 29 6q11 6 22.5 19t17.5 39l51 234h220zM977 1629l8 40q31 134 151 165h2q1 2 20.5 9.5t23.5 27.5l6 35q2 17 -8 22.5t-25 5.5h-42q-20 0 -29.5 -7t-11.5 -15l-2 -6l-10 -53h-141l10 53 q11 54 30.5 89t54.5 52q28 17 64.5 23t89.5 6q101 0 140 -33q48 -38 28 -137q-8 -39 -16 -66t-24 -50q-19 -24 -44 -41t-66 -29q-6 -2 -13 -4t-11 -4h-3q-16 -11 -20 -17q-3 -6 -3 -10v-2l-12 -54h-147z" />
<glyph unicode="&#x1eed;" horiz-adv-x="1348" d="M1598 1064l-33 -160q-20 -72 -58 -130q-35 -48 -96 -89t-162 -41h-36l-139 -644h-246l33 164h-8q-34 -52 -75.5 -86.5t-89 -55t-100 -27.5t-108.5 -7q-78 0 -141 15t-102.5 50.5t-53 94.5t4.5 146l164 770h256l-144 -671q-12 -56 -15.5 -97t9 -66t46.5 -36.5t94 -11.5 q148 0 218 64t99 204l131 614h256l-45 -213h22q17 -2 29 6q10 6 21 19.5t17 40.5l31 147h221zM744 1172l8 41q31 133 150 166h2q2 2 21 9t23 28l7 33q2 17 -8 23t-24 6h-43q-21 0 -29.5 -7t-10.5 -16l-2 -6l-10 -52h-143l10 52q13 56 32 90t53 53q29 16 65.5 22t89.5 6 q102 0 139 -32q50 -39 29 -139q-8 -38 -16 -65.5t-25 -48.5q-18 -25 -43 -42.5t-66 -29.5q-7 -2 -13.5 -4t-10.5 -4h-2q-16 -11 -21 -17q-4 -5 -4 -9v-2l-12 -55h-146z" />
<glyph unicode="&#x1eee;" horiz-adv-x="1711" d="M2033 1521l-60 -281q-19 -66 -57 -118q-34 -46 -94 -82t-162 -36h-50l-120 -564q-35 -158 -100.5 -249.5t-159.5 -136t-213 -55.5t-257 -11q-133 0 -247 11t-189 55.5t-104 135t5 250.5l229 1081h292l-229 -1081q-12 -59 -7 -97.5t37.5 -62t96.5 -33t169 -9.5 q102 0 169.5 7.5t111.5 31t68 63t36 100.5l230 1081h292l-64 -298h37q14 -2 29 6q11 6 22.5 19t17.5 39l51 234h220zM1496 1815q-53 -72 -118.5 -124.5t-152.5 -52.5q-45 0 -83.5 17.5t-73 39t-67 38t-62.5 16.5q-45 0 -73 -25t-55 -60l-116 71q53 70 119 121.5t151 51.5 q41 0 79.5 -18.5t73.5 -39.5t70 -39.5t65 -18.5q41 0 74 29.5t60 62.5z" />
<glyph unicode="&#x1eef;" horiz-adv-x="1348" d="M1598 1064l-33 -160q-20 -72 -58 -130q-35 -48 -96 -89t-162 -41h-36l-139 -644h-246l33 164h-8q-34 -52 -75.5 -86.5t-89 -55t-100 -27.5t-108.5 -7q-78 0 -141 15t-102.5 50.5t-53 94.5t4.5 146l164 770h256l-144 -671q-12 -56 -15.5 -97t9 -66t46.5 -36.5t94 -11.5 q148 0 218 64t99 204l131 614h256l-45 -213h22q17 -2 29 6q10 6 21 19.5t17 40.5l31 147h221zM1300 1358q-53 -71 -119 -123.5t-153 -52.5q-45 0 -83.5 17.5t-72.5 38.5t-67 38.5t-63 17.5q-44 0 -72.5 -26t-54.5 -59l-116 70q52 69 118 120.5t151 51.5q41 0 79.5 -17.5 t74 -39.5t70 -40t64.5 -18q41 0 74.5 29.5t59.5 62.5z" />
<glyph unicode="&#x1ef0;" horiz-adv-x="1711" d="M2033 1521l-60 -281q-19 -66 -57 -118q-34 -46 -94 -82t-162 -36h-50l-120 -564q-35 -158 -100.5 -249.5t-159.5 -136t-213 -55.5t-257 -11q-133 0 -247 11t-189 55.5t-104 135t5 250.5l229 1081h292l-229 -1081q-12 -59 -7 -97.5t37.5 -62t96.5 -33t169 -9.5 q102 0 169.5 7.5t111.5 31t68 63t36 100.5l230 1081h292l-64 -298h37q14 -2 29 6q11 6 22.5 19t17.5 39l51 234h220zM953 -422h-255l58 278h256z" />
<glyph unicode="&#x1ef1;" horiz-adv-x="1348" d="M1598 1064l-33 -160q-20 -72 -58 -130q-35 -48 -96 -89t-162 -41h-36l-139 -644h-246l33 164h-8q-34 -52 -75.5 -86.5t-89 -55t-100 -27.5t-108.5 -7q-78 0 -141 15t-102.5 50.5t-53 94.5t4.5 146l164 770h256l-144 -671q-12 -56 -15.5 -97t9 -66t46.5 -36.5t94 -11.5 q148 0 218 64t99 204l131 614h256l-45 -213h22q17 -2 29 6q10 6 21 19.5t17 40.5l31 147h221zM772 -422h-255l59 278h256z" />
<glyph unicode="&#x1ef2;" horiz-adv-x="1358" d="M942 584l-123 -584h-292l123 584l-350 937h333l222 -649h6l505 649h337zM1235 1728l-78 -106l-356 175l128 165z" />
<glyph unicode="&#x1ef3;" horiz-adv-x="983" d="M710 -43q-43 -91 -83.5 -169t-96.5 -136t-131.5 -91t-187.5 -33q-29 0 -54 3t-54 5l43 193q12 -2 25 -4.5t28 -2.5q60 0 102 26.5t72.5 67t51.5 89t39 95.5h-123l-124 1064h263l77 -906h4l400 906h260zM953 1271l-77 -105l-357 174l127 167z" />
<glyph unicode="&#x1ef4;" horiz-adv-x="1358" d="M942 584l-123 -584h-292l123 584l-350 937h333l222 -649h6l505 649h337zM734 -422h-256l60 278h255z" />
<glyph unicode="&#x1ef5;" horiz-adv-x="983" d="M710 -43q-43 -91 -83.5 -169t-96.5 -136t-131.5 -91t-187.5 -33q-29 0 -54 3t-54 5l43 193q12 -2 25 -4.5t28 -2.5q60 0 102 26.5t72.5 67t51.5 89t39 95.5h-123l-124 1064h263l77 -906h4l400 906h260zM989 -422h-255l59 278h255z" />
<glyph unicode="&#x1ef6;" horiz-adv-x="1358" d="M942 584l-123 -584h-292l123 584l-350 937h333l222 -649h6l505 649h337zM904 1629l9 40q29 134 149 165h2q2 2 21.5 9.5t23.5 27.5l6 35q2 17 -8 22.5t-24 5.5h-43q-20 0 -29 -7t-11 -15l-2 -6l-11 -53h-142l10 53q13 54 32 89t53 52q29 17 65.5 23t89.5 6q101 0 140 -33 q48 -38 28 -137q-8 -39 -16.5 -66t-23.5 -50q-18 -24 -44 -41t-66 -29q-6 -2 -13 -4t-11 -4h-2q-17 -11 -21 -17t-4 -10v-2l-12 -54h-146z" />
<glyph unicode="&#x1ef7;" horiz-adv-x="983" d="M710 -43q-43 -91 -83.5 -169t-96.5 -136t-131.5 -91t-187.5 -33q-29 0 -54 3t-54 5l43 193q12 -2 25 -4.5t28 -2.5q60 0 102 26.5t72.5 67t51.5 89t39 95.5h-123l-124 1064h263l77 -906h4l400 906h260zM644 1172l8 41q31 133 151 166h2q2 2 21 9t23 28l6 33q2 17 -7.5 23 t-24.5 6h-43q-20 0 -29 -7t-10 -16l-3 -6l-10 -52h-142l10 52q12 56 31 90t54 53q29 16 65.5 22t89.5 6q101 0 139 -32q49 -39 29 -139q-8 -38 -16.5 -65.5t-24.5 -48.5q-19 -25 -44 -42.5t-66 -29.5q-6 -2 -12.5 -4t-10.5 -4h-2q-17 -11 -21 -17q-4 -5 -4 -9v-2l-12 -55 h-147z" />
<glyph unicode="&#x1ef8;" horiz-adv-x="1358" d="M942 584l-123 -584h-292l123 584l-350 937h333l222 -649h6l505 649h337zM1458 1815q-53 -72 -119 -124.5t-153 -52.5q-45 0 -83.5 17.5t-72.5 39t-66.5 38t-63.5 16.5q-45 0 -73 -25t-55 -60l-115 71q53 70 119 121.5t151 51.5q40 0 78.5 -18.5t74 -39.5t70 -39.5 t65.5 -18.5q40 0 73.5 29.5t59.5 62.5z" />
<glyph unicode="&#x1ef9;" horiz-adv-x="983" d="M710 -43q-43 -91 -83.5 -169t-96.5 -136t-131.5 -91t-187.5 -33q-29 0 -54 3t-54 5l43 193q12 -2 25 -4.5t28 -2.5q60 0 102 26.5t72.5 67t51.5 89t39 95.5h-123l-124 1064h263l77 -906h4l400 906h260zM1164 1358q-53 -71 -119 -123.5t-153 -52.5q-45 0 -83.5 17.5 t-72.5 38.5t-66.5 38.5t-63.5 17.5q-45 0 -73 -26t-55 -59l-115 70q53 69 118.5 120.5t151.5 51.5q40 0 78.5 -17.5t74 -39.5t70 -40t65.5 -18q40 0 73.5 29.5t59.5 62.5z" />
<glyph unicode="&#x2000;" horiz-adv-x="1184" />
<glyph unicode="&#x2001;" horiz-adv-x="2368" />
<glyph unicode="&#x2002;" horiz-adv-x="1184" />
<glyph unicode="&#x2003;" horiz-adv-x="2368" />
<glyph unicode="&#x2004;" horiz-adv-x="789" />
<glyph unicode="&#x2005;" horiz-adv-x="592" />
<glyph unicode="&#x2006;" horiz-adv-x="394" />
<glyph unicode="&#x2007;" horiz-adv-x="394" />
<glyph unicode="&#x2008;" horiz-adv-x="296" />
<glyph unicode="&#x2009;" horiz-adv-x="473" />
<glyph unicode="&#x200a;" horiz-adv-x="131" />
<glyph unicode="&#x2010;" horiz-adv-x="539" d="M679 657l-42 -195h-540l43 195h539z" />
<glyph unicode="&#x2011;" horiz-adv-x="539" d="M679 657l-42 -195h-540l43 195h539z" />
<glyph unicode="&#x2012;" horiz-adv-x="539" d="M679 657l-42 -195h-540l43 195h539z" />
<glyph unicode="&#x2013;" horiz-adv-x="1013" d="M1153 657l-42 -195h-1014l43 195h1013z" />
<glyph unicode="&#x2014;" horiz-adv-x="2027" d="M2167 657l-42 -195h-2028l43 195h2027z" />
<glyph unicode="&#x2018;" horiz-adv-x="470" d="M673 1413q-56 0 -93.5 -25.5t-56.5 -110.5h102l-60 -273h-255l51 238q14 66 30.5 120t46.5 91t79.5 58.5t130.5 21.5h52z" />
<glyph unicode="&#x2019;" horiz-adv-x="470" d="M333 1111q56 0 94.5 25.5t56.5 110.5h-101l57 274h255l-51 -240q-13 -64 -28.5 -118t-45.5 -92.5t-80 -59t-132 -20.5h-50z" />
<glyph unicode="&#x201c;" horiz-adv-x="859" d="M1064 1413q-56 0 -93.5 -25.5t-55.5 -110.5h101l-59 -273h-255l50 238q14 66 30.5 120t46.5 91t80 58.5t131 21.5h51zM673 1413q-56 0 -93.5 -25.5t-56.5 -110.5h102l-60 -273h-255l51 238q14 66 30.5 120t46.5 91t79.5 58.5t130.5 21.5h52z" />
<glyph unicode="&#x201d;" horiz-adv-x="859" d="M333 1111q56 0 94.5 25.5t56.5 110.5h-101l57 274h255l-51 -240q-13 -64 -28.5 -118t-45.5 -92.5t-80 -59t-132 -20.5h-50zM724 1111q56 0 94.5 25.5t57.5 110.5h-102l58 274h255l-50 -240q-15 -64 -30.5 -118t-45.5 -92.5t-79.5 -59t-131.5 -20.5h-50z" />
<glyph unicode="&#x2026;" horiz-adv-x="2027" d="M466 0h-255l58 278h256zM1141 0h-255l58 278h256zM1817 0h-256l59 278h255z" />
<glyph unicode="&#x202f;" horiz-adv-x="473" />
<glyph unicode="&#x205f;" horiz-adv-x="592" />
<glyph unicode="&#xe000;" horiz-adv-x="1064" d="M0 1064h1064v-1064h-1064v1064z" />
</font>
</defs>
</svg>
